<?xml version="1.0" encoding="utf-8"?>
<!-- Generator: Adobe Illustrator 24.1.0, SVG Export Plug-In . SVG Version: 6.00 Build 0)  -->
<svg version="1.1" id="Capa_1" xmlns="http://www.w3.org/2000/svg" xmlns:xlink="http://www.w3.org/1999/xlink" x="0px" y="0px"
	 viewBox="0 0 467.9 381.1" style="enable-background:new 0 0 467.9 381.1;" xml:space="preserve">
<style type="text/css">
	.st0{clip-path:url(#SVGID_2_);fill:#E7E126;}
	.st1{clip-path:url(#SVGID_4_);}
	.st2{fill:#7F348B;}
	.st3{fill:#CD4E71;}
	.st4{clip-path:url(#SVGID_6_);fill:#E7E126;}
	.st5{clip-path:url(#SVGID_8_);}
	.st6{fill:#E7E126;}
	.st7{clip-path:url(#SVGID_10_);fill:#7F348B;}
	.st8{clip-path:url(#SVGID_12_);fill:#CD4E71;}
	.st9{enable-background:new    ;}
	.st10{fill:#FFFFFF;}
	.st11{clip-path:url(#SVGID_14_);fill:#E7E126;}
	.st12{fill:none;stroke:#FFFFFF;stroke-width:2;stroke-miterlimit:10;}
	.st13{fill:none;stroke:#000000;stroke-miterlimit:10;}
	.st14{fill:none;stroke:#FFFFFF;stroke-miterlimit:10;}
	.st15{fill:none;stroke:#FFFFFF;stroke-miterlimit:10;stroke-dasharray:6,6,6,6,6,6;}
</style>
<g>
	<g>
		<g>
			<g>
				<g>
					<defs>
						<path id="SVGID_1_" d="M171.1,191.3H96.5c-6.6,0-12-5.4-12-12v-74.6c0-6.6,5.4-12,12-12h74.6c6.6,0,12,5.4,12,12v74.6
							C183.1,185.9,177.7,191.3,171.1,191.3z"/>
					</defs>
					<clipPath id="SVGID_2_">
						<use xlink:href="#SVGID_1_"  style="overflow:visible;"/>
					</clipPath>
					<rect x="131.2" y="182" class="st0" width="58.6" height="22.1"/>
				</g>
			</g>
		</g>
	</g>
</g>
<g>
	<g>
		<g>
			<g>
				<g>
					<defs>
						<path id="SVGID_3_" d="M299.1,187.8h-74.6c-6.6,0-12-5.4-12-12V59.5c0-6.6,5.4-12,12-12h74.6c6.6,0,12,5.4,12,12v116.3
							C311.1,182.4,305.7,187.8,299.1,187.8z"/>
					</defs>
					<clipPath id="SVGID_4_">
						<use xlink:href="#SVGID_3_"  style="overflow:visible;"/>
					</clipPath>
					<g class="st1">
						<rect x="212.5" y="176.8" class="st2" width="44.3" height="22.1"/>
						<rect x="294" y="44.7" class="st2" width="17.1" height="137.4"/>
						<rect x="256.7" y="179.8" class="st3" width="54.3" height="22.1"/>
					</g>
				</g>
			</g>
		</g>
	</g>
</g>
<g>
	<g>
		<g>
			<g>
				<g>
					<defs>
						<path id="SVGID_5_" d="M423.5,187.8h-74.6c-6.6,0-12-5.4-12-12V64.7c0-6.6,5.4-12,12-12h74.6c6.6,0,12,5.4,12,12v111.1
							C435.5,182.4,430.1,187.8,423.5,187.8z"/>
					</defs>
					<clipPath id="SVGID_6_">
						<use xlink:href="#SVGID_5_"  style="overflow:visible;"/>
					</clipPath>
					<rect x="325.3" y="42.2" class="st4" width="20" height="156.1"/>
				</g>
			</g>
		</g>
	</g>
</g>
<g>
	<g>
		<g>
			<g>
				<g>
					<defs>
						<path id="SVGID_7_" d="M423.5,350.5H293.7c-6.6,0-12-5.4-12-12V227.4c0-6.6,5.4-12,12-12h129.8c6.6,0,12,5.4,12,12v111.1
							C435.5,345.1,430.1,350.5,423.5,350.5z"/>
					</defs>
					<clipPath id="SVGID_8_">
						<use xlink:href="#SVGID_7_"  style="overflow:visible;"/>
					</clipPath>
					<g class="st5">
						<rect x="282.4" y="215.4" class="st2" width="41.7" height="16.2"/>
						<rect x="324.1" y="209.4" class="st6" width="111.5" height="16.2"/>
					</g>
				</g>
			</g>
		</g>
	</g>
</g>
<g>
	<g>
		<g>
			<g>
				<g>
					<defs>
						<path id="SVGID_9_" d="M249.8,350.5h-91.4c-6.6,0-12-5.4-12-12V227.4c0-6.6,5.4-12,12-12h91.4c6.6,0,12,5.4,12,12v111.1
							C261.8,345.1,256.4,350.5,249.8,350.5z"/>
					</defs>
					<clipPath id="SVGID_10_">
						<use xlink:href="#SVGID_9_"  style="overflow:visible;"/>
					</clipPath>
					<rect x="146.4" y="211.2" class="st7" width="115.4" height="22.1"/>
				</g>
			</g>
		</g>
	</g>
	<g>
		<g>
			<g>
				<g>
					<defs>
						<path id="SVGID_11_" d="M249.8,350.5h-91.4c-6.6,0-12-5.4-12-12V227.4c0-6.6,5.4-12,12-12h91.4c6.6,0,12,5.4,12,12v111.1
							C261.8,345.1,256.4,350.5,249.8,350.5z"/>
					</defs>
					<clipPath id="SVGID_12_">
						<use xlink:href="#SVGID_11_"  style="overflow:visible;"/>
					</clipPath>
					<rect x="146.4" y="233.3" class="st8" width="11.9" height="117.1"/>
				</g>
			</g>
		</g>
	</g>
</g>
<g class="st9">
	<path class="st10" d="M125.9,279l4.5-10.5h2.3l4.5,10.5h-2.5l-1-2.3h-4.4l-1,2.3H125.9z M130.2,274.7h2.6l-1.3-3.1L130.2,274.7z"/>
</g>
<g>
	<g class="st9">
		<path class="st10" d="M320.1,41.2V30.7h4.1c0.7,0,1.3,0.1,1.8,0.3c0.5,0.2,0.9,0.4,1.2,0.7c0.5,0.5,0.7,1.2,0.7,1.8
			c0,0.8-0.3,1.4-0.8,1.8c-0.2,0.1-0.3,0.2-0.4,0.3c-0.1,0-0.2,0.1-0.4,0.2c0.7,0.1,1.2,0.4,1.6,0.9s0.6,1,0.6,1.7
			c0,0.7-0.2,1.4-0.8,1.9c-0.6,0.7-1.6,1-3,1H320.1z M322.4,35h1.1c0.7,0,1.1-0.1,1.5-0.2c0.3-0.1,0.5-0.4,0.5-0.9
			c0-0.5-0.1-0.8-0.4-0.9c-0.3-0.1-0.8-0.2-1.5-0.2h-1.1V35z M322.4,39.3h1.6c0.7,0,1.2-0.1,1.5-0.2s0.5-0.5,0.5-1s-0.2-0.8-0.5-1
			c-0.4-0.2-0.9-0.2-1.7-0.2h-1.4V39.3z"/>
	</g>
</g>
<circle class="st10" cx="324" cy="50.1" r="5.2"/>
<circle class="st10" cx="131.2" cy="257.1" r="5.2"/>
<g>
	<g>
		<g>
			<g>
				<g>
					<defs>
						<path id="SVGID_13_" d="M99.1,350.5H3.3c-6.6,0-12-5.4-12-12V227.4c0-6.6,5.4-12,12-12h95.8c6.6,0,12,5.4,12,12v111.1
							C111.1,345.1,105.7,350.5,99.1,350.5z"/>
					</defs>
					<clipPath id="SVGID_14_">
						<use xlink:href="#SVGID_13_"  style="overflow:visible;"/>
					</clipPath>
					<rect x="104.2" y="209.2" class="st11" width="20" height="156.1"/>
				</g>
			</g>
		</g>
	</g>
</g>
<path class="st12" d="M99.1,350.5H63.2c-6.6,0-12-5.4-12-12V227.4c0-6.6,5.4-12,12-12h35.9c6.6,0,12,5.4,12,12v111.1
	C111.1,345.1,105.7,350.5,99.1,350.5z"/>
<path class="st12" d="M171.1,191.3H96.5c-6.6,0-12-5.4-12-12v-74.6c0-6.6,5.4-12,12-12h74.6c6.6,0,12,5.4,12,12v74.6
	C183.1,185.9,177.7,191.3,171.1,191.3z"/>
<path class="st12" d="M249.8,350.5h-91.4c-6.6,0-12-5.4-12-12V227.4c0-6.6,5.4-12,12-12h91.4c6.6,0,12,5.4,12,12v111.1
	C261.8,345.1,256.4,350.5,249.8,350.5z"/>
<path class="st12" d="M299.1,187.8h-74.6c-6.6,0-12-5.4-12-12V59.5c0-6.6,5.4-12,12-12h74.6c6.6,0,12,5.4,12,12v116.3
	C311.1,182.4,305.7,187.8,299.1,187.8z"/>
<path class="st12" d="M423.5,350.5H293.7c-6.6,0-12-5.4-12-12V227.4c0-6.6,5.4-12,12-12h129.8c6.6,0,12,5.4,12,12v111.1
	C435.5,345.1,430.1,350.5,423.5,350.5z"/>
<path class="st12" d="M423.5,185.2h-74.6c-6.6,0-12-5.4-12-12V62.1c0-6.6,5.4-12,12-12h74.6c6.6,0,12,5.4,12,12v111.1
	C435.5,179.8,430.1,185.2,423.5,185.2z"/>
<path class="st13" d="M131.2,270.7"/>
<path class="st13" d="M315.9,60.7"/>
<line class="st14" x1="302.5" y1="113.4" x2="170.2" y2="67.4"/>
<g class="st9">
	<path class="st10" d="M26.6,52.7l4.5-10.5h2.3l4.5,10.5h-2.5l-1-2.3H30l-1,2.3H26.6z M30.9,48.3h2.6l-1.3-3.1L30.9,48.3z"/>
	<path class="st10" d="M39.7,51.6c-0.8-0.8-1.3-1.8-1.3-3s0.4-2.3,1.3-3s1.9-1.2,3-1.2c0.6,0,1.2,0.1,1.8,0.4
		c0.6,0.2,1.1,0.6,1.6,1.1l-1.2,1.5c-0.3-0.3-0.6-0.6-1-0.7c-0.4-0.2-0.8-0.3-1.1-0.3c-0.6,0-1.1,0.2-1.5,0.6
		c-0.4,0.4-0.6,0.9-0.6,1.6s0.2,1.2,0.6,1.6c0.4,0.4,0.9,0.6,1.5,0.6c0.8,0,1.4-0.4,2-1.1l1.3,1.5c-1,1.1-2.2,1.6-3.4,1.6
		S40.6,52.4,39.7,51.6z"/>
	<path class="st10" d="M48.5,51.6c-0.8-0.8-1.2-1.8-1.2-3.1s0.4-2.3,1.2-3c0.8-0.8,1.8-1.1,2.9-1.1s2.1,0.3,2.8,1
		c0.8,0.7,1.2,1.6,1.2,2.8v1.2h-5.9c0.1,0.4,0.3,0.8,0.7,1.1s0.8,0.4,1.3,0.4c0.8,0,1.4-0.3,2-0.8l1.3,1.4c-0.9,0.9-2,1.3-3.2,1.3
		S49.3,52.4,48.5,51.6z M49.5,47.8h3.6c-0.1-0.5-0.2-0.9-0.5-1.1c-0.3-0.3-0.7-0.4-1.1-0.4c-0.4,0-0.9,0.1-1.2,0.4
		C49.8,47,49.6,47.3,49.5,47.8z"/>
	<path class="st10" d="M57,52.7v-8.1h2.3v1.1c0.3-0.3,0.7-0.6,1.1-0.8c0.4-0.2,0.9-0.3,1.3-0.4v2.1h-0.4c-0.7,0-1.2,0.2-1.5,0.7
		s-0.5,1.1-0.5,1.9v3.5C59.3,52.7,57,52.7,57,52.7z"/>
	<path class="st10" d="M63.6,52c-0.6-0.5-0.9-1.2-0.9-2s0.3-1.5,0.9-1.9c0.6-0.4,1.4-0.6,2.5-0.6h1.7l0,0c0-0.8-0.5-1.2-1.4-1.2
		c-0.4,0-0.8,0.1-1.2,0.2s-0.8,0.3-1.1,0.5l-1-1.4c1.1-0.8,2.3-1.2,3.6-1.2l0,0c1,0,1.8,0.2,2.4,0.7s0.9,1.3,0.9,2.3v5.2h-2.1v-1
		c-0.6,0.7-1.3,1.1-2.2,1.1l0,0C64.9,52.8,64.2,52.5,63.6,52z M65,50c0,0.3,0.1,0.5,0.3,0.7c0.2,0.2,0.5,0.2,0.9,0.2
		s0.8-0.1,1.1-0.4s0.5-0.6,0.5-1v-0.4h-1.4C65.4,49.2,65,49.5,65,50z"/>
	<path class="st10" d="M76.1,52.7v-8.1h2.3v0.9c0.6-0.7,1.3-1,2.1-1c0.5,0,1,0.2,1.4,0.4c0.4,0.3,0.7,0.7,0.9,1.1
		c0.3-0.5,0.7-0.9,1.3-1.1c0.5-0.3,1.1-0.4,1.6-0.4c1,0,1.7,0.3,2.3,0.9c0.6,0.6,0.9,1.4,0.9,2.5v4.9h-2.3v-4.4
		c0-1.2-0.5-1.9-1.4-1.9c-0.5,0-0.8,0.2-1.2,0.5c-0.3,0.3-0.5,0.8-0.5,1.4v4.4h-2.3v-4.4c0-0.6-0.1-1.1-0.3-1.4s-0.5-0.5-0.9-0.5
		s-0.8,0.2-1.2,0.5c-0.3,0.3-0.5,0.8-0.5,1.4v4.4h-2.2V52.7z"/>
	<path class="st10" d="M91.3,52c-0.6-0.5-0.9-1.2-0.9-2s0.3-1.5,0.9-1.9s1.4-0.6,2.5-0.6h1.7l0,0c0-0.8-0.5-1.2-1.4-1.2
		c-0.4,0-0.8,0.1-1.2,0.2s-0.8,0.3-1.1,0.5l-1-1.4c1.1-0.8,2.3-1.2,3.6-1.2c1,0,1.8,0.2,2.4,0.7s0.9,1.3,0.9,2.3v5.2h-2.1v-1
		c-0.6,0.7-1.3,1.1-2.2,1.1C92.6,52.8,91.9,52.5,91.3,52z M92.7,50c0,0.3,0.1,0.5,0.3,0.7c0.2,0.2,0.5,0.2,0.9,0.2s0.8-0.1,1.1-0.4
		s0.5-0.6,0.5-1v-0.4h-1.4C93.2,49.2,92.7,49.5,92.7,50z M92.9,43.5l1.9-2.7l2.3,1L95,43.5H92.9z"/>
	<path class="st10" d="M99.2,51.6l1-1.4c0.8,0.6,1.7,1,2.7,1c0.3,0,0.5-0.1,0.7-0.2c0.2-0.1,0.3-0.3,0.3-0.5s-0.1-0.4-0.4-0.5
		c-0.2-0.2-0.6-0.3-1-0.5c-0.4-0.1-0.8-0.3-1-0.4c-0.2-0.1-0.5-0.2-0.8-0.4c-0.6-0.4-0.9-0.9-0.9-1.7s0.3-1.4,0.9-1.9
		s1.4-0.8,2.3-0.8c1,0,1.9,0.3,2.9,1l-0.8,1.6c-0.7-0.5-1.4-0.7-2.1-0.7l0,0c-0.7,0-1,0.2-1,0.6c0,0.2,0.1,0.4,0.3,0.5
		c0.2,0.1,0.6,0.3,1.1,0.4c0.5,0.2,0.9,0.3,1.1,0.4c0.2,0.1,0.5,0.2,0.8,0.4c0.6,0.3,0.8,0.9,0.8,1.7s-0.3,1.4-0.9,1.9
		s-1.3,0.7-2.2,0.7c-0.6,0-1.2-0.1-1.9-0.3C100.3,52.3,99.7,52,99.2,51.6z"/>
	<path class="st10" d="M111,51.6l1-1.4c0.8,0.6,1.7,1,2.7,1c0.3,0,0.5-0.1,0.7-0.2c0.2-0.1,0.3-0.3,0.3-0.5s-0.1-0.4-0.4-0.5
		c-0.2-0.2-0.6-0.3-1-0.5c-0.4-0.1-0.8-0.3-1-0.4c-0.2-0.1-0.5-0.2-0.8-0.4c-0.6-0.4-0.9-0.9-0.9-1.7s0.3-1.4,0.9-1.9
		s1.4-0.8,2.3-0.8c1,0,1.9,0.3,2.9,1l-0.8,1.6c-0.7-0.5-1.4-0.7-2.1-0.7l0,0c-0.7,0-1,0.2-1,0.6c0,0.2,0.1,0.4,0.3,0.5
		c0.2,0.1,0.6,0.3,1.1,0.4c0.5,0.2,0.9,0.3,1.1,0.4c0.2,0.1,0.5,0.2,0.8,0.4c0.6,0.3,0.8,0.9,0.8,1.7s-0.3,1.4-0.9,1.9
		s-1.3,0.7-2.2,0.7c-0.6,0-1.2-0.1-1.9-0.3C112.1,52.3,111.5,52,111,51.6z"/>
	<path class="st10" d="M120.2,51.6c-0.8-0.8-1.2-1.8-1.2-3.1s0.4-2.3,1.2-3c0.8-0.8,1.8-1.1,2.9-1.1s2.1,0.3,2.8,1
		c0.8,0.7,1.2,1.6,1.2,2.8v1.2h-5.9c0.1,0.4,0.3,0.8,0.7,1.1c0.4,0.3,0.8,0.4,1.3,0.4c0.8,0,1.4-0.3,2-0.8l1.3,1.4
		c-0.9,0.9-2,1.3-3.2,1.3S121,52.4,120.2,51.6z M121.3,47.8h3.6c-0.1-0.5-0.2-0.9-0.5-1.1c-0.3-0.3-0.7-0.4-1.1-0.4
		s-0.9,0.1-1.2,0.4C121.6,47,121.4,47.3,121.3,47.8z"/>
	<path class="st10" d="M129.4,51.4c-0.7-0.7-1.1-1.7-1.1-2.9s0.4-2.2,1.1-3c0.7-0.8,1.6-1.2,2.6-1.2s1.8,0.4,2.4,1.2v-1.1h2.3v7.1
		c0,0.7-0.1,1.4-0.4,1.9c-0.3,0.6-0.6,1-1,1.3c-0.8,0.7-1.8,1-3,1c-0.6,0-1.2-0.1-1.8-0.3s-1.2-0.5-1.6-0.8l0.9-1.7
		c0.7,0.6,1.5,0.8,2.4,0.8s1.5-0.2,2-0.6c0.5-0.4,0.7-1.1,0.7-2c-0.7,0.8-1.6,1.2-2.7,1.2l0,0C131.1,52.5,130.2,52.1,129.4,51.4z
		 M131.2,46.9c-0.4,0.4-0.6,0.9-0.6,1.5s0.2,1.2,0.6,1.6c0.4,0.4,0.8,0.6,1.4,0.6c0.5,0,1-0.2,1.4-0.6c0.4-0.4,0.5-0.9,0.5-1.6
		c0-0.7-0.2-1.2-0.5-1.5c-0.4-0.4-0.8-0.6-1.3-0.6C132.1,46.3,131.6,46.5,131.2,46.9z"/>
	<path class="st10" d="M138.8,49.5v-4.9h2.3V49c0,1.2,0.5,1.9,1.4,1.9c0.5,0,0.8-0.2,1.2-0.5c0.3-0.3,0.5-0.8,0.5-1.4v-4.4h2.3v8.1
		h-2.3v-1.1c-0.6,0.8-1.3,1.2-2.2,1.2l0,0c-0.9,0-1.6-0.3-2.2-0.8S138.8,50.6,138.8,49.5z"/>
	<path class="st10" d="M148.5,52.7v-8.1h2.3v1.1c0.3-0.3,0.7-0.6,1.1-0.8c0.4-0.2,0.9-0.3,1.3-0.4v2.1h-0.4c-0.7,0-1.2,0.2-1.5,0.7
		s-0.5,1.1-0.5,1.9v3.5C150.8,52.7,148.5,52.7,148.5,52.7z"/>
	<path class="st10" d="M155,52c-0.6-0.5-0.9-1.2-0.9-2s0.3-1.5,0.9-1.9c0.6-0.4,1.4-0.6,2.5-0.6h1.7l0,0c0-0.8-0.5-1.2-1.4-1.2
		c-0.4,0-0.8,0.1-1.2,0.2s-0.8,0.3-1.1,0.5l-1-1.4c1.1-0.8,2.3-1.2,3.6-1.2l0,0c1,0,1.8,0.2,2.4,0.7c0.6,0.5,0.9,1.3,0.9,2.3v5.2
		h-2.1v-1c-0.6,0.7-1.3,1.1-2.2,1.1l0,0C156.4,52.8,155.6,52.5,155,52z M156.4,50c0,0.3,0.1,0.5,0.3,0.7s0.5,0.2,0.9,0.2
		s0.8-0.1,1.1-0.4s0.5-0.6,0.5-1v-0.4h-1.4C156.9,49.2,156.4,49.5,156.4,50z"/>
</g>
<g class="st9">
	<path class="st10" d="M27.7,68.7v-11H30v0.9c0.7-0.7,1.5-1,2.5-1c0.9,0,1.8,0.4,2.5,1.2s1.1,1.8,1.1,3s-0.4,2.2-1.1,3
		S33.4,66,32.4,66s-1.8-0.4-2.4-1.2v4h-2.3V68.7z M30.5,60.1c-0.4,0.4-0.5,1-0.5,1.6c0,0.7,0.2,1.2,0.5,1.6c0.4,0.4,0.8,0.6,1.3,0.6
		s1-0.2,1.4-0.6c0.4-0.4,0.6-1,0.6-1.6c0-0.7-0.2-1.2-0.6-1.6s-0.8-0.7-1.4-0.7C31.3,59.4,30.9,59.6,30.5,60.1z"/>
	<path class="st10" d="M38.2,65.1c-0.6-0.5-0.9-1.2-0.9-2s0.3-1.5,0.9-1.9c0.6-0.4,1.4-0.6,2.5-0.6h1.7l0,0c0-0.8-0.5-1.2-1.4-1.2
		c-0.4,0-0.8,0.1-1.2,0.2s-0.8,0.3-1.1,0.5l-1-1.4c1.1-0.8,2.3-1.2,3.6-1.2l0,0c1,0,1.8,0.2,2.4,0.7c0.6,0.5,0.9,1.3,0.9,2.3v5.2
		h-2.1v-1c-0.6,0.7-1.3,1.1-2.2,1.1l0,0C39.5,65.9,38.8,65.6,38.2,65.1z M39.6,63.1c0,0.3,0.1,0.5,0.3,0.7s0.5,0.2,0.9,0.2
		s0.8-0.1,1.1-0.4s0.5-0.6,0.5-1v-0.4H41C40,62.3,39.6,62.6,39.6,63.1z"/>
	<path class="st10" d="M46.7,65.8v-8.1H49v1.1c0.3-0.3,0.7-0.6,1.1-0.8c0.4-0.2,0.9-0.3,1.3-0.4v2.1H51c-0.7,0-1.2,0.2-1.5,0.7
		S49,61.5,49,62.3v3.5H46.7z"/>
	<path class="st10" d="M53.2,65.1c-0.6-0.5-0.9-1.2-0.9-2s0.3-1.5,0.9-1.9c0.6-0.4,1.4-0.6,2.5-0.6h1.7l0,0c0-0.8-0.5-1.2-1.4-1.2
		c-0.4,0-0.8,0.1-1.2,0.2s-0.8,0.3-1.1,0.5l-1-1.4c1.1-0.8,2.3-1.2,3.6-1.2l0,0c1,0,1.8,0.2,2.4,0.7c0.6,0.5,0.9,1.3,0.9,2.3v5.2
		h-2.1v-1c-0.6,0.7-1.3,1.1-2.2,1.1l0,0C54.6,65.9,53.8,65.6,53.2,65.1z M54.6,63.1c0,0.3,0.1,0.5,0.3,0.7s0.5,0.2,0.9,0.2
		s0.8-0.1,1.1-0.4s0.5-0.6,0.5-1v-0.4H56C55.1,62.3,54.6,62.6,54.6,63.1z"/>
	<path class="st10" d="M65.7,65.8V54.6H68v4c0.7-0.7,1.4-1,2.3-1s1.6,0.3,2.1,0.9c0.6,0.6,0.9,1.4,0.9,2.4v4.9H71v-4.4
		c0-1.2-0.5-1.9-1.4-1.9c-0.5,0-0.8,0.2-1.2,0.5c-0.3,0.3-0.5,0.8-0.5,1.4v4.4H65.7z"/>
	<path class="st10" d="M75.8,65.1c-0.6-0.5-0.9-1.2-0.9-2s0.3-1.5,0.9-1.9s1.4-0.6,2.5-0.6H80l0,0c0-0.8-0.5-1.2-1.4-1.2
		c-0.4,0-0.8,0.1-1.2,0.2s-0.8,0.3-1.1,0.5l-1-1.4c1.1-0.8,2.3-1.2,3.6-1.2l0,0c1,0,1.8,0.2,2.4,0.7s0.9,1.3,0.9,2.3v5.2h-2.1v-1
		c-0.6,0.7-1.3,1.1-2.2,1.1l0,0C77.1,65.9,76.4,65.6,75.8,65.1z M77.2,63.1c0,0.3,0.1,0.5,0.3,0.7C77.7,64,78,64,78.4,64
		s0.8-0.1,1.1-0.4s0.5-0.6,0.5-1v-0.4h-1.4C77.7,62.3,77.2,62.6,77.2,63.1z"/>
	<path class="st10" d="M85.1,64.7c-0.8-0.8-1.3-1.8-1.3-3s0.4-2.3,1.3-3s1.9-1.2,3-1.2c0.6,0,1.2,0.1,1.8,0.4
		c0.6,0.2,1.1,0.6,1.6,1.1l-1.2,1.5c-0.3-0.3-0.6-0.6-1-0.7c-0.4-0.2-0.8-0.3-1.1-0.3c-0.6,0-1.1,0.2-1.5,0.6
		c-0.4,0.4-0.6,0.9-0.6,1.6s0.2,1.2,0.6,1.6c0.4,0.4,0.9,0.6,1.5,0.6c0.8,0,1.4-0.4,2-1.1l1.3,1.5c-1,1.1-2.2,1.6-3.4,1.6
		S86,65.5,85.1,64.7z"/>
	<path class="st10" d="M93.8,64.7c-0.8-0.7-1.2-1.7-1.2-3s0.4-2.3,1.2-3c0.8-0.8,1.8-1.1,2.9-1.1s2.1,0.3,2.8,1
		c0.8,0.7,1.2,1.6,1.2,2.8v1.2h-5.9c0.1,0.4,0.3,0.8,0.7,1.1c0.4,0.3,0.8,0.4,1.3,0.4c0.8,0,1.4-0.3,2-0.8l1.3,1.4
		c-0.9,0.9-2,1.3-3.2,1.3S94.7,65.5,93.8,64.7z M94.9,60.9h3.6c-0.1-0.5-0.2-0.9-0.5-1.1c-0.3-0.3-0.7-0.4-1.1-0.4s-0.9,0.1-1.2,0.4
		C95.2,60.1,95,60.4,94.9,60.9z"/>
	<path class="st10" d="M102.4,65.8v-8.1h2.3v1.1c0.3-0.3,0.7-0.6,1.1-0.8s0.9-0.3,1.3-0.4v2.1h-0.4c-0.7,0-1.2,0.2-1.5,0.7
		s-0.5,1.1-0.5,1.9v3.5H102.4z"/>
	<path class="st10" d="M112.6,65.8V54.6h2.3v11.2C114.9,65.8,112.6,65.8,112.6,65.8z"/>
	<path class="st10" d="M117.4,65.1c-0.6-0.5-0.9-1.2-0.9-2s0.3-1.5,0.9-1.9s1.4-0.6,2.5-0.6h1.7l0,0c0-0.8-0.5-1.2-1.4-1.2
		c-0.4,0-0.8,0.1-1.2,0.2s-0.8,0.3-1.1,0.5l-1-1.4c1.1-0.8,2.3-1.2,3.6-1.2l0,0c1,0,1.8,0.2,2.4,0.7s0.9,1.3,0.9,2.3v5.2h-2.1v-1
		c-0.6,0.7-1.3,1.1-2.2,1.1l0,0C118.7,65.9,118,65.6,117.4,65.1z M118.8,63.1c0,0.3,0.1,0.5,0.3,0.7c0.2,0.2,0.5,0.2,0.9,0.2
		s0.8-0.1,1.1-0.4s0.5-0.6,0.5-1v-0.4h-1.4C119.3,62.3,118.8,62.6,118.8,63.1z"/>
	<path class="st10" d="M129.9,65.8v-8.1h2.3v1.1c0.3-0.3,0.7-0.6,1.1-0.8c0.4-0.2,0.9-0.3,1.3-0.4v2.1h-0.4c-0.7,0-1.2,0.2-1.5,0.7
		s-0.5,1.1-0.5,1.9v3.5H129.9z"/>
	<path class="st10" d="M136,62.6v-4.9h2.3v4.4c0,1.2,0.5,1.9,1.4,1.9c0.5,0,0.8-0.2,1.2-0.5c0.3-0.3,0.5-0.8,0.5-1.4v-4.4h2.3v8.1
		h-2.3v-1.1c-0.6,0.8-1.3,1.2-2.2,1.2l0,0c-0.9,0-1.6-0.3-2.2-0.8S136,63.7,136,62.6z"/>
	<path class="st10" d="M145.2,59.3v-1.6h1v-2.4h2.3v2.4h2v1.6h-2v3.6c0,0.3,0.1,0.6,0.2,0.7c0.2,0.2,0.4,0.3,0.6,0.3
		c0.4,0,0.8-0.2,1.1-0.6l0.8,1.6c-0.7,0.6-1.4,1-2.2,1s-1.4-0.3-2-0.8c-0.5-0.5-0.8-1.2-0.8-2.1v-3.7H145.2z"/>
	<path class="st10" d="M152.8,65.1c-0.6-0.5-0.9-1.2-0.9-2s0.3-1.5,0.9-1.9c0.6-0.4,1.4-0.6,2.5-0.6h1.7l0,0c0-0.8-0.5-1.2-1.4-1.2
		c-0.4,0-0.8,0.1-1.2,0.2s-0.8,0.3-1.1,0.5l-1-1.4c1.1-0.8,2.3-1.2,3.6-1.2l0,0c1,0,1.8,0.2,2.4,0.7c0.6,0.5,0.9,1.3,0.9,2.3v5.2
		h-2.1v-1c-0.6,0.7-1.3,1.1-2.2,1.1l0,0C154.1,65.9,153.4,65.6,152.8,65.1z M154.2,63.1c0,0.3,0.1,0.5,0.3,0.7s0.5,0.2,0.9,0.2
		s0.8-0.1,1.1-0.4s0.5-0.6,0.5-1v-0.4h-1.4C154.7,62.3,154.2,62.6,154.2,63.1z"/>
</g>
<polyline class="st15" points="131.2,256.8 131.3,204.1 324,204.1 324,52.7 "/>
</svg>
