<?xml version="1.0" encoding="UTF-8" standalone="no"?>
<!-- Generator: Adobe Illustrator 24.1.0, SVG Export Plug-In . SVG Version: 6.00 Build 0)  -->

<svg
   xmlns:dc="http://purl.org/dc/elements/1.1/"
   xmlns:cc="http://creativecommons.org/ns#"
   xmlns:rdf="http://www.w3.org/1999/02/22-rdf-syntax-ns#"
   xmlns:svg="http://www.w3.org/2000/svg"
   xmlns="http://www.w3.org/2000/svg"
   xmlns:xlink="http://www.w3.org/1999/xlink"
   xmlns:sodipodi="http://sodipodi.sourceforge.net/DTD/sodipodi-0.dtd"
   xmlns:inkscape="http://www.inkscape.org/namespaces/inkscape"
   version="1.1"
   id="Capa_1"
   x="0px"
   y="0px"
   viewBox="0 0 400.9 300.00001"
   xml:space="preserve"
   sodipodi:docname="ancho.svg"
   width="400.89999"
   height="300"
   inkscape:version="0.92.4 (fd57863, 2020-04-02)"><metadata
   id="metadata192"><rdf:RDF><cc:Work
       rdf:about=""><dc:format>image/svg+xml</dc:format><dc:type
         rdf:resource="http://purl.org/dc/dcmitype/StillImage" /><dc:title></dc:title></cc:Work></rdf:RDF></metadata><defs
   id="defs190" /><sodipodi:namedview
   pagecolor="#ffffff"
   bordercolor="#666666"
   borderopacity="1"
   objecttolerance="10"
   gridtolerance="10"
   guidetolerance="10"
   inkscape:pageopacity="0"
   inkscape:pageshadow="2"
   inkscape:window-width="1920"
   inkscape:window-height="1018"
   id="namedview188"
   showgrid="false"
   inkscape:zoom="0.92042905"
   inkscape:cx="200.45"
   inkscape:cy="87.699997"
   inkscape:window-x="0"
   inkscape:window-y="34"
   inkscape:window-maximized="1"
   inkscape:current-layer="Capa_1" />
<style
   type="text/css"
   id="style2">
	.st0{clip-path:url(#SVGID_2_);}
	.st1{fill:#7F348B;}
	.st2{fill:#CD4E71;}
	.st3{fill:#E87257;}
	.st4{fill:#D7718D;}
	.st5{enable-background:new    ;}
	.st6{fill:#FFFFFF;}
	.st7{opacity:0.75;enable-background:new    ;}
	.st8{fill:none;stroke:#F6F6F6;stroke-width:0.75;stroke-miterlimit:10;}
	.st9{fill:#FBFBFB;stroke:#000000;stroke-miterlimit:10;}
	.st10{fill:#FBFBFB;}
	.st11{fill:#EC3D28;}
	.st12{fill:#F6F6F6;}
</style>
<g
   id="g26"
   transform="translate(0,74.60001)">
	<g
   id="g24">
		<g
   id="g22">
			<g
   id="g20">
				<defs
   id="defs5">
					<path
   id="SVGID_1_"
   d="m 127.2,0 c 21.7,6.2 23.1,25.7 23.1,25.7 V 137.9 H 127.7 V 41.7 H 0 V 0 Z"
   inkscape:connector-curvature="0" />
				</defs>
				<clipPath
   id="SVGID_2_">
					<use
   xlink:href="#SVGID_1_"
   style="overflow:visible"
   id="use7"
   x="0"
   y="0"
   width="100%"
   height="100%" />
				</clipPath>
				<g
   class="st0"
   clip-path="url(#SVGID_2_)"
   id="g18">
					<rect
   y="0"
   class="st1"
   width="84.699997"
   height="41.700001"
   id="rect10"
   x="0"
   style="fill:#7f348b" />
					<rect
   x="84.699997"
   y="0"
   class="st2"
   width="65.599998"
   height="41.700001"
   id="rect12"
   style="fill:#cd4e71" />
					<rect
   x="127.7"
   y="-18.6"
   class="st3"
   width="23.1"
   height="156.10001"
   id="rect14"
   style="fill:#e87257" />
					<polyline
   class="st4"
   points="127.6,41.7 151.9,41.7 151.9,0 127.1,0      "
   id="polyline16"
   style="fill:#d7718d" />
				</g>
			</g>
		</g>
	</g>
</g>
<g
   class="st5"
   id="g52"
   style="enable-background:new"
   transform="translate(0,74.60001)">
	<path
   class="st6"
   d="m 260.9,18.9 4.5,-10.5 h 2.3 l 4.5,10.5 h -2.5 l -1,-2.3 h -4.4 l -1,2.3 z m 4.4,-4.4 h 2.6 l -1.3,-3.1 z"
   id="path28"
   inkscape:connector-curvature="0"
   style="fill:#ffffff" />
	<path
   class="st6"
   d="m 273.3,18.9 v -8.1 h 2.3 v 1 c 0.7,-0.7 1.5,-1.1 2.3,-1.1 0.9,0 1.6,0.3 2.2,0.9 0.6,0.6 0.9,1.4 0.9,2.4 v 4.9 h -2.3 v -4.5 c 0,-1.2 -0.5,-1.8 -1.4,-1.8 -0.5,0 -0.8,0.2 -1.2,0.5 -0.4,0.3 -0.5,0.8 -0.5,1.4 V 19 h -2.3 z"
   id="path30"
   inkscape:connector-curvature="0"
   style="fill:#ffffff" />
	<path
   class="st6"
   d="m 283.7,17.8 c -0.8,-0.8 -1.3,-1.8 -1.3,-3 0,-1.2 0.4,-2.3 1.3,-3 0.8,-0.8 1.9,-1.2 3,-1.2 0.6,0 1.2,0.1 1.8,0.4 0.6,0.2 1.1,0.6 1.6,1.1 l -1.2,1.5 c -0.3,-0.3 -0.6,-0.6 -1,-0.7 -0.4,-0.2 -0.8,-0.3 -1.1,-0.3 -0.6,0 -1.1,0.2 -1.5,0.6 -0.4,0.4 -0.6,0.9 -0.6,1.6 0,0.7 0.2,1.2 0.6,1.6 0.4,0.4 0.9,0.6 1.5,0.6 0.8,0 1.4,-0.4 2,-1.1 l 1.3,1.5 c -1,1.1 -2.2,1.6 -3.4,1.6 -1.1,0 -2.2,-0.4 -3,-1.2 z"
   id="path32"
   inkscape:connector-curvature="0"
   style="fill:#ffffff" />
	<path
   class="st6"
   d="M 291.7,18.9 V 7.7 h 2.3 v 4 c 0.7,-0.7 1.4,-1 2.3,-1 0.8,0 1.6,0.3 2.1,0.9 0.6,0.6 0.9,1.4 0.9,2.4 v 4.9 H 297 v -4.5 c 0,-1.2 -0.5,-1.9 -1.4,-1.9 -0.5,0 -0.8,0.2 -1.2,0.5 -0.4,0.3 -0.5,0.8 -0.5,1.4 v 4.4 z"
   id="path34"
   inkscape:connector-curvature="0"
   style="fill:#ffffff" />
	<path
   class="st6"
   d="m 302.1,17.8 c -0.8,-0.8 -1.2,-1.8 -1.2,-3 0,-1.2 0.4,-2.2 1.2,-3 0.8,-0.8 1.8,-1.2 3.1,-1.2 1.3,0 2.3,0.4 3.1,1.2 0.8,0.8 1.2,1.8 1.2,3 0,1.2 -0.4,2.2 -1.2,3 -0.8,0.8 -1.8,1.2 -3.1,1.2 -1.3,0 -2.3,-0.4 -3.1,-1.2 z m 1.6,-4.6 c -0.4,0.4 -0.6,1 -0.6,1.6 0,0.7 0.2,1.2 0.6,1.6 0.4,0.4 0.9,0.6 1.4,0.6 0.5,0 1.1,-0.2 1.4,-0.6 0.4,-0.4 0.6,-1 0.6,-1.6 0,-0.7 -0.2,-1.2 -0.6,-1.6 -0.4,-0.4 -0.9,-0.6 -1.4,-0.6 -0.5,0 -1,0.2 -1.4,0.6 z"
   id="path36"
   inkscape:connector-curvature="0"
   style="fill:#ffffff" />
	<path
   class="st6"
   d="m 315.7,17.8 c -0.8,-0.8 -1.1,-1.8 -1.1,-3 0,-1.2 0.4,-2.2 1.1,-3 0.7,-0.8 1.6,-1.2 2.6,-1.2 1,0 1.8,0.3 2.4,1 v -4 h 2.3 v 11.2 h -2.3 v -1.1 c -0.6,0.8 -1.4,1.2 -2.4,1.2 v 0 c -0.9,0.1 -1.8,-0.3 -2.6,-1.1 z m 1.8,-4.6 c -0.4,0.4 -0.6,1 -0.6,1.6 0,0.7 0.2,1.2 0.6,1.6 0.4,0.4 0.9,0.6 1.4,0.6 0.5,0 1,-0.2 1.3,-0.6 0.4,-0.4 0.5,-1 0.5,-1.6 0,-0.7 -0.2,-1.2 -0.5,-1.6 -0.4,-0.4 -0.8,-0.7 -1.3,-0.7 -0.5,0 -1.1,0.2 -1.4,0.7 z"
   id="path38"
   inkscape:connector-curvature="0"
   style="fill:#ffffff" />
	<path
   class="st6"
   d="m 325.9,17.8 c -0.8,-0.8 -1.2,-1.8 -1.2,-3.1 0,-1.3 0.4,-2.3 1.2,-3 0.8,-0.8 1.8,-1.1 2.9,-1.1 1.1,0 2.1,0.3 2.8,1 0.8,0.7 1.2,1.6 1.2,2.8 v 1.2 h -5.9 c 0.1,0.4 0.3,0.8 0.7,1.1 0.4,0.3 0.8,0.4 1.3,0.4 0.8,0 1.4,-0.3 2,-0.8 l 1.3,1.4 c -0.9,0.9 -2,1.3 -3.2,1.3 -1.3,0 -2.3,-0.4 -3.1,-1.2 z m 1,-3.8 h 3.6 c -0.1,-0.5 -0.2,-0.9 -0.5,-1.1 -0.3,-0.3 -0.7,-0.4 -1.1,-0.4 -0.4,0 -0.9,0.1 -1.2,0.4 -0.5,0.3 -0.7,0.6 -0.8,1.1 z"
   id="path40"
   inkscape:connector-curvature="0"
   style="fill:#ffffff" />
	<path
   class="st6"
   d="m 338.8,18.2 c -0.6,-0.5 -0.9,-1.2 -0.9,-2 0,-0.8 0.3,-1.5 0.9,-1.9 0.6,-0.4 1.4,-0.6 2.5,-0.6 h 1.7 v 0 c 0,-0.8 -0.5,-1.2 -1.4,-1.2 -0.4,0 -0.8,0.1 -1.2,0.2 -0.4,0.1 -0.8,0.3 -1.1,0.5 l -1,-1.4 c 1.1,-0.8 2.3,-1.2 3.6,-1.2 v 0 c 1,0 1.8,0.2 2.4,0.7 0.6,0.5 0.9,1.3 0.9,2.3 v 5.2 h -2.1 v -1 c -0.6,0.7 -1.3,1.1 -2.2,1.1 v 0 c -0.8,0.1 -1.5,-0.2 -2.1,-0.7 z m 1.4,-2 c 0,0.3 0.1,0.5 0.3,0.7 0.2,0.2 0.5,0.2 0.9,0.2 0.4,0 0.8,-0.1 1.1,-0.4 0.3,-0.3 0.5,-0.6 0.5,-1 v -0.3 h -1.4 c -0.9,0 -1.4,0.3 -1.4,0.8 z"
   id="path42"
   inkscape:connector-curvature="0"
   style="fill:#ffffff" />
	<path
   class="st6"
   d="m 348.1,17.8 c -0.8,-0.8 -1.3,-1.8 -1.3,-3 0,-1.2 0.4,-2.3 1.3,-3 0.8,-0.8 1.9,-1.2 3,-1.2 0.6,0 1.2,0.1 1.8,0.4 0.6,0.2 1.1,0.6 1.6,1.1 l -1.2,1.5 c -0.3,-0.3 -0.6,-0.6 -1,-0.7 -0.4,-0.2 -0.8,-0.3 -1.1,-0.3 -0.6,0 -1.1,0.2 -1.5,0.6 -0.4,0.4 -0.6,0.9 -0.6,1.6 0,0.7 0.2,1.2 0.6,1.6 0.4,0.4 0.9,0.6 1.5,0.6 0.8,0 1.4,-0.4 2,-1.1 l 1.3,1.5 c -1,1.1 -2.2,1.6 -3.4,1.6 -1.1,0 -2.1,-0.4 -3,-1.2 z"
   id="path44"
   inkscape:connector-curvature="0"
   style="fill:#ffffff" />
	<path
   class="st6"
   d="m 356.9,17.8 c -0.8,-0.8 -1.2,-1.8 -1.2,-3.1 0,-1.3 0.4,-2.3 1.2,-3 0.8,-0.8 1.8,-1.1 2.9,-1.1 1.1,0 2.1,0.3 2.8,1 0.8,0.7 1.2,1.6 1.2,2.8 v 1.2 h -5.9 c 0.1,0.4 0.3,0.8 0.7,1.1 0.4,0.3 0.8,0.4 1.3,0.4 0.8,0 1.4,-0.3 2,-0.8 l 1.3,1.4 c -0.9,0.9 -2,1.3 -3.2,1.3 -1.3,0 -2.3,-0.4 -3.1,-1.2 z M 358,14 h 3.6 c -0.1,-0.5 -0.2,-0.9 -0.5,-1.1 -0.3,-0.3 -0.7,-0.4 -1.1,-0.4 -0.4,0 -0.9,0.1 -1.2,0.4 -0.6,0.3 -0.8,0.6 -0.8,1.1 z"
   id="path46"
   inkscape:connector-curvature="0"
   style="fill:#ffffff" />
	<path
   class="st6"
   d="m 365.4,18.9 v -8.1 h 2.3 v 1.1 c 0.3,-0.3 0.7,-0.6 1.1,-0.8 0.4,-0.2 0.9,-0.3 1.3,-0.4 v 2.1 h -0.4 c -0.7,0 -1.2,0.2 -1.5,0.7 -0.3,0.5 -0.5,1.1 -0.5,1.9 v 3.5 c 0,0 -2.3,0 -2.3,0 z"
   id="path48"
   inkscape:connector-curvature="0"
   style="fill:#ffffff" />
	<path
   class="st6"
   d="m 372,18.2 c -0.6,-0.5 -0.9,-1.2 -0.9,-2 0,-0.8 0.3,-1.5 0.9,-1.9 0.6,-0.4 1.4,-0.6 2.5,-0.6 h 1.7 v 0 c 0,-0.8 -0.5,-1.2 -1.4,-1.2 -0.4,0 -0.8,0.1 -1.2,0.2 -0.4,0.1 -0.8,0.3 -1.1,0.5 l -1,-1.4 c 1.1,-0.8 2.3,-1.2 3.6,-1.2 v 0 c 1,0 1.8,0.2 2.4,0.7 0.6,0.5 0.9,1.3 0.9,2.3 v 5.2 h -2.1 v -1 c -0.6,0.7 -1.3,1.1 -2.2,1.1 v 0 c -0.8,0.1 -1.5,-0.2 -2.1,-0.7 z m 1.4,-2 c 0,0.3 0.1,0.5 0.3,0.7 0.2,0.2 0.5,0.2 0.9,0.2 0.4,0 0.8,-0.1 1.1,-0.4 0.3,-0.3 0.5,-0.6 0.5,-1 v -0.3 h -1.4 c -1,0 -1.4,0.3 -1.4,0.8 z"
   id="path50"
   inkscape:connector-curvature="0"
   style="fill:#ffffff" />
</g>
<g
   class="st5"
   id="g116"
   style="enable-background:new"
   transform="translate(0,74.60001)">
	<path
   class="st6"
   d="m 263.1,155.7 c -1,-1 -1.6,-2.3 -1.6,-3.9 0,-1.6 0.5,-2.9 1.6,-3.9 1.1,-1 2.4,-1.5 3.9,-1.5 1.7,0 3.2,0.6 4.3,1.8 l -1.5,1.7 c -0.7,-1 -1.7,-1.4 -2.8,-1.4 -0.9,0 -1.6,0.3 -2.3,0.9 -0.6,0.6 -0.9,1.4 -0.9,2.4 0,1 0.3,1.8 0.9,2.5 0.6,0.7 1.3,0.9 2.2,0.9 1.2,0 2.1,-0.5 2.8,-1.4 l 1.5,1.6 c -1.2,1.3 -2.6,1.9 -4.2,1.9 -1.6,0 -2.8,-0.6 -3.9,-1.6 z"
   id="path54"
   inkscape:connector-curvature="0"
   style="fill:#ffffff" />
	<path
   class="st6"
   d="M 272.8,153.9 V 149 h 2.3 v 4.4 c 0,1.2 0.5,1.9 1.4,1.9 0.5,0 0.8,-0.2 1.2,-0.5 0.4,-0.3 0.5,-0.8 0.5,-1.4 V 149 h 2.3 v 8.1 h -2.3 V 156 c -0.6,0.8 -1.3,1.2 -2.2,1.2 v 0 c -0.9,0 -1.6,-0.3 -2.2,-0.8 -0.6,-0.5 -1,-1.4 -1,-2.5 z"
   id="path56"
   inkscape:connector-curvature="0"
   style="fill:#ffffff" />
	<path
   class="st6"
   d="M 282.5,157.1 V 149 h 2.3 v 0.9 c 0.6,-0.7 1.3,-1 2.1,-1 0.5,0 1,0.2 1.4,0.4 0.4,0.3 0.7,0.7 0.9,1.1 0.3,-0.5 0.7,-0.9 1.3,-1.1 0.5,-0.3 1.1,-0.4 1.6,-0.4 1,0 1.7,0.3 2.3,0.9 0.6,0.6 0.9,1.4 0.9,2.5 v 4.9 H 293 v -4.4 c 0,-1.2 -0.5,-1.9 -1.4,-1.9 -0.5,0 -0.8,0.2 -1.2,0.5 -0.4,0.3 -0.5,0.8 -0.5,1.4 v 4.4 h -2.3 v -4.4 c 0,-0.6 -0.1,-1.1 -0.3,-1.4 -0.2,-0.3 -0.5,-0.5 -0.9,-0.5 -0.4,0 -0.8,0.2 -1.2,0.5 -0.3,0.3 -0.5,0.8 -0.5,1.4 v 4.4 z"
   id="path58"
   inkscape:connector-curvature="0"
   style="fill:#ffffff" />
	<path
   class="st6"
   d="m 297.4,160 v -11 h 2.3 v 0.9 c 0.7,-0.7 1.5,-1 2.5,-1 1,0 1.8,0.4 2.5,1.2 0.7,0.8 1.1,1.8 1.1,3 0,1.2 -0.4,2.2 -1.1,3 -0.7,0.8 -1.6,1.2 -2.6,1.2 -1,0 -1.8,-0.4 -2.4,-1.2 v 4 z m 2.7,-8.6 c -0.4,0.4 -0.5,1 -0.5,1.6 0,0.7 0.2,1.2 0.5,1.6 0.4,0.4 0.8,0.6 1.3,0.6 0.5,0 1,-0.2 1.4,-0.6 0.4,-0.4 0.6,-1 0.6,-1.6 0,-0.7 -0.2,-1.2 -0.6,-1.6 -0.4,-0.4 -0.8,-0.7 -1.4,-0.7 -0.6,0 -0.9,0.3 -1.3,0.7 z"
   id="path60"
   inkscape:connector-curvature="0"
   style="fill:#ffffff" />
	<path
   class="st6"
   d="m 307.4,157.1 v -11.2 h 2.3 v 11.2 z"
   id="path62"
   inkscape:connector-curvature="0"
   style="fill:#ffffff" />
	<path
   class="st6"
   d="m 312,148 c -0.3,-0.3 -0.4,-0.6 -0.4,-0.9 0,-0.3 0.1,-0.7 0.4,-0.9 0.3,-0.3 0.6,-0.4 0.9,-0.4 0.3,0 0.7,0.1 0.9,0.4 0.3,0.3 0.4,0.6 0.4,0.9 0,0.3 -0.1,0.7 -0.4,0.9 -0.3,0.3 -0.6,0.4 -0.9,0.4 -0.3,0 -0.6,-0.2 -0.9,-0.4 z m -0.2,9.1 V 149 h 2.3 v 8.1 z"
   id="path64"
   inkscape:connector-curvature="0"
   style="fill:#ffffff" />
	<path
   class="st6"
   d="M 316.2,157.1 V 149 h 2.3 v 0.9 c 0.6,-0.7 1.3,-1 2.1,-1 0.5,0 1,0.2 1.4,0.4 0.4,0.3 0.7,0.7 0.9,1.1 0.3,-0.5 0.7,-0.9 1.3,-1.1 0.5,-0.3 1.1,-0.4 1.6,-0.4 1,0 1.7,0.3 2.3,0.9 0.6,0.6 0.9,1.4 0.9,2.5 v 4.9 h -2.3 v -4.4 c 0,-1.2 -0.5,-1.9 -1.4,-1.9 -0.5,0 -0.8,0.2 -1.2,0.5 -0.3,0.3 -0.5,0.8 -0.5,1.4 v 4.4 h -2.3 v -4.4 c 0,-0.6 -0.1,-1.1 -0.3,-1.4 -0.2,-0.3 -0.5,-0.5 -1,-0.5 -0.4,0 -0.8,0.2 -1.2,0.5 -0.4,0.3 -0.5,0.8 -0.5,1.4 v 4.4 z"
   id="path66"
   inkscape:connector-curvature="0"
   style="fill:#ffffff" />
	<path
   class="st6"
   d="m 331.2,148 c -0.3,-0.3 -0.4,-0.6 -0.4,-0.9 0,-0.3 0.1,-0.7 0.4,-0.9 0.3,-0.3 0.6,-0.4 0.9,-0.4 0.3,0 0.7,0.1 0.9,0.4 0.3,0.3 0.4,0.6 0.4,0.9 0,0.3 -0.1,0.7 -0.4,0.9 -0.3,0.3 -0.6,0.4 -0.9,0.4 -0.3,0 -0.6,-0.2 -0.9,-0.4 z m -0.2,9.1 V 149 h 2.3 v 8.1 z"
   id="path68"
   inkscape:connector-curvature="0"
   style="fill:#ffffff" />
	<path
   class="st6"
   d="m 336.2,156.1 c -0.8,-0.8 -1.2,-1.8 -1.2,-3.1 0,-1.3 0.4,-2.3 1.2,-3 0.8,-0.8 1.8,-1.1 2.9,-1.1 1.1,0 2.1,0.3 2.8,1 0.8,0.7 1.2,1.6 1.2,2.8 v 1.2 h -5.9 c 0.1,0.4 0.3,0.8 0.7,1.1 0.4,0.3 0.8,0.4 1.3,0.4 0.8,0 1.4,-0.3 2,-0.8 l 1.3,1.4 c -0.9,0.9 -2,1.3 -3.2,1.3 -1.3,-0.1 -2.3,-0.4 -3.1,-1.2 z m 1.1,-3.9 h 3.6 c -0.1,-0.5 -0.2,-0.9 -0.5,-1.1 -0.3,-0.3 -0.7,-0.4 -1.1,-0.4 -0.4,0 -0.9,0.1 -1.2,0.4 -0.6,0.3 -0.8,0.7 -0.8,1.1 z"
   id="path70"
   inkscape:connector-curvature="0"
   style="fill:#ffffff" />
	<path
   class="st6"
   d="M 344.7,157.1 V 149 h 2.3 v 1 c 0.7,-0.7 1.5,-1.1 2.3,-1.1 0.9,0 1.6,0.3 2.1,0.9 0.6,0.6 0.9,1.4 0.9,2.4 v 4.9 H 350 v -4.5 c 0,-1.2 -0.5,-1.8 -1.4,-1.8 -0.5,0 -0.8,0.2 -1.2,0.5 -0.3,0.3 -0.5,0.8 -0.5,1.4 v 4.5 z"
   id="path72"
   inkscape:connector-curvature="0"
   style="fill:#ffffff" />
	<path
   class="st6"
   d="M 353.7,150.6 V 149 h 1 v -2.4 h 2.3 v 2.4 h 2 v 1.6 h -2 v 3.6 c 0,0.3 0.1,0.6 0.2,0.7 0.2,0.2 0.4,0.3 0.6,0.3 0.4,0 0.8,-0.2 1.1,-0.6 l 0.8,1.6 c -0.7,0.6 -1.4,1 -2.2,1 -0.8,0 -1.4,-0.3 -2,-0.8 -0.5,-0.5 -0.8,-1.2 -0.8,-2.1 v -3.7 z"
   id="path74"
   inkscape:connector-curvature="0"
   style="fill:#ffffff" />
	<path
   class="st6"
   d="m 361.5,156 c -0.8,-0.8 -1.2,-1.8 -1.2,-3 0,-1.2 0.4,-2.2 1.2,-3 0.8,-0.8 1.8,-1.2 3.1,-1.2 1.3,0 2.3,0.4 3.1,1.2 0.8,0.8 1.2,1.8 1.2,3 0,1.2 -0.4,2.2 -1.2,3 -0.8,0.8 -1.8,1.2 -3.1,1.2 -1.3,0 -2.2,-0.4 -3.1,-1.2 z m 1.7,-4.6 c -0.4,0.4 -0.6,1 -0.6,1.6 0,0.7 0.2,1.2 0.6,1.6 0.4,0.4 0.9,0.6 1.4,0.6 0.5,0 1.1,-0.2 1.4,-0.6 0.4,-0.4 0.6,-1 0.6,-1.6 0,-0.7 -0.2,-1.2 -0.6,-1.6 -0.4,-0.4 -0.9,-0.6 -1.4,-0.6 -0.5,0 -1.1,0.2 -1.4,0.6 z"
   id="path76"
   inkscape:connector-curvature="0"
   style="fill:#ffffff" />
	<path
   class="st6"
   d="m 375.2,156 c -0.8,-0.8 -1.1,-1.8 -1.1,-3 0,-1.2 0.4,-2.2 1.1,-3 0.7,-0.8 1.6,-1.2 2.6,-1.2 1,0 1.8,0.3 2.4,1 v -4 h 2.3 V 157 h -2.3 v -1.1 c -0.6,0.8 -1.4,1.2 -2.4,1.2 v 0 c -1,0.1 -1.8,-0.3 -2.6,-1.1 z m 1.7,-4.6 c -0.4,0.4 -0.6,1 -0.6,1.6 0,0.7 0.2,1.2 0.6,1.6 0.4,0.4 0.9,0.6 1.4,0.6 0.5,0 1,-0.2 1.3,-0.6 0.4,-0.4 0.5,-1 0.5,-1.6 0,-0.7 -0.2,-1.2 -0.5,-1.6 -0.4,-0.4 -0.8,-0.7 -1.3,-0.7 -0.5,0 -1,0.3 -1.4,0.7 z"
   id="path78"
   inkscape:connector-curvature="0"
   style="fill:#ffffff" />
	<path
   class="st6"
   d="m 385.3,156.1 c -0.8,-0.8 -1.2,-1.8 -1.2,-3.1 0,-1.3 0.4,-2.3 1.2,-3 0.8,-0.8 1.8,-1.1 2.9,-1.1 1.1,0 2.1,0.3 2.8,1 0.8,0.7 1.2,1.6 1.2,2.8 v 1.2 h -5.9 c 0.1,0.4 0.3,0.8 0.7,1.1 0.4,0.3 0.8,0.4 1.3,0.4 0.8,0 1.4,-0.3 2,-0.8 l 1.3,1.4 c -0.9,0.9 -2,1.3 -3.2,1.3 -1.2,-0.1 -2.2,-0.4 -3.1,-1.2 z m 1.1,-3.9 h 3.6 c -0.1,-0.5 -0.2,-0.9 -0.5,-1.1 -0.3,-0.3 -0.7,-0.4 -1.1,-0.4 -0.4,0 -0.9,0.1 -1.2,0.4 -0.5,0.3 -0.7,0.7 -0.8,1.1 z"
   id="path80"
   inkscape:connector-curvature="0"
   style="fill:#ffffff" />
	<path
   class="st6"
   d="m 262.7,174.1 c -0.8,-0.8 -1.1,-1.8 -1.1,-3 0,-1.2 0.4,-2.2 1.1,-3 0.7,-0.8 1.6,-1.2 2.6,-1.2 1,0 1.8,0.3 2.4,1 v -4 h 2.3 v 11.2 h -2.3 V 174 c -0.6,0.8 -1.4,1.2 -2.4,1.2 v 0 c -1,0.1 -1.9,-0.3 -2.6,-1.1 z m 1.7,-4.6 c -0.4,0.4 -0.6,1 -0.6,1.6 0,0.7 0.2,1.2 0.6,1.6 0.4,0.4 0.9,0.6 1.4,0.6 0.5,0 1,-0.2 1.3,-0.6 0.4,-0.4 0.5,-1 0.5,-1.6 0,-0.7 -0.2,-1.2 -0.5,-1.6 -0.4,-0.4 -0.8,-0.7 -1.4,-0.7 -0.5,0.1 -0.9,0.3 -1.3,0.7 z"
   id="path82"
   inkscape:connector-curvature="0"
   style="fill:#ffffff" />
	<path
   class="st6"
   d="m 272.2,166.1 c -0.3,-0.3 -0.4,-0.6 -0.4,-0.9 0,-0.3 0.1,-0.7 0.4,-0.9 0.3,-0.3 0.6,-0.4 0.9,-0.4 0.3,0 0.7,0.1 0.9,0.4 0.3,0.3 0.4,0.6 0.4,0.9 0,0.3 -0.1,0.7 -0.4,0.9 -0.3,0.3 -0.6,0.4 -0.9,0.4 -0.3,0 -0.6,-0.2 -0.9,-0.4 z m -0.2,9.1 v -8.1 h 2.3 v 8.1 z"
   id="path84"
   inkscape:connector-curvature="0"
   style="fill:#ffffff" />
	<path
   class="st6"
   d="m 275.8,174.1 1,-1.4 c 0.8,0.6 1.7,1 2.7,1 0.3,0 0.5,-0.1 0.7,-0.2 0.2,-0.1 0.3,-0.3 0.3,-0.5 0,-0.2 -0.1,-0.4 -0.4,-0.5 -0.2,-0.2 -0.6,-0.3 -1,-0.5 -0.4,-0.1 -0.8,-0.3 -1,-0.4 -0.2,-0.1 -0.5,-0.2 -0.8,-0.4 -0.6,-0.4 -0.9,-0.9 -0.9,-1.7 0,-0.8 0.3,-1.4 0.9,-1.9 0.6,-0.5 1.4,-0.8 2.3,-0.8 0.9,0 1.9,0.3 2.9,1 l -0.8,1.6 c -0.7,-0.5 -1.4,-0.7 -2.1,-0.7 v 0 c -0.7,0 -1,0.2 -1,0.6 0,0.2 0.1,0.4 0.3,0.5 0.2,0.1 0.6,0.3 1.1,0.4 0.5,0.2 0.9,0.3 1.1,0.4 0.2,0.1 0.5,0.2 0.8,0.4 0.6,0.3 0.8,0.9 0.8,1.7 0,0.8 -0.3,1.4 -0.9,1.9 -0.6,0.5 -1.3,0.7 -2.2,0.7 -0.6,0 -1.2,-0.1 -1.9,-0.3 -0.8,-0.2 -1.4,-0.5 -1.9,-0.9 z"
   id="path86"
   inkscape:connector-curvature="0"
   style="fill:#ffffff" />
	<path
   class="st6"
   d="m 283.7,168.7 v -1.6 h 1 v -2.4 h 2.3 v 2.4 h 2 v 1.6 h -2 v 3.6 c 0,0.3 0.1,0.6 0.2,0.7 0.1,0.1 0.4,0.3 0.6,0.3 0.4,0 0.8,-0.2 1.1,-0.6 l 0.8,1.6 c -0.7,0.6 -1.4,1 -2.2,1 -0.8,0 -1.4,-0.3 -2,-0.8 -0.6,-0.5 -0.8,-1.2 -0.8,-2.1 v -3.7 z"
   id="path88"
   inkscape:connector-curvature="0"
   style="fill:#ffffff" />
	<path
   class="st6"
   d="m 291.3,174.6 c -0.6,-0.5 -0.9,-1.2 -0.9,-2 0,-0.8 0.3,-1.5 0.9,-1.9 0.6,-0.4 1.4,-0.6 2.5,-0.6 h 1.7 v 0 c 0,-0.8 -0.5,-1.2 -1.4,-1.2 -0.4,0 -0.8,0.1 -1.2,0.2 -0.4,0.1 -0.8,0.3 -1.1,0.5 l -1,-1.4 c 1.1,-0.8 2.3,-1.2 3.6,-1.2 v 0 c 1,0 1.8,0.2 2.4,0.7 0.6,0.5 0.9,1.3 0.9,2.3 v 5.2 h -2.1 v -1 c -0.6,0.7 -1.3,1.1 -2.2,1.1 v 0 c -0.8,0 -1.6,-0.2 -2.1,-0.7 z m 1.4,-2 c 0,0.3 0.1,0.5 0.3,0.7 0.2,0.2 0.5,0.2 0.9,0.2 0.4,0 0.8,-0.1 1.1,-0.4 0.3,-0.3 0.5,-0.6 0.5,-1 v -0.4 h -1.4 c -1,0 -1.4,0.3 -1.4,0.9 z"
   id="path90"
   inkscape:connector-curvature="0"
   style="fill:#ffffff" />
	<path
   class="st6"
   d="m 299.8,175.2 v -8.1 h 2.3 v 1 c 0.7,-0.7 1.5,-1.1 2.3,-1.1 0.9,0 1.6,0.3 2.1,0.9 0.6,0.6 0.9,1.4 0.9,2.4 v 4.9 h -2.3 v -4.5 c 0,-1.2 -0.5,-1.8 -1.4,-1.8 -0.5,0 -0.8,0.2 -1.2,0.5 -0.3,0.3 -0.5,0.8 -0.5,1.4 v 4.5 z"
   id="path92"
   inkscape:connector-curvature="0"
   style="fill:#ffffff" />
	<path
   class="st6"
   d="m 310.2,174.2 c -0.8,-0.8 -1.3,-1.8 -1.3,-3 0,-1.2 0.4,-2.3 1.3,-3 0.8,-0.8 1.9,-1.2 3,-1.2 0.6,0 1.2,0.1 1.8,0.4 0.6,0.2 1.1,0.6 1.6,1.1 l -1.2,1.5 c -0.3,-0.3 -0.6,-0.6 -1,-0.7 -0.4,-0.2 -0.8,-0.3 -1.1,-0.3 -0.6,0 -1.1,0.2 -1.5,0.6 -0.4,0.4 -0.6,0.9 -0.6,1.6 0,0.7 0.2,1.2 0.6,1.6 0.4,0.4 0.9,0.6 1.5,0.6 0.8,0 1.4,-0.4 2,-1.1 l 1.3,1.5 c -1,1.1 -2.2,1.6 -3.4,1.6 -1.1,-0.1 -2.2,-0.5 -3,-1.2 z"
   id="path94"
   inkscape:connector-curvature="0"
   style="fill:#ffffff" />
	<path
   class="st6"
   d="m 318.4,166.1 c -0.3,-0.3 -0.4,-0.6 -0.4,-0.9 0,-0.3 0.1,-0.7 0.4,-0.9 0.3,-0.3 0.6,-0.4 0.9,-0.4 0.3,0 0.7,0.1 0.9,0.4 0.3,0.3 0.4,0.6 0.4,0.9 0,0.3 -0.1,0.7 -0.4,0.9 -0.3,0.3 -0.6,0.4 -0.9,0.4 -0.3,0 -0.7,-0.2 -0.9,-0.4 z m -0.2,9.1 v -8.1 h 2.3 v 8.1 z"
   id="path96"
   inkscape:connector-curvature="0"
   style="fill:#ffffff" />
	<path
   class="st6"
   d="m 323,174.6 c -0.6,-0.5 -0.9,-1.2 -0.9,-2 0,-0.8 0.3,-1.5 0.9,-1.9 0.6,-0.4 1.4,-0.6 2.5,-0.6 h 1.7 v 0 c 0,-0.8 -0.5,-1.2 -1.4,-1.2 -0.4,0 -0.8,0.1 -1.2,0.2 -0.4,0.1 -0.8,0.3 -1.1,0.5 l -1,-1.4 c 1.1,-0.8 2.3,-1.2 3.6,-1.2 v 0 c 1,0 1.8,0.2 2.4,0.7 0.6,0.5 0.9,1.3 0.9,2.3 v 5.2 h -2.1 v -1 c -0.6,0.7 -1.3,1.1 -2.2,1.1 v 0 c -0.8,0 -1.5,-0.2 -2.1,-0.7 z m 1.4,-2 c 0,0.3 0.1,0.5 0.3,0.7 0.2,0.2 0.5,0.2 0.9,0.2 0.4,0 0.8,-0.1 1.1,-0.4 0.3,-0.3 0.5,-0.6 0.5,-1 v -0.4 h -1.4 c -0.9,0 -1.4,0.3 -1.4,0.9 z"
   id="path98"
   inkscape:connector-curvature="0"
   style="fill:#ffffff" />
	<path
   class="st6"
   d="m 335.5,178.1 v -11 h 2.3 v 0.9 c 0.7,-0.7 1.5,-1 2.5,-1 1,0 1.8,0.4 2.5,1.2 0.7,0.8 1.1,1.8 1.1,3 0,1.2 -0.4,2.2 -1.1,3 -0.7,0.8 -1.6,1.2 -2.6,1.2 -1,0 -1.8,-0.4 -2.4,-1.2 v 4 z m 2.8,-8.6 c -0.4,0.4 -0.5,1 -0.5,1.6 0,0.7 0.2,1.2 0.5,1.6 0.4,0.4 0.8,0.6 1.3,0.6 0.5,0 1,-0.2 1.4,-0.6 0.4,-0.4 0.6,-1 0.6,-1.6 0,-0.7 -0.2,-1.2 -0.6,-1.6 -0.4,-0.4 -0.8,-0.7 -1.4,-0.7 -0.6,0 -0.9,0.3 -1.3,0.7 z"
   id="path100"
   inkscape:connector-curvature="0"
   style="fill:#ffffff" />
	<path
   class="st6"
   d="m 346.3,174.2 c -0.8,-0.8 -1.2,-1.8 -1.2,-3.1 0,-1.3 0.4,-2.3 1.2,-3 0.8,-0.8 1.8,-1.1 2.9,-1.1 1.1,0 2.1,0.3 2.8,1 0.8,0.7 1.2,1.6 1.2,2.8 v 1.2 h -5.9 c 0.1,0.4 0.3,0.8 0.7,1.1 0.4,0.3 0.8,0.4 1.3,0.4 0.8,0 1.4,-0.3 2,-0.8 l 1.3,1.4 c -0.9,0.9 -2,1.3 -3.2,1.3 -1.3,-0.1 -2.3,-0.4 -3.1,-1.2 z m 1.1,-3.9 h 3.6 c -0.1,-0.5 -0.2,-0.9 -0.5,-1.1 -0.3,-0.3 -0.7,-0.4 -1.1,-0.4 -0.4,0 -0.9,0.1 -1.2,0.4 -0.5,0.3 -0.8,0.7 -0.8,1.1 z"
   id="path102"
   inkscape:connector-curvature="0"
   style="fill:#ffffff" />
	<path
   class="st6"
   d="m 355.3,174.6 c -0.6,-0.5 -0.9,-1.2 -0.9,-2 0,-0.8 0.3,-1.5 0.9,-1.9 0.6,-0.4 1.4,-0.6 2.5,-0.6 h 1.7 v 0 c 0,-0.8 -0.5,-1.2 -1.4,-1.2 -0.4,0 -0.8,0.1 -1.2,0.2 -0.4,0.1 -0.8,0.3 -1.1,0.5 l -1,-1.4 c 1.1,-0.8 2.3,-1.2 3.6,-1.2 v 0 c 1,0 1.8,0.2 2.4,0.7 0.6,0.5 0.9,1.3 0.9,2.3 v 5.2 h -2.1 v -1 c -0.6,0.7 -1.3,1.1 -2.2,1.1 v 0 c -0.8,0 -1.5,-0.2 -2.1,-0.7 z m 1.4,-2 c 0,0.3 0.1,0.5 0.3,0.7 0.2,0.2 0.5,0.2 0.9,0.2 0.4,0 0.8,-0.1 1.1,-0.4 0.3,-0.3 0.5,-0.6 0.5,-1 v -0.4 h -1.4 c -1,0 -1.4,0.3 -1.4,0.9 z"
   id="path104"
   inkscape:connector-curvature="0"
   style="fill:#ffffff" />
	<path
   class="st6"
   d="m 363.2,168.7 v -1.6 h 1 v -2.4 h 2.3 v 2.4 h 2 v 1.6 h -2 v 3.6 c 0,0.3 0.1,0.6 0.2,0.7 0.2,0.2 0.4,0.3 0.6,0.3 0.4,0 0.8,-0.2 1.1,-0.6 l 0.8,1.6 c -0.7,0.6 -1.4,1 -2.2,1 -0.8,0 -1.4,-0.3 -2,-0.8 -0.5,-0.5 -0.8,-1.2 -0.8,-2.1 v -3.7 z"
   id="path106"
   inkscape:connector-curvature="0"
   style="fill:#ffffff" />
	<path
   class="st6"
   d="m 371,174.1 c -0.8,-0.8 -1.2,-1.8 -1.2,-3 0,-1.2 0.4,-2.2 1.2,-3 0.8,-0.8 1.8,-1.2 3.1,-1.2 1.3,0 2.3,0.4 3.1,1.2 0.8,0.8 1.2,1.8 1.2,3 0,1.2 -0.4,2.2 -1.2,3 -0.8,0.8 -1.8,1.2 -3.1,1.2 -1.3,0 -2.3,-0.4 -3.1,-1.2 z m 1.6,-4.6 c -0.4,0.4 -0.6,1 -0.6,1.6 0,0.7 0.2,1.2 0.6,1.6 0.4,0.4 0.9,0.6 1.4,0.6 0.5,0 1.1,-0.2 1.4,-0.6 0.4,-0.4 0.6,-1 0.6,-1.6 0,-0.7 -0.2,-1.2 -0.6,-1.6 -0.4,-0.4 -0.9,-0.6 -1.4,-0.6 -0.5,0 -1,0.2 -1.4,0.6 z"
   id="path108"
   inkscape:connector-curvature="0"
   style="fill:#ffffff" />
	<path
   class="st6"
   d="m 380,175.2 v -8.1 h 2.3 v 1 c 0.7,-0.7 1.5,-1.1 2.3,-1.1 0.9,0 1.6,0.3 2.1,0.9 0.6,0.6 0.9,1.4 0.9,2.4 v 4.9 h -2.3 v -4.5 c 0,-1.2 -0.5,-1.8 -1.4,-1.8 -0.5,0 -0.8,0.2 -1.2,0.5 -0.3,0.3 -0.5,0.8 -0.5,1.4 v 4.5 z"
   id="path110"
   inkscape:connector-curvature="0"
   style="fill:#ffffff" />
	<path
   class="st6"
   d="m 390.1,174.6 c -0.6,-0.5 -0.9,-1.2 -0.9,-2 0,-0.8 0.3,-1.5 0.9,-1.9 0.6,-0.4 1.4,-0.6 2.5,-0.6 h 1.7 v 0 c 0,-0.8 -0.5,-1.2 -1.4,-1.2 -0.4,0 -0.8,0.1 -1.2,0.2 -0.4,0.1 -0.8,0.3 -1.1,0.5 l -1,-1.4 c 1.1,-0.8 2.3,-1.2 3.6,-1.2 v 0 c 1,0 1.8,0.2 2.4,0.7 0.6,0.5 0.9,1.3 0.9,2.3 v 5.2 h -2.1 v -1 c -0.6,0.7 -1.3,1.1 -2.2,1.1 v 0 c -0.8,0 -1.5,-0.2 -2.1,-0.7 z m 1.4,-2 c 0,0.3 0.1,0.5 0.3,0.7 0.2,0.2 0.5,0.2 0.9,0.2 0.4,0 0.8,-0.1 1.1,-0.4 0.3,-0.3 0.5,-0.6 0.5,-1 v -0.4 h -1.4 c -0.9,0 -1.4,0.3 -1.4,0.9 z"
   id="path112"
   inkscape:connector-curvature="0"
   style="fill:#ffffff" />
	<path
   class="st6"
   d="M 398.6,175.2 V 164 h 2.3 v 11.2 z"
   id="path114"
   inkscape:connector-curvature="0"
   style="fill:#ffffff" />
</g>
<path
   id="XMLID_5_"
   class="st7"
   d="M 246.8,106.40001 H 116.9 c -4.3,0 -7.8,3.5 -7.8,7.8 v 42.6 c 0,4.3 3.5,7.8 7.8,7.8 h 7.9 c 0.8,0 1.6,0.3 2.2,0.9 l 10.2,10.2 c 1.2,1.2 3.1,1.2 4.3,0 l 10.2,-10.2 c 0.6,-0.6 1.4,-0.9 2.2,-0.9 h 92.8 c 4.3,0 7.8,-3.5 7.8,-7.8 v -42.6 c 0.2,-4.3 -3.4,-7.8 -7.7,-7.8 z"
   inkscape:connector-curvature="0"
   style="opacity:0.75;enable-background:new" />
<line
   class="st8"
   x1="242.10001"
   y1="88.5"
   x2="192.10001"
   y2="88.5"
   id="line119"
   style="fill:none;stroke:#f6f6f6;stroke-width:0.75;stroke-miterlimit:10" />
<line
   class="st8"
   x1="192.10001"
   y1="88.5"
   x2="179.7"
   y2="110.10001"
   id="line121"
   style="fill:none;stroke:#f6f6f6;stroke-width:0.75;stroke-miterlimit:10" />
<g
   id="g127"
   transform="translate(0,74.60001)">
	<line
   class="st8"
   x1="244.39999"
   y1="160.10001"
   x2="218.39999"
   y2="160.10001"
   id="line123"
   style="fill:none;stroke:#f6f6f6;stroke-width:0.75;stroke-miterlimit:10" />
	<line
   class="st8"
   x1="218.39999"
   y1="160.10001"
   x2="176.10001"
   y2="86.800003"
   id="line125"
   style="fill:none;stroke:#f6f6f6;stroke-width:0.75;stroke-miterlimit:10" />
</g>
<path
   class="st9"
   d="m 153.8,214.50001 -11.1,-11.1 c -0.4,-0.3 -1,0 -1,0.5 v 15.2 c 0,0.3 0.3,0.6 0.6,0.6 0.2,0 0.3,-0.1 0.4,-0.2 l 3.1,-2.7 2.5,5.9 c 0,0.1 0.1,0.2 0.2,0.2 0,0 0.1,0 0.2,0 0.1,0 0.1,0 0.2,0 l 2.6,-1.1 c 0.2,-0.1 0.3,-0.3 0.2,-0.5 l -2.4,-5.7 h 4.1 c 0.3,0 0.6,-0.3 0.6,-0.6 -0.1,-0.1 -0.1,-0.3 -0.2,-0.5 z"
   id="path129"
   inkscape:connector-curvature="0"
   style="fill:#fbfbfb;stroke:#000000;stroke-miterlimit:10" />
<g
   id="g143"
   transform="translate(0,74.60001)">
	<g
   id="g133">
		<path
   id="path18_1_"
   class="st10"
   d="m 132.8,80.5 c 0.4,0 0.8,-0.3 0.8,-0.8 0,-0.5 -0.3,-0.8 -0.8,-0.8 h -1.6 c -0.4,0 -0.8,0.3 -0.8,0.8 0,0.5 0.3,0.8 0.8,0.8 z"
   inkscape:connector-curvature="0"
   style="fill:#fbfbfb" />
		<path
   id="path20_1_"
   class="st10"
   d="m 137.2,80.5 c 0.4,0 0.8,-0.3 0.8,-0.8 0,-0.5 -0.3,-0.8 -0.8,-0.8 h -1.6 c -0.4,0 -0.8,0.3 -0.8,0.8 0,0.5 0.3,0.8 0.8,0.8 z"
   inkscape:connector-curvature="0"
   style="fill:#fbfbfb" />
	</g>
	<g
   id="g137">
		<circle
   id="circle10_5_"
   class="st10"
   cx="123.1"
   cy="62.5"
   r="3"
   style="fill:#fbfbfb" />
		<path
   id="path12_5_"
   class="st10"
   d="m 120.1,74.5 h 0.8 v 5.2 c 0,0.4 0.3,0.8 0.8,0.8 0.2,0 4.7,0 4.5,0 0.4,0 0.8,-0.3 0.8,-0.8 0,-0.5 -0.3,-0.8 -0.8,-0.8 h -0.8 v -4.5 h 0.8 c 0.4,0 0.8,-0.3 0.8,-0.8 v -4.5 c 0,-2.1 -1.7,-3.8 -3.8,-3.8 -2.1,0 -3.8,1.7 -3.8,3.8 v 4.5 c -0.1,0.5 0.2,0.9 0.7,0.9 z"
   inkscape:connector-curvature="0"
   style="fill:#fbfbfb" />
	</g>
	<g
   id="g141">
		<circle
   id="circle10_4_"
   class="st10"
   cx="145.39999"
   cy="62.5"
   r="3"
   style="fill:#fbfbfb" />
		<path
   id="path12_4_"
   class="st10"
   d="m 149.1,73.7 v -4.5 c 0,-2.1 -1.7,-3.8 -3.8,-3.8 -2.1,0 -3.8,1.7 -3.8,3.8 v 4.5 c 0,0.4 0.3,0.8 0.8,0.8 h 0.8 V 79 h -0.8 c -0.4,0 -0.8,0.3 -0.8,0.8 0,0.5 0.3,0.8 0.8,0.8 -0.2,0 4.3,0 4.5,0 0.4,0 0.8,-0.3 0.8,-0.8 v -5.2 h 0.8 c 0.4,-0.1 0.7,-0.5 0.7,-0.9 z"
   inkscape:connector-curvature="0"
   style="fill:#fbfbfb" />
	</g>
</g>
<path
   id="path20-3"
   class="st11"
   d="m 184.4,155.60001 c 0.4,0 0.8,-0.3 0.8,-0.8 0,-0.5 -0.3,-0.8 -0.8,-0.8 h -1.6 c -0.4,0 -0.8,0.3 -0.8,0.8 0,0.5 0.3,0.8 0.8,0.8 z"
   inkscape:connector-curvature="0"
   style="fill:#ec3d28" />
<g
   id="g156"
   transform="translate(0,74.60001)">
	<g
   id="g150">
		<circle
   id="circle10"
   class="st11"
   cx="170.39999"
   cy="62.5"
   r="3"
   style="fill:#ec3d28" />
		<path
   id="path12"
   class="st11"
   d="m 167.4,74.5 h 0.8 v 5.2 c 0,0.4 0.3,0.8 0.8,0.8 0.2,0 4.7,0 4.5,0 0.4,0 0.8,-0.3 0.8,-0.8 0,-0.5 -0.3,-0.8 -0.8,-0.8 h -0.8 v -4.5 h 0.8 c 0.4,0 0.8,-0.3 0.8,-0.8 v -4.5 c 0,-2.1 -1.7,-3.8 -3.8,-3.8 -2.1,0 -3.8,1.7 -3.8,3.8 v 4.5 c 0,0.5 0.3,0.9 0.7,0.9 z"
   inkscape:connector-curvature="0"
   style="fill:#ec3d28" />
		<circle
   id="circle10-3"
   class="st11"
   cx="176.10001"
   cy="69.699997"
   r="1.8"
   style="fill:#ec3d28" />
		<path
   id="path12-6"
   class="st11"
   d="m 174.3,76.9 h 0.5 V 80 c 0,0.2 0.2,0.5 0.5,0.5 0.1,0 2.9,0 2.8,0 0.3,0 0.5,-0.2 0.5,-0.5 0,-0.3 -0.2,-0.4 -0.5,-0.4 h -0.5 v -2.7 h 0.5 c 0.3,0 0.5,-0.2 0.5,-0.4 v -2.7 c 0,-1.2 -1,-2.2 -2.3,-2.2 -1.3,0 -2.3,1 -2.3,2.2 v 2.7 c -0.2,0.2 0,0.4 0.3,0.4 z"
   inkscape:connector-curvature="0"
   style="fill:#ec3d28" />
	</g>
	<g
   id="g154">
		<circle
   id="circle10_1_"
   class="st11"
   cx="192.8"
   cy="62.5"
   r="3"
   style="fill:#ec3d28" />
		<path
   id="path12_1_"
   class="st11"
   d="m 196.5,73.7 v -4.5 c 0,-2.1 -1.7,-3.8 -3.8,-3.8 -2.1,0 -3.8,1.7 -3.8,3.8 v 4.5 c 0,0.4 0.3,0.8 0.8,0.8 h 0.8 V 79 h -0.8 c -0.4,0 -0.8,0.3 -0.8,0.8 0,0.5 0.3,0.8 0.8,0.8 -0.2,0 4.3,0 4.5,0 0.4,0 0.8,-0.3 0.8,-0.8 v -5.2 h 0.8 c 0.4,-0.1 0.7,-0.5 0.7,-0.9 z"
   inkscape:connector-curvature="0"
   style="fill:#ec3d28" />
	</g>
</g>
<path
   id="path18_2_"
   class="st11"
   d="m 225,155.10001 c 0.4,0 0.8,-0.3 0.8,-0.8 0,-0.5 -0.4,-0.7 -0.8,-0.7 h -1.6 c -0.4,0 -0.8,0.3 -0.8,0.8 0,0.5 0.3,0.8 0.8,0.8 h 1.6 z"
   inkscape:connector-curvature="0"
   style="fill:#ec3d28" />
<path
   id="path20-3_2_"
   class="st11"
   d="m 222,155.10001 c 0.4,0 0.8,-0.3 0.8,-0.8 0,-0.5 -0.4,-0.7 -0.8,-0.7 h -1.6 c -0.4,0 -0.8,0.3 -0.8,0.8 0,0.5 0.3,0.8 0.8,0.8 h 1.6 z"
   inkscape:connector-curvature="0"
   style="fill:#ec3d28" />
<path
   id="path18"
   class="st11"
   d="m 229.4,155.10001 c 0.4,0 0.8,-0.3 0.8,-0.8 0,-0.5 -0.3,-0.8 -0.8,-0.8 h -1.5 c -0.4,0 -0.8,0.3 -0.8,0.8 0,0.5 0.3,0.8 0.8,0.8 z"
   inkscape:connector-curvature="0"
   style="fill:#ec3d28" />
<g
   id="g173"
   transform="translate(0,74.60001)">
	<g
   id="g165">
		<circle
   id="circle10_3_"
   class="st11"
   cx="217.39999"
   cy="62.5"
   r="3"
   style="fill:#ec3d28" />
		<path
   id="path12_3_"
   class="st11"
   d="m 214.4,74.5 h 0.8 v 5.2 c 0,0.4 0.3,0.8 0.8,0.8 0.2,0 4.7,0 4.5,0 0.4,0 0.8,-0.3 0.8,-0.8 0,-0.4 -0.3,-0.8 -0.8,-0.8 h -0.8 v -4.5 h 0.8 c 0.4,0 0.8,-0.3 0.8,-0.8 v -4.5 c 0,-2.1 -1.7,-3.8 -3.8,-3.8 -2.1,0 -3.8,1.7 -3.8,3.8 v 4.5 c 0,0.5 0.3,0.9 0.7,0.9 z"
   inkscape:connector-curvature="0"
   style="fill:#ec3d28" />
		<circle
   id="circle10-3_2_"
   class="st11"
   cx="223.10001"
   cy="69.699997"
   r="1.8"
   style="fill:#ec3d28" />
		<path
   id="path12-6_2_"
   class="st11"
   d="m 221.3,76.9 h 0.5 V 80 c 0,0.2 0.2,0.5 0.5,0.5 0.1,0 2.9,0 2.8,0 0.3,0 0.5,-0.2 0.5,-0.5 0,-0.3 -0.2,-0.4 -0.5,-0.4 h -0.5 v -2.7 h 0.5 c 0.3,0 0.5,-0.2 0.5,-0.4 v -2.7 c 0,-1.2 -1,-2.2 -2.3,-2.2 -1.3,0 -2.3,1 -2.3,2.2 v 2.7 c -0.2,0.2 0,0.4 0.3,0.4 z"
   inkscape:connector-curvature="0"
   style="fill:#ec3d28" />
	</g>
	<g
   id="g171">
		<circle
   id="circle10_2_"
   class="st11"
   cx="239.8"
   cy="62.5"
   r="3"
   style="fill:#ec3d28" />
		<path
   id="path12_2_"
   class="st11"
   d="m 243.5,73.7 v -4.5 c 0,-2.1 -1.7,-3.8 -3.8,-3.8 -2.1,0 -3.8,1.7 -3.8,3.8 v 4.5 c 0,0.4 0.3,0.8 0.8,0.8 h 0.8 V 79 h -0.8 c -0.4,0 -0.8,0.3 -0.8,0.8 0,0.4 0.3,0.8 0.8,0.8 -0.2,0 4.3,0 4.5,0 0.4,0 0.8,-0.3 0.8,-0.8 v -5.2 h 0.8 c 0.4,-0.1 0.7,-0.5 0.7,-0.9 z"
   inkscape:connector-curvature="0"
   style="fill:#ec3d28" />
		<circle
   id="circle10-3_1_"
   class="st11"
   cx="234.10001"
   cy="69.699997"
   r="1.8"
   style="fill:#ec3d28" />
		<path
   id="path12-6_1_"
   class="st11"
   d="m 235.9,76.9 c 0.3,0 0.5,-0.2 0.5,-0.4 v -2.7 c 0,-1.2 -1,-2.2 -2.3,-2.2 -1.3,0 -2.3,1 -2.3,2.2 v 2.7 c 0,0.2 0.2,0.4 0.5,0.4 h 0.5 v 2.7 h -0.5 c -0.3,0 -0.5,0.2 -0.5,0.4 0,0.2 0.2,0.5 0.5,0.5 -0.1,0 2.6,0 2.8,0 0.3,0 0.5,-0.2 0.5,-0.5 v -3.1 z"
   inkscape:connector-curvature="0"
   style="fill:#ec3d28" />
	</g>
</g>
<path
   id="path20-3_1_"
   class="st11"
   d="m 237.2,155.10001 c 0.6,0 1,-0.3 1,-0.8 0,-0.5 -0.5,-0.8 -1,-0.8 h -2.1 c -0.6,0 -1,0.3 -1,0.8 0,0.5 0.4,0.8 1,0.8 z"
   inkscape:connector-curvature="0"
   style="fill:#ec3d28" />
<g
   class="st5"
   id="g184"
   style="enable-background:new"
   transform="translate(0,74.60001)">
	<path
   class="st12"
   d="m 163.4,49.5 0.9,-1.7 c 0.9,0.6 1.7,1 2.4,1 0.4,0 0.8,-0.1 1.1,-0.3 0.3,-0.2 0.4,-0.5 0.4,-0.9 0,-0.4 -0.2,-0.7 -0.5,-1 -0.3,-0.2 -0.8,-0.3 -1.3,-0.3 -0.3,0 -0.7,0.1 -1.3,0.3 V 45 l 1.8,-2.2 h -3 V 41 h 5.9 v 1.5 l -2,2.2 c 0.8,0.1 1.4,0.5 1.8,1 0.4,0.5 0.6,1.1 0.6,1.8 0,1 -0.3,1.8 -1,2.4 -0.7,0.6 -1.5,0.9 -2.6,0.9 -1.1,0 -2.1,-0.5 -3.2,-1.3 z"
   id="path176"
   inkscape:connector-curvature="0"
   style="fill:#f6f6f6" />
	<path
   class="st12"
   d="m 171.7,51.9 0.5,-1.5 c -0.3,-0.2 -0.5,-0.5 -0.5,-0.9 0,-0.4 0.1,-0.7 0.4,-0.9 0.3,-0.2 0.5,-0.3 0.8,-0.3 0.3,0 0.6,0.1 0.9,0.3 0.2,0.2 0.4,0.5 0.4,0.8 0,0.3 -0.1,0.7 -0.4,1.1 l -0.8,1.4 z"
   id="path178"
   inkscape:connector-curvature="0"
   style="fill:#f6f6f6" />
	<path
   class="st12"
   d="m 175.7,44 v -3 h 6.9 v 1.6 l -3.9,8 h -2.3 l 3.7,-7.7 h -2.4 V 44 Z"
   id="path180"
   inkscape:connector-curvature="0"
   style="fill:#f6f6f6" />
	<path
   class="st12"
   d="m 187.6,50.6 v -7.4 h 2.1 V 44 c 0.6,-0.6 1.2,-1 1.9,-1 0.5,0 0.9,0.1 1.3,0.4 0.4,0.3 0.7,0.6 0.9,1 0.3,-0.4 0.7,-0.8 1.1,-1 0.5,-0.2 1,-0.4 1.5,-0.4 0.9,0 1.6,0.3 2.1,0.8 0.5,0.5 0.8,1.3 0.8,2.2 v 4.5 h -2.1 v -4 c 0,-1.1 -0.4,-1.7 -1.3,-1.7 -0.4,0 -0.8,0.1 -1.1,0.4 -0.3,0.3 -0.5,0.7 -0.5,1.3 v 4 h -2.1 v -4 c 0,-0.6 -0.1,-1 -0.3,-1.3 -0.2,-0.3 -0.5,-0.4 -0.9,-0.4 -0.4,0 -0.8,0.1 -1.1,0.4 -0.3,0.3 -0.5,0.7 -0.5,1.3 v 4 h -1.8 z"
   id="path182"
   inkscape:connector-curvature="0"
   style="fill:#f6f6f6" />
</g>
<path
   id="path18_3_"
   class="st11"
   d="m 174.7,155.10001 c 0.4,0 0.8,-0.3 0.8,-0.8 0,-0.5 -0.3,-0.8 -0.8,-0.8 h -1.6 c -0.4,0 -0.8,0.3 -0.8,0.8 0,0.5 0.3,0.8 0.8,0.8 z"
   inkscape:connector-curvature="0"
   style="fill:#ec3d28" />
</svg>