<?xml version="1.0" encoding="utf-8"?>
<!-- Generator: Adobe Illustrator 24.1.0, SVG Export Plug-In . SVG Version: 6.00 Build 0)  -->
<svg version="1.1" id="Capa_1" xmlns="http://www.w3.org/2000/svg" xmlns:xlink="http://www.w3.org/1999/xlink" x="0px" y="0px"
	 viewBox="0 0 724.1 569.7" style="enable-background:new 0 0 724.1 569.7;" xml:space="preserve">
<style type="text/css">
	.st0{fill:#FFFFFF;}
	.st1{fill:none;stroke:#FFFFFF;stroke-width:3;stroke-miterlimit:10;}
	.st2{fill:none;stroke:#FFFFFF;stroke-miterlimit:10;stroke-dasharray:6,6,6,6,6,6;}
	.st3{fill:#9A326D;}
	.st4{fill:#A1DE8C;}
	.st5{fill:#D768A7;}
</style>
<g>
	<g>
		<g>
			<g>
				<circle class="st0" cx="122.9" cy="291.1" r="13.4"/>
			</g>
		</g>
		<g>
			<g>
				<path class="st0" d="M204.3,339.2h-28c-6.6,0-12,5.3-12,11.9l-1.1,13.5l-9.5,2.3l1.1-41.2c0-8.4-7-15.2-15.4-15.2h-34.9
					c-8.5,0-15.4,6.8-15.4,15.3l-1.1,47.4c0,3.5,2.7,6.5,6.2,6.6c3.7,0.1,6.7-2.8,6.7-6.5c0-0.2,1.1-47.6,1.1-47.8
					c0.1-1.8,2.8-1.6,2.8,0.1l-1.1,109c0,4.4,3.6,7.9,8.1,7.8c4.2-0.1,7.5-3.7,7.5-8v-61.9h3.4v61.9c0,4.2,3.3,7.8,7.5,8
					c4.4,0.2,8.1-3.4,8.1-7.8l0.9-108.9c0-1.8,2.8-1.9,2.8,0l-1.1,47.6c0,3.6,2.9,6.5,6.5,6.5c1.9,0,3.6-0.8,4.7-2.1l17.4-4.2
					c2.3-0.5,3.9-2.6,3.9-4.9c0-0.2,1.1-17.5,1.1-17.6c0.2-1.6,2.5-1.4,2.5,0.2l-1.1,84.7c0,3.4,2.8,6.3,6.2,6.2
					c3.3-0.1,5.9-2.8,5.9-6.1v-48.4h2.6v48.3c0,3.4,2.8,6.3,6.2,6.2c3.3-0.1,5.9-2.8,5.9-6.1l1-85c0-1.6,2.6-1.8,2.6,0.1l-1.1,36.9
					c0,2.7,2.1,5.1,4.8,5.2c2.9,0.1,5.3-2.2,5.3-5l1.1-37.1C216.3,344.5,210.9,339.2,204.3,339.2z"/>
			</g>
		</g>
		<g>
			<g>
				<circle class="st0" cx="191.3" cy="322.4" r="12.9"/>
			</g>
		</g>
	</g>
	<line class="st1" x1="55.7" y1="444.1" x2="635" y2="444.1"/>
	<path class="st2" d="M671,232.1"/>
	<line class="st2" x1="474.5" y1="248.3" x2="474.5" y2="217"/>
	<g>
		<g>
			<circle class="st0" cx="567.9" cy="291.4" r="13.4"/>
		</g>
	</g>
	<g>
		<g>
			<path class="st0" d="M474.5,351.4l1.1,37.1c0,2.9,2.4,5.2,5.3,5c2.7-0.1,4.8-2.5,4.8-5.2l-1.1-36.9c0-1.9,2.6-1.7,2.6-0.1l1,85
				c0,3.3,2.7,6,5.9,6.1c3.4,0.1,6.2-2.8,6.2-6.2v-48.3h2.6v48.4c0,3.3,2.7,6,5.9,6.1c3.4,0.1,6.2-2.8,6.2-6.2l-1.1-84.7
				c0-1.6,2.4-1.8,2.5-0.2c0,0.2,1.1,17.5,1.1,17.6c0,2.3,1.6,4.4,3.9,4.9l17.4,4.2c1.2,1.3,2.9,2.1,4.7,2.1c3.6,0,6.5-2.9,6.5-6.5
				L549,326c0-1.9,2.8-1.8,2.8,0l0.9,108.9c0,4.4,3.6,7.9,8.1,7.8c4.2-0.1,7.5-3.7,7.5-8v-61.9h3.4v61.9c0,4.2,3.3,7.8,7.5,8
				c4.4,0.2,8.1-3.4,8.1-7.8l-1.1-109c0-1.8,2.7-1.9,2.8-0.1c0,0.2,1.1,47.6,1.1,47.8c0,3.7,3,6.6,6.7,6.5c3.5-0.1,6.2-3.1,6.2-6.6
				l-1.1-47.4c0-8.4-7-15.3-15.4-15.3h-34.9c-8.5,0-15.4,6.8-15.4,15.2l1.1,41.2l-9.5-2.3l-1.1-13.5c0-6.6-5.4-11.9-12-11.9h-28
				C479.9,339.5,474.5,344.8,474.5,351.4z"/>
		</g>
	</g>
	<g>
		<g>
			<circle class="st0" cx="499.5" cy="322.7" r="12.9"/>
		</g>
	</g>
	<g>
		<line class="st2" x1="474.5" y1="232.8" x2="602.9" y2="232.2"/>
		<g>
			<path class="st0" d="M518.5,198.5v-3.3h7.2v17.8h-3.8v-14.4H518.5z"/>
			<path class="st0" d="M536.5,212.9v-13.7h3.8v1.5c1.1-1.2,2.2-1.8,3.6-1.8c0.9,0,1.6,0.3,2.3,0.8c0.7,0.5,1.2,1.1,1.6,1.8
				c0.5-0.8,1.2-1.5,2.1-1.9c0.9-0.5,1.8-0.7,2.7-0.7c1.6,0,2.9,0.5,3.9,1.4s1.5,2.3,1.5,4.1v8.3h-3.8v-7.5c0-2.1-0.8-3.2-2.3-3.2
				c-0.8,0-1.4,0.3-2,0.8c-0.6,0.6-0.8,1.4-0.8,2.4v7.4h-3.8v-7.5c0-1.1-0.2-1.9-0.5-2.4c-0.3-0.5-0.9-0.8-1.6-0.8s-1.4,0.3-2,0.8
				c-0.6,0.6-0.8,1.4-0.8,2.4v7.4H536.5z"/>
		</g>
	</g>
	<line class="st2" x1="603.6" y1="248.3" x2="603.6" y2="217"/>
	<line class="st2" x1="216.5" y1="233" x2="473.3" y2="232"/>
	<g>
		<path class="st0" d="M325.1,198.7c0.8-1.3,1.7-2.3,2.7-2.9c1-0.7,2.3-1,3.8-1c1.5,0,2.9,0.5,4,1.5s1.7,2.3,1.7,4
			c0,0.9-0.2,1.8-0.7,2.6c-0.5,0.8-1.3,1.9-2.6,3.2l-3.2,3.3h7v3.5h-12.6V210l5.2-5.3c1.1-1.1,1.8-1.9,2.3-2.5
			c0.4-0.6,0.7-1.2,0.7-1.8s-0.2-1.1-0.6-1.5c-0.4-0.4-0.9-0.6-1.5-0.6c-1.1,0-2.2,0.8-3.2,2.4L325.1,198.7z"/>
		<path class="st0" d="M347.8,212.9v-13.7h3.8v1.5c1.1-1.2,2.2-1.8,3.6-1.8c0.9,0,1.6,0.3,2.3,0.8c0.7,0.5,1.2,1.1,1.6,1.8
			c0.5-0.8,1.2-1.5,2.1-1.9c0.9-0.5,1.8-0.7,2.7-0.7c1.6,0,2.9,0.5,3.9,1.4s1.5,2.3,1.5,4.1v8.3h-3.8v-7.5c0-2.1-0.8-3.2-2.3-3.2
			c-0.8,0-1.4,0.3-2,0.8s-0.8,1.4-0.8,2.4v7.4h-3.8v-7.5c0-1.1-0.2-1.9-0.5-2.4c-0.3-0.5-0.9-0.8-1.6-0.8s-1.4,0.3-2,0.8
			s-0.8,1.4-0.8,2.4v7.4H347.8z"/>
	</g>
	<line class="st2" x1="216.5" y1="248.3" x2="216.5" y2="217"/>
	<path class="st2" d="M603.6,232.4"/>
	<line class="st2" x1="56.1" y1="104.1" x2="636.9" y2="103.8"/>
	<g>
		<path class="st0" d="M313.7,87.3v-3l6.3-10.5h4.3l-6,10.1h2.5v-3.1h3.8v3.1h2v3.4h-2v4.2h-3.8v-4.2H313.7z"/>
		<path class="st0" d="M329.1,94l0.9-2.8c-0.6-0.4-0.8-1-0.8-1.7c0-0.7,0.2-1.2,0.7-1.7c0.4-0.4,1-0.6,1.6-0.6s1.1,0.2,1.6,0.6
			c0.4,0.4,0.7,0.9,0.7,1.5c0,0.6-0.2,1.3-0.7,2l-1.5,2.6H329.1z"/>
		<path class="st0" d="M336.5,89.1l2.1-2.9c0.2,0.2,0.4,0.3,0.6,0.6c0.3,0.2,0.7,0.5,1.4,0.9c0.7,0.4,1.4,0.5,2,0.5s1.3-0.2,1.8-0.6
			c0.5-0.4,0.8-1,0.8-1.8s-0.3-1.4-0.8-1.9c-0.6-0.4-1.3-0.7-2.2-0.7s-1.9,0.3-3.1,1l-1.7-1.8v-8.7h10.7v3.4h-7v3
			c0.5-0.1,1.1-0.2,1.8-0.2c1.7,0,3.2,0.5,4.4,1.5s1.9,2.4,1.9,4.2c0,1.8-0.6,3.2-1.9,4.3c-1.3,1.1-2.9,1.7-4.7,1.7
			C340.2,91.7,338.1,90.8,336.5,89.1z"/>
		<path class="st0" d="M358.9,91.5V77.9h3.8v1.5c1.1-1.2,2.2-1.8,3.6-1.8c0.9,0,1.6,0.3,2.3,0.8c0.7,0.5,1.2,1.1,1.6,1.8
			c0.5-0.8,1.2-1.5,2.1-1.9c0.9-0.5,1.8-0.7,2.7-0.7c1.6,0,2.9,0.5,3.9,1.4s1.5,2.3,1.5,4.1v8.3h-3.8V84c0-2.1-0.8-3.2-2.3-3.2
			c-0.8,0-1.4,0.3-2,0.8c-0.6,0.6-0.8,1.4-0.8,2.4v7.4h-3.8V84c0-1.1-0.2-1.9-0.5-2.4c-0.3-0.5-0.9-0.8-1.6-0.8s-1.4,0.3-2,0.8
			c-0.6,0.6-0.8,1.4-0.8,2.4v7.4H358.9z"/>
	</g>
	<line class="st2" x1="90.3" y1="154.4" x2="603.6" y2="153.4"/>
	<g>
		<path class="st0" d="M325.1,142.2v-3l6.3-10.5h4.3l-6,10.1h2.5v-3.1h3.8v3.1h2v3.4h-2v4.2h-3.8v-4.2H325.1z"/>
		<path class="st0" d="M347.6,146.4v-13.7h3.8v1.5c1.1-1.2,2.2-1.8,3.6-1.8c0.9,0,1.6,0.3,2.3,0.8c0.7,0.5,1.2,1.1,1.6,1.8
			c0.5-0.8,1.2-1.5,2.1-1.9c0.9-0.5,1.8-0.7,2.7-0.7c1.6,0,2.9,0.5,3.9,1.4s1.5,2.3,1.5,4.1v8.3h-3.8V139c0-2.1-0.8-3.2-2.3-3.2
			c-0.8,0-1.4,0.3-2,0.8c-0.6,0.6-0.8,1.4-0.8,2.4v7.4h-3.8V139c0-1.1-0.2-1.9-0.5-2.4c-0.3-0.5-0.9-0.8-1.6-0.8s-1.4,0.3-2,0.8
			c-0.6,0.6-0.8,1.4-0.8,2.4v7.4H347.6z"/>
	</g>
	<line class="st2" x1="603.6" y1="169.5" x2="603.6" y2="138.2"/>
	<line class="st2" x1="87.9" y1="169.5" x2="87.9" y2="138.2"/>
	<line class="st2" x1="636.9" y1="119.6" x2="636.9" y2="88.3"/>
	<line class="st2" x1="56.1" y1="119.6" x2="56.1" y2="88.3"/>
	<rect x="216.5" y="445.9" class="st3" width="258" height="22"/>
	<g>
		<g>
			<path class="st0" d="M247,494.5c-0.9-1-1.3-2.2-1.3-3.6c0-1.4,0.4-2.6,1.3-3.5c0.9-0.9,1.9-1.4,3-1.4s2.1,0.4,2.9,1.2v-4.7h2.7
				v13.2h-2.7v-1.3c-0.7,0.9-1.7,1.4-2.8,1.4l0,0C248.9,495.9,247.9,495.4,247,494.5z M249,489.1c-0.5,0.5-0.7,1.2-0.7,1.9
				c0,0.8,0.2,1.4,0.7,1.9c0.5,0.5,1,0.7,1.6,0.7c0.6,0,1.1-0.2,1.6-0.7c0.4-0.5,0.6-1.1,0.6-1.9c0-0.8-0.2-1.4-0.6-1.9
				c-0.4-0.5-1-0.8-1.6-0.8S249.4,488.6,249,489.1z"/>
			<path class="st0" d="M258.2,485c-0.3-0.3-0.5-0.7-0.5-1.1s0.2-0.8,0.5-1.1c0.3-0.3,0.7-0.5,1.1-0.5c0.4,0,0.8,0.2,1.1,0.5
				c0.3,0.3,0.5,0.7,0.5,1.1s-0.2,0.8-0.5,1.1c-0.3,0.3-0.7,0.5-1.1,0.5C258.9,485.4,258.6,485.3,258.2,485z M258,495.8v-9.6h2.7
				v9.6H258z"/>
			<path class="st0" d="M262.4,494.5l1.2-1.6c1,0.8,2.1,1.1,3.2,1.1c0.3,0,0.6-0.1,0.8-0.2c0.2-0.1,0.3-0.3,0.3-0.5
				s-0.1-0.4-0.4-0.6c-0.3-0.2-0.7-0.4-1.2-0.5s-0.9-0.3-1.2-0.4c-0.3-0.1-0.6-0.3-1-0.5c-0.7-0.4-1.1-1.1-1.1-2s0.4-1.6,1.1-2.2
				c0.7-0.6,1.6-0.9,2.8-0.9c1.1,0,2.2,0.4,3.4,1.2l-1,1.8c-0.8-0.6-1.7-0.8-2.5-0.8c0,0,0,0,0,0c-0.8,0-1.2,0.2-1.2,0.7
				c0,0.2,0.1,0.4,0.4,0.6c0.3,0.1,0.7,0.3,1.3,0.5c0.6,0.2,1,0.3,1.3,0.4c0.3,0.1,0.6,0.3,0.9,0.5c0.7,0.4,1,1.1,1,2
				s-0.3,1.7-1,2.2c-0.7,0.5-1.6,0.8-2.6,0.8c-0.7,0-1.5-0.1-2.2-0.4C263.8,495.3,263.1,495,262.4,494.5z"/>
			<path class="st0" d="M271.8,488.1v-1.9h1.1v-2.9h2.7v2.9h2.3v1.9h-2.3v4.3c0,0.4,0.1,0.7,0.3,0.9c0.2,0.2,0.4,0.3,0.7,0.3
				c0.5,0,0.9-0.2,1.3-0.7l1,1.9c-0.8,0.8-1.7,1.1-2.6,1.1c-0.9,0-1.7-0.3-2.3-0.9c-0.6-0.6-0.9-1.4-0.9-2.5v-4.4H271.8z"/>
			<path class="st0" d="M280.7,495c-0.7-0.6-1-1.4-1-2.3c0-1,0.4-1.7,1.1-2.2c0.7-0.5,1.7-0.7,2.9-0.7h2v0c0-1-0.5-1.5-1.6-1.5
				c-0.5,0-1,0.1-1.5,0.3c-0.5,0.2-1,0.4-1.3,0.6l-1.2-1.7c1.3-0.9,2.7-1.4,4.3-1.4c0,0,0,0,0,0c1.2,0,2.1,0.3,2.8,0.9
				c0.7,0.6,1.1,1.5,1.1,2.8v6.1h-2.5v-1.2c-0.7,0.9-1.5,1.3-2.5,1.3l0,0C282.3,495.9,281.4,495.6,280.7,495z M282.4,492.7
				c0,0.3,0.1,0.6,0.4,0.8c0.3,0.2,0.6,0.3,1.1,0.3c0.5,0,0.9-0.1,1.3-0.4c0.4-0.3,0.5-0.7,0.5-1.2v-0.5H284
				C282.9,491.7,282.4,492,282.4,492.7z"/>
			<path class="st0" d="M290.8,495.8v-9.6h2.7v1.1c0.8-0.9,1.7-1.3,2.7-1.3c1,0,1.9,0.4,2.5,1.1c0.7,0.7,1,1.7,1,2.8v5.8h-2.7v-5.3
				c0-1.5-0.5-2.2-1.6-2.2c-0.5,0-1,0.2-1.4,0.6c-0.4,0.4-0.6,0.9-0.6,1.7v5.3H290.8z"/>
			<path class="st0" d="M303.1,494.6c-1-0.9-1.5-2.1-1.5-3.6c0-1.5,0.5-2.7,1.5-3.6c1-0.9,2.2-1.4,3.6-1.4c0.7,0,1.4,0.1,2.1,0.4
				s1.3,0.7,1.9,1.3l-1.4,1.8c-0.3-0.4-0.7-0.7-1.1-0.9c-0.4-0.2-0.9-0.3-1.3-0.3c-0.7,0-1.3,0.2-1.8,0.7c-0.5,0.5-0.8,1.1-0.8,1.9
				c0,0.8,0.3,1.4,0.8,1.9c0.5,0.5,1.1,0.7,1.8,0.7c0.9,0,1.7-0.4,2.4-1.3l1.6,1.8c-1.2,1.3-2.6,1.9-4,1.9S304.1,495.5,303.1,494.6z
				"/>
			<path class="st0" d="M312.8,485c-0.3-0.3-0.5-0.7-0.5-1.1s0.2-0.8,0.5-1.1c0.3-0.3,0.7-0.5,1.1-0.5c0.4,0,0.8,0.2,1.1,0.5
				c0.3,0.3,0.5,0.7,0.5,1.1s-0.2,0.8-0.5,1.1c-0.3,0.3-0.7,0.5-1.1,0.5C313.4,485.4,313.1,485.3,312.8,485z M312.5,495.8v-9.6h2.7
				v9.6H312.5z"/>
			<path class="st0" d="M318.2,495c-0.7-0.6-1-1.4-1-2.3c0-1,0.4-1.7,1.1-2.2c0.7-0.5,1.7-0.7,2.9-0.7h2v0c0-1-0.5-1.5-1.6-1.5
				c-0.5,0-1,0.1-1.5,0.3c-0.5,0.2-1,0.4-1.3,0.6l-1.2-1.7c1.3-0.9,2.7-1.4,4.3-1.4c0,0,0,0,0,0c1.2,0,2.1,0.3,2.8,0.9
				c0.7,0.6,1.1,1.5,1.1,2.8v6.1h-2.5v-1.2c-0.7,0.9-1.5,1.3-2.5,1.3l0,0C319.8,495.9,318.9,495.6,318.2,495z M319.9,492.7
				c0,0.3,0.1,0.6,0.4,0.8c0.3,0.2,0.6,0.3,1.1,0.3c0.5,0,0.9-0.1,1.3-0.4c0.4-0.3,0.5-0.7,0.5-1.2v-0.5h-1.7
				C320.4,491.7,319.9,492,319.9,492.7z"/>
			<path class="st0" d="M333,495.8v-9.6h2.7v1.2c0.3-0.4,0.8-0.7,1.3-1s1-0.4,1.6-0.4l0,2.5H338c-0.8,0-1.4,0.3-1.8,0.8
				c-0.4,0.6-0.6,1.3-0.6,2.2v4.2H333z"/>
			<path class="st0" d="M341.2,494.6c-1-0.9-1.4-2.1-1.4-3.6s0.5-2.7,1.5-3.6s2.1-1.3,3.4-1.3s2.4,0.4,3.4,1.2s1.4,1.9,1.4,3.3v1.4
				h-7c0.1,0.5,0.4,0.9,0.8,1.3c0.5,0.3,1,0.5,1.6,0.5c0.9,0,1.7-0.3,2.3-0.9l1.5,1.6c-1.1,1-2.3,1.5-3.8,1.5
				S342.1,495.5,341.2,494.6z M342.5,490h4.2c-0.1-0.6-0.3-1-0.6-1.3c-0.4-0.3-0.8-0.5-1.3-0.5s-1,0.2-1.4,0.5
				C342.8,489.1,342.5,489.5,342.5,490z"/>
			<path class="st0" d="M352.2,494.6c-1-0.9-1.5-2.1-1.5-3.6c0-1.5,0.5-2.7,1.5-3.6c1-0.9,2.2-1.4,3.6-1.4c0.7,0,1.4,0.1,2.1,0.4
				s1.3,0.7,1.9,1.3l-1.4,1.8c-0.3-0.4-0.7-0.7-1.1-0.9c-0.4-0.2-0.9-0.3-1.3-0.3c-0.7,0-1.3,0.2-1.8,0.7c-0.5,0.5-0.8,1.1-0.8,1.9
				c0,0.8,0.3,1.4,0.8,1.9c0.5,0.5,1.1,0.7,1.8,0.7c0.9,0,1.7-0.4,2.4-1.3l1.6,1.8c-1.2,1.3-2.6,1.9-4,1.9
				C354.4,495.9,353.2,495.5,352.2,494.6z"/>
			<path class="st0" d="M362.4,494.5c-1-0.9-1.4-2.1-1.4-3.5c0-1.4,0.5-2.6,1.4-3.5s2.2-1.4,3.6-1.4s2.7,0.5,3.6,1.4
				s1.4,2.1,1.4,3.5c0,1.4-0.5,2.6-1.4,3.5s-2.2,1.4-3.6,1.4S363.3,495.5,362.4,494.5z M364.3,489.1c-0.4,0.5-0.7,1.1-0.7,1.9
				c0,0.8,0.2,1.4,0.7,1.9c0.4,0.5,1,0.7,1.7,0.7s1.3-0.2,1.7-0.7c0.4-0.5,0.7-1.1,0.7-1.9c0-0.8-0.2-1.4-0.7-1.9
				c-0.4-0.5-1-0.7-1.7-0.7S364.7,488.6,364.3,489.1z"/>
			<path class="st0" d="M373,495.8v-9.6h2.7v1.1c0.7-0.8,1.6-1.2,2.5-1.2c0.6,0,1.1,0.2,1.6,0.5s0.9,0.8,1.1,1.3
				c0.4-0.6,0.9-1,1.5-1.3c0.6-0.3,1.3-0.5,1.9-0.5c1.1,0,2,0.3,2.7,1c0.7,0.7,1,1.6,1,2.9v5.8h-2.7v-5.2c0-1.5-0.5-2.2-1.6-2.2
				c-0.5,0-1,0.2-1.4,0.6c-0.4,0.4-0.6,1-0.6,1.7v5.2h-2.7v-5.2c0-0.8-0.1-1.3-0.3-1.7c-0.2-0.4-0.6-0.5-1.1-0.5s-1,0.2-1.4,0.6
				c-0.4,0.4-0.6,1-0.6,1.7v5.2H373z"/>
			<path class="st0" d="M391.4,494.6c-1-0.9-1.4-2.1-1.4-3.6s0.5-2.7,1.5-3.6s2.1-1.3,3.4-1.3s2.4,0.4,3.4,1.2
				c0.9,0.8,1.4,1.9,1.4,3.3v1.4h-7c0.1,0.5,0.4,0.9,0.8,1.3s1,0.5,1.6,0.5c0.9,0,1.7-0.3,2.3-0.9l1.5,1.6c-1.1,1-2.3,1.5-3.8,1.5
				C393.6,495.9,392.4,495.5,391.4,494.6z M392.7,490h4.2c-0.1-0.6-0.3-1-0.6-1.3c-0.4-0.3-0.8-0.5-1.3-0.5s-1,0.2-1.4,0.5
				C393,489.1,392.8,489.5,392.7,490z"/>
			<path class="st0" d="M401.5,495.8v-9.6h2.7v1.1c0.8-0.9,1.7-1.3,2.7-1.3s1.9,0.4,2.5,1.1c0.7,0.7,1,1.7,1,2.8v5.8h-2.7v-5.3
				c0-1.5-0.5-2.2-1.6-2.2c-0.5,0-1,0.2-1.4,0.6c-0.4,0.4-0.6,0.9-0.6,1.7v5.3H401.5z"/>
			<path class="st0" d="M413.7,494.5c-0.9-1-1.3-2.2-1.3-3.6c0-1.4,0.4-2.6,1.3-3.5c0.9-0.9,1.9-1.4,3-1.4s2.1,0.4,2.9,1.2v-4.7h2.7
				v13.2h-2.7v-1.3c-0.7,0.9-1.7,1.4-2.8,1.4l0,0C415.6,495.9,414.6,495.4,413.7,494.5z M415.7,489.1c-0.5,0.5-0.7,1.2-0.7,1.9
				c0,0.8,0.2,1.4,0.7,1.9c0.5,0.5,1,0.7,1.6,0.7s1.1-0.2,1.6-0.7c0.4-0.5,0.6-1.1,0.6-1.9c0-0.8-0.2-1.4-0.6-1.9
				c-0.4-0.5-1-0.8-1.6-0.8S416.2,488.6,415.7,489.1z"/>
			<path class="st0" d="M425.3,495c-0.7-0.6-1-1.4-1-2.3c0-1,0.4-1.7,1.1-2.2c0.7-0.5,1.7-0.7,2.9-0.7h2v0c0-1-0.5-1.5-1.6-1.5
				c-0.5,0-1,0.1-1.5,0.3c-0.5,0.2-1,0.4-1.3,0.6l-1.2-1.7c1.3-0.9,2.7-1.4,4.3-1.4c0,0,0,0,0,0c1.2,0,2.1,0.3,2.8,0.9
				c0.7,0.6,1.1,1.5,1.1,2.8v6.1h-2.5v-1.2c-0.7,0.9-1.5,1.3-2.5,1.3l0,0C426.8,495.9,426,495.6,425.3,495z M426.9,492.7
				c0,0.3,0.1,0.6,0.4,0.8c0.3,0.2,0.6,0.3,1.1,0.3s0.9-0.1,1.3-0.4c0.4-0.3,0.5-0.7,0.5-1.2v-0.5h-1.7
				C427.5,491.7,426.9,492,426.9,492.7z"/>
			<path class="st0" d="M436.1,494.5c-0.9-1-1.3-2.2-1.3-3.6c0-1.4,0.4-2.6,1.3-3.5s1.9-1.4,3-1.4s2.1,0.4,2.9,1.2v-4.7h2.7v13.2
				H442v-1.3c-0.7,0.9-1.7,1.4-2.8,1.4l0,0C438,495.9,437,495.4,436.1,494.5z M438.1,489.1c-0.5,0.5-0.7,1.2-0.7,1.9
				c0,0.8,0.2,1.4,0.7,1.9c0.5,0.5,1,0.7,1.6,0.7s1.1-0.2,1.6-0.7c0.4-0.5,0.6-1.1,0.6-1.9c0-0.8-0.2-1.4-0.6-1.9
				c-0.4-0.5-1-0.8-1.6-0.8S438.6,488.6,438.1,489.1z"/>
			<path class="st0" d="M447.7,495c-0.7-0.6-1-1.4-1-2.3c0-1,0.4-1.7,1.1-2.2c0.7-0.5,1.7-0.7,2.9-0.7h2v0c0-1-0.5-1.5-1.6-1.5
				c-0.5,0-1,0.1-1.5,0.3c-0.5,0.2-1,0.4-1.3,0.6l-1.2-1.7c1.3-0.9,2.7-1.4,4.3-1.4c0,0,0,0,0,0c1.2,0,2.1,0.3,2.8,0.9
				c0.7,0.6,1.1,1.5,1.1,2.8v6.1h-2.5v-1.2c-0.7,0.9-1.5,1.3-2.5,1.3l0,0C449.2,495.9,448.4,495.6,447.7,495z M449.3,492.7
				c0,0.3,0.1,0.6,0.4,0.8c0.3,0.2,0.6,0.3,1.1,0.3s0.9-0.1,1.3-0.4c0.4-0.3,0.5-0.7,0.5-1.2v-0.5h-1.7
				C449.9,491.7,449.3,492,449.3,492.7z"/>
		</g>
	</g>
	<rect x="474.5" y="445.9" class="st4" width="128.4" height="22"/>
	<g>
		<g>
			<path class="st0" d="M491.1,495.8v-9.6h2.7v1.1c0.8-0.9,1.7-1.3,2.7-1.3c1,0,1.9,0.4,2.5,1.1c0.7,0.7,1,1.7,1,2.8v5.8h-2.7v-5.3
				c0-1.5-0.5-2.2-1.6-2.2c-0.5,0-1,0.2-1.4,0.6c-0.4,0.4-0.6,0.9-0.6,1.7v5.3H491.1z"/>
			<path class="st0" d="M502.7,485c-0.3-0.3-0.5-0.7-0.5-1.1s0.2-0.8,0.5-1.1c0.3-0.3,0.7-0.5,1.1-0.5s0.8,0.2,1.1,0.5
				c0.3,0.3,0.5,0.7,0.5,1.1s-0.2,0.8-0.5,1.1c-0.3,0.3-0.7,0.5-1.1,0.5S503,485.3,502.7,485z M502.5,495.8v-9.6h2.7v9.6H502.5z"/>
			<path class="st0" d="M507.6,495.8v-9.6h2.7v1.1c0.8-0.9,1.7-1.3,2.7-1.3c1,0,1.9,0.4,2.5,1.1c0.7,0.7,1,1.7,1,2.8v5.8h-2.7v-5.3
				c0-1.5-0.5-2.2-1.6-2.2c-0.5,0-1,0.2-1.4,0.6c-0.4,0.4-0.6,0.9-0.6,1.7v5.3H507.6z M508.7,484.9c0-0.9,0.2-1.6,0.6-2.1
				c0.4-0.5,0.9-0.8,1.5-0.8c0.4,0,0.8,0.2,1.4,0.5s0.9,0.5,1,0.5c0.4,0,0.5-0.3,0.5-0.9h1.9c0,0.9-0.2,1.6-0.6,2.1
				c-0.4,0.5-0.9,0.8-1.5,0.8c-0.4,0-0.8-0.2-1.4-0.5s-0.9-0.5-1-0.5c-0.4,0-0.5,0.3-0.5,0.9H508.7z"/>
			<path class="st0" d="M519.9,494.5c-1-0.9-1.4-2.1-1.4-3.5c0-1.4,0.5-2.6,1.4-3.5s2.2-1.4,3.6-1.4s2.7,0.5,3.6,1.4
				c1,1,1.4,2.1,1.4,3.5c0,1.4-0.5,2.6-1.4,3.5c-1,0.9-2.2,1.4-3.6,1.4S520.9,495.5,519.9,494.5z M521.8,489.1
				c-0.4,0.5-0.7,1.1-0.7,1.9c0,0.8,0.2,1.4,0.7,1.9c0.4,0.5,1,0.7,1.7,0.7c0.7,0,1.3-0.2,1.7-0.7c0.4-0.5,0.7-1.1,0.7-1.9
				c0-0.8-0.2-1.4-0.7-1.9c-0.4-0.5-1-0.7-1.7-0.7C522.8,488.3,522.3,488.6,521.8,489.1z"/>
			<path class="st0" d="M530.5,491.6v-2.3h6.3v2.3H530.5z"/>
			<path class="st0" d="M539.8,495c-0.7-0.6-1-1.4-1-2.3c0-1,0.4-1.7,1.1-2.2c0.7-0.5,1.7-0.7,2.9-0.7h2v0c0-1-0.5-1.5-1.6-1.5
				c-0.5,0-1,0.1-1.5,0.3c-0.5,0.2-1,0.4-1.3,0.6l-1.2-1.7c1.3-0.9,2.7-1.4,4.3-1.4c0,0,0,0,0,0c1.2,0,2.1,0.3,2.8,0.9
				c0.7,0.6,1.1,1.5,1.1,2.8v6.1h-2.5v-1.2c-0.7,0.9-1.5,1.3-2.5,1.3l0,0C541.3,495.9,540.5,495.6,539.8,495z M541.5,492.7
				c0,0.3,0.1,0.6,0.4,0.8c0.3,0.2,0.6,0.3,1.1,0.3s0.9-0.1,1.3-0.4c0.4-0.3,0.5-0.7,0.5-1.2v-0.5h-1.7
				C542,491.7,541.5,492,541.5,492.7z"/>
			<path class="st0" d="M550.7,494.5c-0.9-1-1.3-2.2-1.3-3.6c0-1.4,0.4-2.6,1.3-3.5s1.9-1.4,3-1.4s2.1,0.4,2.9,1.2v-4.7h2.7v13.2
				h-2.7v-1.3c-0.7,0.9-1.7,1.4-2.8,1.4l0,0C552.6,495.9,551.5,495.4,550.7,494.5z M552.7,489.1c-0.5,0.5-0.7,1.2-0.7,1.9
				c0,0.8,0.2,1.4,0.7,1.9c0.5,0.5,1,0.7,1.6,0.7s1.1-0.2,1.6-0.7c0.4-0.5,0.6-1.1,0.6-1.9c0-0.8-0.2-1.4-0.6-1.9
				c-0.4-0.5-1-0.8-1.6-0.8S553.1,488.6,552.7,489.1z"/>
			<path class="st0" d="M561.6,492v-5.8h2.7v5.2c0,1.5,0.5,2.2,1.6,2.2c0.5,0,1-0.2,1.4-0.6s0.6-0.9,0.6-1.7v-5.2h2.7v9.6h-2.7v-1.2
				c-0.7,0.9-1.5,1.4-2.6,1.4l0,0c-1,0-1.9-0.3-2.6-1C562,494.3,561.6,493.3,561.6,492z"/>
			<path class="st0" d="M573.1,495.8v-13.2h2.7v13.2H573.1z"/>
			<path class="st0" d="M577.7,488.1v-1.9h1.1v-2.9h2.7v2.9h2.3v1.9h-2.3v4.3c0,0.4,0.1,0.7,0.3,0.9c0.2,0.2,0.4,0.3,0.7,0.3
				c0.5,0,0.9-0.2,1.3-0.7l1,1.9c-0.8,0.8-1.7,1.1-2.6,1.1s-1.7-0.3-2.3-0.9c-0.6-0.6-0.9-1.4-0.9-2.5v-4.4H577.7z"/>
			<path class="st0" d="M586.9,494.5c-1-0.9-1.4-2.1-1.4-3.5c0-1.4,0.5-2.6,1.4-3.5s2.2-1.4,3.6-1.4s2.7,0.5,3.6,1.4
				c1,1,1.4,2.1,1.4,3.5c0,1.4-0.5,2.6-1.4,3.5c-1,0.9-2.2,1.4-3.6,1.4S587.9,495.5,586.9,494.5z M588.8,489.1
				c-0.4,0.5-0.7,1.1-0.7,1.9c0,0.8,0.2,1.4,0.7,1.9c0.4,0.5,1,0.7,1.7,0.7c0.7,0,1.3-0.2,1.7-0.7c0.4-0.5,0.7-1.1,0.7-1.9
				c0-0.8-0.2-1.4-0.7-1.9c-0.4-0.5-1-0.7-1.7-0.7C589.8,488.3,589.3,488.6,588.8,489.1z"/>
		</g>
	</g>
	<rect x="602.9" y="445.9" class="st5" width="32.1" height="22"/>
	<line class="st2" x1="87.7" y1="248.3" x2="87.7" y2="217"/>
	<line class="st2" x1="87.7" y1="232.5" x2="216.1" y2="232"/>
	<g>
		<path class="st0" d="M131.8,200.3v-3.3h7.2v17.8h-3.8v-14.4H131.8z"/>
		<path class="st0" d="M149.7,214.7V201h3.8v1.5c1.1-1.2,2.2-1.8,3.6-1.8c0.9,0,1.6,0.3,2.3,0.8c0.7,0.5,1.2,1.1,1.6,1.8
			c0.5-0.8,1.2-1.5,2.1-1.9c0.9-0.5,1.8-0.7,2.7-0.7c1.6,0,2.9,0.5,3.9,1.4s1.5,2.3,1.5,4.1v8.3h-3.8v-7.5c0-2.1-0.8-3.2-2.3-3.2
			c-0.8,0-1.4,0.3-2,0.8c-0.6,0.6-0.8,1.4-0.8,2.4v7.4h-3.8v-7.5c0-1.1-0.2-1.9-0.5-2.4c-0.3-0.5-0.9-0.8-1.6-0.8s-1.4,0.3-2,0.8
			c-0.6,0.6-0.8,1.4-0.8,2.4v7.4H149.7z"/>
	</g>
	<path class="st2" d="M216.8,234.1"/>
	<g>
		
			<rect x="88" y="445.9" transform="matrix(-1 -4.489621e-11 4.489621e-11 -1 304.3376 913.7922)" class="st4" width="128.4" height="22"/>
		
			<rect x="55.9" y="445.9" transform="matrix(-1 -4.488200e-11 4.488200e-11 -1 143.8449 913.7922)" class="st5" width="32.1" height="22"/>
	</g>
	<g>
		<g>
			<path class="st0" d="M99.1,495.8v-9.6h2.7v1.1c0.8-0.9,1.7-1.3,2.7-1.3c1,0,1.9,0.4,2.5,1.1c0.7,0.7,1,1.7,1,2.8v5.8h-2.7v-5.3
				c0-1.5-0.5-2.2-1.6-2.2c-0.5,0-1,0.2-1.4,0.6c-0.4,0.4-0.6,0.9-0.6,1.7v5.3H99.1z"/>
			<path class="st0" d="M110.7,485c-0.3-0.3-0.5-0.7-0.5-1.1s0.2-0.8,0.5-1.1c0.3-0.3,0.7-0.5,1.1-0.5s0.8,0.2,1.1,0.5
				c0.3,0.3,0.5,0.7,0.5,1.1s-0.2,0.8-0.5,1.1c-0.3,0.3-0.7,0.5-1.1,0.5S111,485.3,110.7,485z M110.5,495.8v-9.6h2.7v9.6H110.5z"/>
			<path class="st0" d="M115.7,495.8v-9.6h2.7v1.1c0.8-0.9,1.7-1.3,2.7-1.3c1,0,1.9,0.4,2.5,1.1c0.7,0.7,1,1.7,1,2.8v5.8h-2.7v-5.3
				c0-1.5-0.5-2.2-1.6-2.2c-0.5,0-1,0.2-1.4,0.6c-0.4,0.4-0.6,0.9-0.6,1.7v5.3H115.7z M116.7,484.9c0-0.9,0.2-1.6,0.6-2.1
				c0.4-0.5,0.9-0.8,1.5-0.8c0.4,0,0.8,0.2,1.4,0.5s0.9,0.5,1,0.5c0.4,0,0.5-0.3,0.5-0.9h1.9c0,0.9-0.2,1.6-0.6,2.1
				c-0.4,0.5-0.9,0.8-1.5,0.8c-0.4,0-0.8-0.2-1.4-0.5s-0.9-0.5-1-0.5c-0.4,0-0.5,0.3-0.5,0.9H116.7z"/>
			<path class="st0" d="M127.9,494.5c-1-0.9-1.4-2.1-1.4-3.5c0-1.4,0.5-2.6,1.4-3.5s2.2-1.4,3.6-1.4s2.7,0.5,3.6,1.4
				c1,1,1.4,2.1,1.4,3.5c0,1.4-0.5,2.6-1.4,3.5c-1,0.9-2.2,1.4-3.6,1.4S128.9,495.5,127.9,494.5z M129.8,489.1
				c-0.4,0.5-0.7,1.1-0.7,1.9c0,0.8,0.2,1.4,0.7,1.9c0.4,0.5,1,0.7,1.7,0.7c0.7,0,1.3-0.2,1.7-0.7c0.4-0.5,0.7-1.1,0.7-1.9
				c0-0.8-0.2-1.4-0.7-1.9c-0.4-0.5-1-0.7-1.7-0.7C130.8,488.3,130.3,488.6,129.8,489.1z"/>
			<path class="st0" d="M138.5,491.6v-2.3h6.3v2.3H138.5z"/>
			<path class="st0" d="M147.8,495c-0.7-0.6-1-1.4-1-2.3c0-1,0.4-1.7,1.1-2.2c0.7-0.5,1.7-0.7,2.9-0.7h2v0c0-1-0.5-1.5-1.6-1.5
				c-0.5,0-1,0.1-1.5,0.3c-0.5,0.2-1,0.4-1.3,0.6l-1.2-1.7c1.3-0.9,2.7-1.4,4.3-1.4c0,0,0,0,0,0c1.2,0,2.1,0.3,2.8,0.9
				c0.7,0.6,1.1,1.5,1.1,2.8v6.1h-2.5v-1.2c-0.7,0.9-1.5,1.3-2.5,1.3l0,0C149.4,495.9,148.5,495.6,147.8,495z M149.5,492.7
				c0,0.3,0.1,0.6,0.4,0.8c0.3,0.2,0.6,0.3,1.1,0.3s0.9-0.1,1.3-0.4c0.4-0.3,0.5-0.7,0.5-1.2v-0.5h-1.7
				C150,491.7,149.5,492,149.5,492.7z"/>
			<path class="st0" d="M158.7,494.5c-0.9-1-1.3-2.2-1.3-3.6c0-1.4,0.4-2.6,1.3-3.5s1.9-1.4,3-1.4s2.1,0.4,2.9,1.2v-4.7h2.7v13.2
				h-2.7v-1.3c-0.7,0.9-1.7,1.4-2.8,1.4l0,0C160.6,495.9,159.6,495.4,158.7,494.5z M160.7,489.1c-0.5,0.5-0.7,1.2-0.7,1.9
				c0,0.8,0.2,1.4,0.7,1.9c0.5,0.5,1,0.7,1.6,0.7s1.1-0.2,1.6-0.7c0.4-0.5,0.6-1.1,0.6-1.9c0-0.8-0.2-1.4-0.6-1.9
				c-0.4-0.5-1-0.8-1.6-0.8S161.2,488.6,160.7,489.1z"/>
			<path class="st0" d="M169.6,492v-5.8h2.7v5.2c0,1.5,0.5,2.2,1.6,2.2c0.5,0,1-0.2,1.4-0.6s0.6-0.9,0.6-1.7v-5.2h2.7v9.6h-2.7v-1.2
				c-0.7,0.9-1.5,1.4-2.6,1.4l0,0c-1,0-1.9-0.3-2.6-1C170,494.3,169.6,493.3,169.6,492z"/>
			<path class="st0" d="M181.1,495.8v-13.2h2.7v13.2H181.1z"/>
			<path class="st0" d="M185.7,488.1v-1.9h1.1v-2.9h2.7v2.9h2.3v1.9h-2.3v4.3c0,0.4,0.1,0.7,0.3,0.9c0.2,0.2,0.4,0.3,0.7,0.3
				c0.5,0,0.9-0.2,1.3-0.7l1,1.9c-0.8,0.8-1.7,1.1-2.6,1.1s-1.7-0.3-2.3-0.9c-0.6-0.6-0.9-1.4-0.9-2.5v-4.4H185.7z"/>
			<path class="st0" d="M194.9,494.5c-1-0.9-1.4-2.1-1.4-3.5c0-1.4,0.5-2.6,1.4-3.5s2.2-1.4,3.6-1.4s2.7,0.5,3.6,1.4
				c1,1,1.4,2.1,1.4,3.5c0,1.4-0.5,2.6-1.4,3.5c-1,0.9-2.2,1.4-3.6,1.4S195.9,495.5,194.9,494.5z M196.8,489.1
				c-0.4,0.5-0.7,1.1-0.7,1.9c0,0.8,0.2,1.4,0.7,1.9c0.4,0.5,1,0.7,1.7,0.7c0.7,0,1.3-0.2,1.7-0.7c0.4-0.5,0.7-1.1,0.7-1.9
				c0-0.8-0.2-1.4-0.7-1.9c-0.4-0.5-1-0.7-1.7-0.7C197.9,488.3,197.3,488.6,196.8,489.1z"/>
		</g>
	</g>
</g>
</svg>
