<?xml version="1.0" encoding="utf-8"?>
<!-- Generator: Adobe Illustrator 24.1.0, SVG Export Plug-In . SVG Version: 6.00 Build 0)  -->
<svg version="1.1" id="Capa_1" xmlns="http://www.w3.org/2000/svg" xmlns:xlink="http://www.w3.org/1999/xlink" x="0px" y="0px"
	 viewBox="0 0 724.1 569.7" style="enable-background:new 0 0 724.1 569.7;" xml:space="preserve">
<style type="text/css">
	.st0{fill:none;stroke:#FFFFFF;stroke-width:3;stroke-miterlimit:10;}
	.st1{fill:none;stroke:#FFFFFF;stroke-miterlimit:10;stroke-dasharray:6,6,6,6,6,6;}
	.st2{fill:#FFFFFF;}
	.st3{fill:#9A326D;}
	.st4{fill:#A1DE8C;}
	.st5{fill:#D768A7;}
</style>
<g>
	<line class="st0" x1="86.5" y1="443.9" x2="603.2" y2="444.1"/>
	<path class="st1" d="M639.2,232.1"/>
	<line class="st1" x1="442.7" y1="248.3" x2="442.7" y2="217"/>
	<line class="st1" x1="442.7" y1="232.8" x2="571.1" y2="232.2"/>
	<g>
		<g>
			<circle class="st2" cx="536.1" cy="291.4" r="13.4"/>
		</g>
	</g>
	<g>
		<g>
			<path class="st2" d="M442.7,351.4l1.1,37.1c0,2.9,2.4,5.2,5.3,5c2.7-0.1,4.8-2.5,4.8-5.2l-1.1-36.9c0-1.9,2.6-1.7,2.6-0.1l1,85
				c0,3.3,2.7,6,5.9,6.1c3.4,0.1,6.2-2.8,6.2-6.2v-48.3h2.6v48.4c0,3.3,2.7,6,5.9,6.1c3.4,0.1,6.2-2.8,6.2-6.2l-1.1-84.7
				c0-1.6,2.4-1.8,2.5-0.2c0,0.2,1.1,17.5,1.1,17.6c0,2.3,1.6,4.4,3.9,4.9L507,378c1.2,1.3,2.9,2.1,4.7,2.1c3.6,0,6.5-2.9,6.5-6.5
				l-1.1-47.6c0-1.9,2.8-1.8,2.8,0l0.9,108.9c0,4.4,3.6,7.9,8.1,7.8c4.2-0.1,7.5-3.7,7.5-8v-61.9h3.4v61.9c0,4.2,3.3,7.8,7.5,8
				c4.4,0.2,8.1-3.4,8.1-7.8l-1.1-109c0-1.8,2.7-1.9,2.8-0.1c0,0.2,1.1,47.6,1.1,47.8c0,3.7,3,6.6,6.7,6.5c3.5-0.1,6.2-3.1,6.2-6.6
				l-1.1-47.4c0-8.4-7-15.3-15.4-15.3h-34.9c-8.5,0-15.4,6.8-15.4,15.2l1.1,41.2l-9.5-2.3l-1.1-13.5c0-6.6-5.4-11.9-12-11.9h-28
				C448.2,339.5,442.8,344.8,442.7,351.4z"/>
		</g>
	</g>
	<g>
		<g>
			<circle class="st2" cx="467.7" cy="322.7" r="12.9"/>
		</g>
	</g>
	<g>
		<path class="st2" d="M486.8,198.5v-3.3h7.2v17.8h-3.8v-14.4H486.8z"/>
		<path class="st2" d="M504.7,212.9v-13.7h3.8v1.5c1.1-1.2,2.2-1.8,3.6-1.8c0.9,0,1.6,0.3,2.3,0.8c0.7,0.5,1.2,1.1,1.6,1.8
			c0.5-0.8,1.2-1.5,2.1-1.9c0.9-0.5,1.8-0.7,2.7-0.7c1.6,0,2.9,0.5,3.9,1.4s1.5,2.3,1.5,4.1v8.3h-3.8v-7.5c0-2.1-0.8-3.2-2.3-3.2
			c-0.8,0-1.4,0.3-2,0.8s-0.8,1.4-0.8,2.4v7.4h-3.8v-7.5c0-1.1-0.2-1.9-0.5-2.4c-0.3-0.5-0.9-0.8-1.6-0.8s-1.4,0.3-2,0.8
			s-0.8,1.4-0.8,2.4v7.4H504.7z"/>
	</g>
	<line class="st1" x1="571.8" y1="248.3" x2="571.8" y2="217"/>
	<line class="st1" x1="184.7" y1="233" x2="441.5" y2="232"/>
	<g>
		<path class="st2" d="M294.4,198.7c0.8-1.3,1.7-2.3,2.7-2.9c1-0.7,2.3-1,3.8-1c1.5,0,2.9,0.5,4,1.5s1.7,2.3,1.7,4
			c0,0.9-0.2,1.8-0.7,2.6c-0.5,0.8-1.3,1.9-2.6,3.2l-3.2,3.3h7v3.5h-12.6V210l5.2-5.3c1.1-1.1,1.8-1.9,2.3-2.5
			c0.4-0.6,0.7-1.2,0.7-1.8s-0.2-1.1-0.6-1.5c-0.4-0.4-0.9-0.6-1.5-0.6c-1.1,0-2.2,0.8-3.2,2.4L294.4,198.7z"/>
		<path class="st2" d="M317.1,212.9v-13.7h3.8v1.5c1.1-1.2,2.2-1.8,3.6-1.8c0.9,0,1.6,0.3,2.3,0.8c0.7,0.5,1.2,1.1,1.6,1.8
			c0.5-0.8,1.2-1.5,2.1-1.9c0.9-0.5,1.8-0.7,2.7-0.7c1.6,0,2.9,0.5,3.9,1.4s1.5,2.3,1.5,4.1v8.3h-3.8v-7.5c0-2.1-0.8-3.2-2.3-3.2
			c-0.8,0-1.4,0.3-2,0.8s-0.8,1.4-0.8,2.4v7.4h-3.8v-7.5c0-1.1-0.2-1.9-0.5-2.4c-0.3-0.5-0.9-0.8-1.6-0.8s-1.4,0.3-2,0.8
			s-0.8,1.4-0.8,2.4v7.4H317.1z"/>
	</g>
	<line class="st1" x1="184.7" y1="248.3" x2="184.7" y2="217"/>
	<path class="st1" d="M571.8,232.4"/>
	<line class="st1" x1="86.3" y1="104.1" x2="605.1" y2="103.8"/>
	<line class="st1" x1="120.5" y1="233.1" x2="184.7" y2="232.9"/>
	<g>
		<g>
			<g>
				<path class="st2" d="M184.5,324.9c0-8.5-7-15.4-15.6-15.4h-35.2c-8.5,0-15.5,6.9-15.6,15.4v47.8c0,3.5,2.8,6.6,6.3,6.7
					c3.7,0.1,6.8-2.8,6.8-6.5c0-0.2,0-48,0-48.2c0.1-1.8,2.8-1.6,2.8,0.2l0,109.9c0,4.4,3.7,8,8.1,7.8c4.2-0.2,7.6-3.8,7.6-8v-62.5
					h3.4v62.5c0,4.2,3.3,7.9,7.6,8c4.5,0.2,8.1-3.4,8.1-7.8v-110c0-1.7,2.8-1.9,2.7,0.1v47.8c0,3.5,2.8,6.6,6.3,6.7
					c3.7,0.1,6.8-2.8,6.8-6.5L184.5,324.9z"/>
			</g>
		</g>
		<g>
			<g>
				<circle class="st2" cx="151.3" cy="291.6" r="13.5"/>
			</g>
		</g>
	</g>
	<line class="st1" x1="118.1" y1="248.3" x2="118.1" y2="217"/>
	<g>
		<path class="st2" d="M123.8,210.6c-1.2-1.7-1.8-3.9-1.8-6.7c0-2.8,0.6-5,1.8-6.7s3-2.5,5.5-2.5s4.3,0.8,5.5,2.5s1.8,3.9,1.8,6.7
			c0,2.8-0.6,5-1.8,6.7c-1.2,1.7-3,2.5-5.5,2.5S125,212.3,123.8,210.6z M126.6,199.7c-0.6,1.1-0.8,2.5-0.8,4.3s0.3,3.2,0.8,4.3
			c0.6,1.1,1.4,1.6,2.6,1.6s2.1-0.5,2.6-1.6c0.6-1.1,0.8-2.5,0.8-4.3s-0.3-3.2-0.8-4.3c-0.6-1.1-1.4-1.6-2.6-1.6
			S127.2,198.6,126.6,199.7z"/>
		<path class="st2" d="M140.1,212.5c-0.4-0.4-0.6-1-0.6-1.6s0.2-1.2,0.6-1.6c0.4-0.4,1-0.6,1.6-0.6c0.6,0,1.2,0.2,1.6,0.6
			c0.4,0.4,0.6,1,0.6,1.6s-0.2,1.2-0.6,1.6c-0.4,0.4-1,0.6-1.6,0.6C141.1,213.1,140.6,212.9,140.1,212.5z"/>
		<path class="st2" d="M146.6,210.5l2.1-2.9c0.2,0.2,0.4,0.3,0.6,0.6c0.3,0.2,0.7,0.5,1.4,0.9c0.7,0.4,1.4,0.5,2,0.5
			s1.3-0.2,1.8-0.6c0.5-0.4,0.8-1,0.8-1.8s-0.3-1.4-0.8-1.9c-0.6-0.4-1.3-0.7-2.2-0.7s-1.9,0.3-3.1,1l-1.7-1.8v-8.7h10.7v3.4h-7v3
			c0.5-0.1,1.1-0.2,1.8-0.2c1.7,0,3.2,0.5,4.4,1.5c1.2,1,1.9,2.4,1.9,4.2s-0.6,3.2-1.9,4.3c-1.3,1.1-2.9,1.7-4.7,1.7
			C150.2,213.1,148.2,212.3,146.6,210.5z"/>
		<path class="st2" d="M169,212.9v-13.7h3.8v1.5c1.1-1.2,2.2-1.8,3.6-1.8c0.9,0,1.6,0.3,2.3,0.8c0.7,0.5,1.2,1.1,1.6,1.8
			c0.5-0.8,1.2-1.5,2.1-1.9c0.9-0.5,1.8-0.7,2.7-0.7c1.6,0,2.9,0.5,3.9,1.4s1.5,2.3,1.5,4.1v8.3h-3.8v-7.5c0-2.1-0.8-3.2-2.3-3.2
			c-0.8,0-1.4,0.3-2,0.8s-0.8,1.4-0.8,2.4v7.4h-3.8v-7.5c0-1.1-0.2-1.9-0.5-2.4c-0.3-0.5-0.9-0.8-1.6-0.8s-1.4,0.3-2,0.8
			s-0.8,1.4-0.8,2.4v7.4H169z"/>
	</g>
	<g>
		<path class="st2" d="M294.4,87.3v-3l6.3-10.5h4.3l-6,10.1h2.5v-3.1h3.8v3.1h2v3.4h-2v4.2h-3.8v-4.2H294.4z"/>
		<path class="st2" d="M316.9,91.5V77.9h3.8v1.5c1.1-1.2,2.2-1.8,3.6-1.8c0.9,0,1.6,0.3,2.3,0.8c0.7,0.5,1.2,1.1,1.6,1.8
			c0.5-0.8,1.2-1.5,2.1-1.9c0.9-0.5,1.8-0.7,2.7-0.7c1.6,0,2.9,0.5,3.9,1.4s1.5,2.3,1.5,4.1v8.3h-3.8V84c0-2.1-0.8-3.2-2.3-3.2
			c-0.8,0-1.4,0.3-2,0.8s-0.8,1.4-0.8,2.4v7.4h-3.8V84c0-1.1-0.2-1.9-0.5-2.4c-0.3-0.5-0.9-0.8-1.6-0.8s-1.4,0.3-2,0.8
			s-0.8,1.4-0.8,2.4v7.4H316.9z"/>
	</g>
	<line class="st1" x1="120.5" y1="154.4" x2="571.8" y2="153.4"/>
	<g>
		<path class="st2" d="M283,144.6l1.6-3.2c1.7,1.2,3.2,1.8,4.5,1.8c0.8,0,1.4-0.2,2-0.6c0.5-0.4,0.8-1,0.8-1.7s-0.3-1.3-0.9-1.8
			c-0.6-0.4-1.4-0.6-2.5-0.6c-0.6,0-1.3,0.2-2.4,0.5v-2.9l3.4-4H284v-3.3h10.8v2.7l-3.6,4.1c1.4,0.2,2.5,0.8,3.3,1.8
			s1.2,2.1,1.2,3.3c0,1.9-0.6,3.3-1.9,4.4c-1.3,1.1-2.9,1.6-4.8,1.6C287,146.6,285,146,283,144.6z"/>
		<path class="st2" d="M298.4,149l0.9-2.8c-0.6-0.4-0.8-1-0.8-1.6c0-0.7,0.2-1.2,0.7-1.7s1-0.6,1.6-0.6s1.1,0.2,1.6,0.6
			c0.4,0.4,0.7,0.9,0.7,1.5s-0.2,1.3-0.7,2l-1.5,2.6H298.4z"/>
		<path class="st2" d="M305.9,144l2.1-2.9c0.2,0.2,0.4,0.3,0.6,0.6c0.3,0.2,0.7,0.5,1.4,0.9c0.7,0.4,1.4,0.5,2,0.5s1.3-0.2,1.8-0.6
			c0.5-0.4,0.8-1,0.8-1.8s-0.3-1.4-0.8-1.9c-0.6-0.4-1.3-0.7-2.2-0.7s-1.9,0.3-3.1,1l-1.7-1.8v-8.7h10.7v3.4h-7v3
			c0.5-0.1,1.1-0.2,1.8-0.2c1.7,0,3.2,0.5,4.4,1.5c1.2,1,1.9,2.4,1.9,4.2s-0.6,3.2-1.9,4.3c-1.3,1.1-2.9,1.7-4.7,1.7
			C309.5,146.6,307.5,145.8,305.9,144z"/>
		<path class="st2" d="M328.3,146.4v-13.7h3.8v1.5c1.1-1.2,2.2-1.8,3.6-1.8c0.9,0,1.6,0.3,2.3,0.8c0.7,0.5,1.2,1.1,1.6,1.8
			c0.5-0.8,1.2-1.5,2.1-1.9c0.9-0.5,1.8-0.7,2.7-0.7c1.6,0,2.9,0.5,3.9,1.4s1.5,2.3,1.5,4.1v8.3H346V139c0-2.1-0.8-3.2-2.3-3.2
			c-0.8,0-1.4,0.3-2,0.8s-0.8,1.4-0.8,2.4v7.4H337V139c0-1.1-0.2-1.9-0.5-2.4c-0.3-0.5-0.9-0.8-1.6-0.8s-1.4,0.3-2,0.8
			s-0.8,1.4-0.8,2.4v7.4H328.3z"/>
	</g>
	<line class="st1" x1="571.8" y1="169.5" x2="571.8" y2="138.2"/>
	<line class="st1" x1="118.1" y1="169.5" x2="118.1" y2="138.2"/>
	<line class="st1" x1="605.1" y1="119.6" x2="605.1" y2="88.3"/>
	<line class="st1" x1="86.3" y1="119.6" x2="86.3" y2="88.3"/>
	<rect x="184.7" y="445.9" class="st3" width="258" height="22"/>
	<g>
		<g>
			<path class="st2" d="M215.2,494.5c-0.9-1-1.3-2.2-1.3-3.6c0-1.4,0.4-2.6,1.3-3.5c0.9-0.9,1.9-1.4,3-1.4s2.1,0.4,2.9,1.2v-4.7h2.7
				v13.2h-2.7v-1.3c-0.7,0.9-1.7,1.4-2.8,1.4l0,0C217.1,495.9,216.1,495.4,215.2,494.5z M217.2,489.1c-0.5,0.5-0.7,1.2-0.7,1.9
				c0,0.8,0.2,1.4,0.7,1.9c0.5,0.5,1,0.7,1.6,0.7c0.6,0,1.1-0.2,1.6-0.7c0.4-0.5,0.6-1.1,0.6-1.9c0-0.8-0.2-1.4-0.6-1.9
				c-0.4-0.5-1-0.8-1.6-0.8S217.7,488.6,217.2,489.1z"/>
			<path class="st2" d="M226.5,485c-0.3-0.3-0.5-0.7-0.5-1.1s0.2-0.8,0.5-1.1c0.3-0.3,0.7-0.5,1.1-0.5c0.4,0,0.8,0.2,1.1,0.5
				c0.3,0.3,0.5,0.7,0.5,1.1s-0.2,0.8-0.5,1.1c-0.3,0.3-0.7,0.5-1.1,0.5C227.2,485.4,226.8,485.3,226.5,485z M226.3,495.8v-9.6h2.7
				v9.6H226.3z"/>
			<path class="st2" d="M230.7,494.5l1.2-1.6c1,0.8,2.1,1.1,3.2,1.1c0.3,0,0.6-0.1,0.8-0.2c0.2-0.1,0.3-0.3,0.3-0.5
				s-0.1-0.4-0.4-0.6c-0.3-0.2-0.7-0.4-1.2-0.5s-0.9-0.3-1.2-0.4c-0.3-0.1-0.6-0.3-1-0.5c-0.7-0.4-1.1-1.1-1.1-2s0.4-1.6,1.1-2.2
				c0.7-0.6,1.6-0.9,2.8-0.9c1.1,0,2.2,0.4,3.4,1.2l-1,1.8c-0.8-0.6-1.7-0.8-2.5-0.8c0,0,0,0,0,0c-0.8,0-1.2,0.2-1.2,0.7
				c0,0.2,0.1,0.4,0.4,0.6c0.3,0.1,0.7,0.3,1.3,0.5c0.6,0.2,1,0.3,1.3,0.4c0.3,0.1,0.6,0.3,0.9,0.5c0.7,0.4,1,1.1,1,2
				s-0.3,1.7-1,2.2c-0.7,0.5-1.6,0.8-2.6,0.8c-0.7,0-1.5-0.1-2.2-0.4C232,495.3,231.3,495,230.7,494.5z"/>
			<path class="st2" d="M240,488.1v-1.9h1.1v-2.9h2.7v2.9h2.3v1.9h-2.3v4.3c0,0.4,0.1,0.7,0.3,0.9c0.2,0.2,0.4,0.3,0.7,0.3
				c0.5,0,0.9-0.2,1.3-0.7l1,1.9c-0.8,0.8-1.7,1.1-2.6,1.1c-0.9,0-1.7-0.3-2.3-0.9c-0.6-0.6-0.9-1.4-0.9-2.5v-4.4H240z"/>
			<path class="st2" d="M249,495c-0.7-0.6-1-1.4-1-2.3c0-1,0.4-1.7,1.1-2.2c0.7-0.5,1.7-0.7,2.9-0.7h2v0c0-1-0.5-1.5-1.6-1.5
				c-0.5,0-1,0.1-1.5,0.3c-0.5,0.2-1,0.4-1.3,0.6l-1.2-1.7c1.3-0.9,2.7-1.4,4.3-1.4c0,0,0,0,0,0c1.2,0,2.1,0.3,2.8,0.9
				c0.7,0.6,1.1,1.5,1.1,2.8v6.1h-2.5v-1.2c-0.7,0.9-1.5,1.3-2.5,1.3l0,0C250.5,495.9,249.7,495.6,249,495z M250.6,492.7
				c0,0.3,0.1,0.6,0.4,0.8c0.3,0.2,0.6,0.3,1.1,0.3c0.5,0,0.9-0.1,1.3-0.4c0.4-0.3,0.5-0.7,0.5-1.2v-0.5h-1.7
				C251.2,491.7,250.6,492,250.6,492.7z"/>
			<path class="st2" d="M259,495.8v-9.6h2.7v1.1c0.8-0.9,1.7-1.3,2.7-1.3c1,0,1.9,0.4,2.5,1.1c0.7,0.7,1,1.7,1,2.8v5.8h-2.7v-5.3
				c0-1.5-0.5-2.2-1.6-2.2c-0.5,0-1,0.2-1.4,0.6c-0.4,0.4-0.6,0.9-0.6,1.7v5.3H259z"/>
			<path class="st2" d="M271.3,494.6c-1-0.9-1.5-2.1-1.5-3.6c0-1.5,0.5-2.7,1.5-3.6c1-0.9,2.2-1.4,3.6-1.4c0.7,0,1.4,0.1,2.1,0.4
				s1.3,0.7,1.9,1.3l-1.4,1.8c-0.3-0.4-0.7-0.7-1.1-0.9c-0.4-0.2-0.9-0.3-1.3-0.3c-0.7,0-1.3,0.2-1.8,0.7c-0.5,0.5-0.8,1.1-0.8,1.9
				c0,0.8,0.3,1.4,0.8,1.9c0.5,0.5,1.1,0.7,1.8,0.7c0.9,0,1.7-0.4,2.4-1.3l1.6,1.8c-1.2,1.3-2.6,1.9-4,1.9S272.3,495.5,271.3,494.6z
				"/>
			<path class="st2" d="M281,485c-0.3-0.3-0.5-0.7-0.5-1.1s0.2-0.8,0.5-1.1c0.3-0.3,0.7-0.5,1.1-0.5c0.4,0,0.8,0.2,1.1,0.5
				c0.3,0.3,0.5,0.7,0.5,1.1s-0.2,0.8-0.5,1.1c-0.3,0.3-0.7,0.5-1.1,0.5C281.7,485.4,281.3,485.3,281,485z M280.8,495.8v-9.6h2.7
				v9.6H280.8z"/>
			<path class="st2" d="M286.5,495c-0.7-0.6-1-1.4-1-2.3c0-1,0.4-1.7,1.1-2.2c0.7-0.5,1.7-0.7,2.9-0.7h2v0c0-1-0.5-1.5-1.6-1.5
				c-0.5,0-1,0.1-1.5,0.3c-0.5,0.2-1,0.4-1.3,0.6l-1.2-1.7c1.3-0.9,2.7-1.4,4.3-1.4c0,0,0,0,0,0c1.2,0,2.1,0.3,2.8,0.9
				c0.7,0.6,1.1,1.5,1.1,2.8v6.1h-2.5v-1.2c-0.7,0.9-1.5,1.3-2.5,1.3l0,0C288,495.9,287.2,495.6,286.5,495z M288.1,492.7
				c0,0.3,0.1,0.6,0.4,0.8c0.3,0.2,0.6,0.3,1.1,0.3c0.5,0,0.9-0.1,1.3-0.4c0.4-0.3,0.5-0.7,0.5-1.2v-0.5h-1.7
				C288.7,491.7,288.1,492,288.1,492.7z"/>
			<path class="st2" d="M301.2,495.8v-9.6h2.7v1.2c0.3-0.4,0.8-0.7,1.3-1s1-0.4,1.6-0.4l0,2.5h-0.5c-0.8,0-1.4,0.3-1.8,0.8
				c-0.4,0.6-0.6,1.3-0.6,2.2v4.2H301.2z"/>
			<path class="st2" d="M309.4,494.6c-1-0.9-1.4-2.1-1.4-3.6s0.5-2.7,1.5-3.6s2.1-1.3,3.4-1.3s2.4,0.4,3.4,1.2s1.4,1.9,1.4,3.3v1.4
				h-7c0.1,0.5,0.4,0.9,0.8,1.3c0.5,0.3,1,0.5,1.6,0.5c0.9,0,1.7-0.3,2.3-0.9l1.5,1.6c-1.1,1-2.3,1.5-3.8,1.5
				S310.4,495.5,309.4,494.6z M310.7,490h4.2c-0.1-0.6-0.3-1-0.6-1.3c-0.4-0.3-0.8-0.5-1.3-0.5s-1,0.2-1.4,0.5
				C311,489.1,310.8,489.5,310.7,490z"/>
			<path class="st2" d="M320.5,494.6c-1-0.9-1.5-2.1-1.5-3.6c0-1.5,0.5-2.7,1.5-3.6c1-0.9,2.2-1.4,3.6-1.4c0.7,0,1.4,0.1,2.1,0.4
				s1.3,0.7,1.9,1.3l-1.4,1.8c-0.3-0.4-0.7-0.7-1.1-0.9c-0.4-0.2-0.9-0.3-1.3-0.3c-0.7,0-1.3,0.2-1.8,0.7c-0.5,0.5-0.8,1.1-0.8,1.9
				c0,0.8,0.3,1.4,0.8,1.9c0.5,0.5,1.1,0.7,1.8,0.7c0.9,0,1.7-0.4,2.4-1.3l1.6,1.8c-1.2,1.3-2.6,1.9-4,1.9S321.5,495.5,320.5,494.6z
				"/>
			<path class="st2" d="M330.6,494.5c-1-0.9-1.4-2.1-1.4-3.5c0-1.4,0.5-2.6,1.4-3.5c1-1,2.2-1.4,3.6-1.4c1.5,0,2.7,0.5,3.6,1.4
				c1,1,1.4,2.1,1.4,3.5c0,1.4-0.5,2.6-1.4,3.5c-1,0.9-2.2,1.4-3.6,1.4C332.8,495.9,331.6,495.5,330.6,494.5z M332.5,489.1
				c-0.4,0.5-0.7,1.1-0.7,1.9c0,0.8,0.2,1.4,0.7,1.9c0.4,0.5,1,0.7,1.7,0.7c0.7,0,1.3-0.2,1.7-0.7c0.4-0.5,0.7-1.1,0.7-1.9
				c0-0.8-0.2-1.4-0.7-1.9c-0.4-0.5-1-0.7-1.7-0.7C333.5,488.3,333,488.6,332.5,489.1z"/>
			<path class="st2" d="M341.3,495.8v-9.6h2.7v1.1c0.7-0.8,1.6-1.2,2.5-1.2c0.6,0,1.1,0.2,1.6,0.5c0.5,0.4,0.9,0.8,1.1,1.3
				c0.4-0.6,0.9-1,1.5-1.3s1.3-0.5,1.9-0.5c1.1,0,2,0.3,2.7,1c0.7,0.7,1,1.6,1,2.9v5.8h-2.7v-5.2c0-1.5-0.5-2.2-1.6-2.2
				c-0.5,0-1,0.2-1.4,0.6c-0.4,0.4-0.6,1-0.6,1.7v5.2h-2.7v-5.2c0-0.8-0.1-1.3-0.3-1.7c-0.2-0.4-0.6-0.5-1.1-0.5
				c-0.5,0-1,0.2-1.4,0.6c-0.4,0.4-0.6,1-0.6,1.7v5.2H341.3z"/>
			<path class="st2" d="M359.7,494.6c-1-0.9-1.4-2.1-1.4-3.6s0.5-2.7,1.5-3.6s2.1-1.3,3.4-1.3s2.4,0.4,3.4,1.2
				c0.9,0.8,1.4,1.9,1.4,3.3v1.4h-7c0.1,0.5,0.4,0.9,0.8,1.3s1,0.5,1.6,0.5c0.9,0,1.7-0.3,2.3-0.9l1.5,1.6c-1.1,1-2.3,1.5-3.8,1.5
				C361.8,495.9,360.6,495.5,359.7,494.6z M360.9,490h4.2c-0.1-0.6-0.3-1-0.6-1.3c-0.4-0.3-0.8-0.5-1.3-0.5s-1,0.2-1.4,0.5
				C361.3,489.1,361,489.5,360.9,490z"/>
			<path class="st2" d="M369.8,495.8v-9.6h2.7v1.1c0.8-0.9,1.7-1.3,2.7-1.3s1.9,0.4,2.5,1.1c0.7,0.7,1,1.7,1,2.8v5.8h-2.7v-5.3
				c0-1.5-0.5-2.2-1.6-2.2c-0.5,0-1,0.2-1.4,0.6c-0.4,0.4-0.6,0.9-0.6,1.7v5.3H369.8z"/>
			<path class="st2" d="M381.9,494.5c-0.9-1-1.3-2.2-1.3-3.6c0-1.4,0.4-2.6,1.3-3.5c0.9-0.9,1.9-1.4,3-1.4s2.1,0.4,2.9,1.2v-4.7h2.7
				v13.2h-2.7v-1.3c-0.7,0.9-1.7,1.4-2.8,1.4l0,0C383.8,495.9,382.8,495.4,381.9,494.5z M384,489.1c-0.5,0.5-0.7,1.2-0.7,1.9
				c0,0.8,0.2,1.4,0.7,1.9c0.5,0.5,1,0.7,1.6,0.7s1.1-0.2,1.6-0.7c0.4-0.5,0.6-1.1,0.6-1.9c0-0.8-0.2-1.4-0.6-1.9
				c-0.4-0.5-1-0.8-1.6-0.8S384.4,488.6,384,489.1z"/>
			<path class="st2" d="M393.5,495c-0.7-0.6-1-1.4-1-2.3c0-1,0.4-1.7,1.1-2.2c0.7-0.5,1.7-0.7,2.9-0.7h2v0c0-1-0.5-1.5-1.6-1.5
				c-0.5,0-1,0.1-1.5,0.3c-0.5,0.2-1,0.4-1.3,0.6l-1.2-1.7c1.3-0.9,2.7-1.4,4.3-1.4c0,0,0,0,0,0c1.2,0,2.1,0.3,2.8,0.9
				c0.7,0.6,1.1,1.5,1.1,2.8v6.1h-2.5v-1.2c-0.7,0.9-1.5,1.3-2.5,1.3l0,0C395,495.9,394.2,495.6,393.5,495z M395.2,492.7
				c0,0.3,0.1,0.6,0.4,0.8c0.3,0.2,0.6,0.3,1.1,0.3s0.9-0.1,1.3-0.4c0.4-0.3,0.5-0.7,0.5-1.2v-0.5h-1.7
				C395.7,491.7,395.2,492,395.2,492.7z"/>
			<path class="st2" d="M404.4,494.5c-0.9-1-1.3-2.2-1.3-3.6c0-1.4,0.4-2.6,1.3-3.5s1.9-1.4,3-1.4s2.1,0.4,2.9,1.2v-4.7h2.7v13.2
				h-2.7v-1.3c-0.7,0.9-1.7,1.4-2.8,1.4l0,0C406.3,495.9,405.2,495.4,404.4,494.5z M406.4,489.1c-0.5,0.5-0.7,1.2-0.7,1.9
				c0,0.8,0.2,1.4,0.7,1.9c0.5,0.5,1,0.7,1.6,0.7s1.1-0.2,1.6-0.7c0.4-0.5,0.6-1.1,0.6-1.9c0-0.8-0.2-1.4-0.6-1.9
				c-0.4-0.5-1-0.8-1.6-0.8S406.8,488.6,406.4,489.1z"/>
			<path class="st2" d="M415.9,495c-0.7-0.6-1-1.4-1-2.3c0-1,0.4-1.7,1.1-2.2c0.7-0.5,1.7-0.7,2.9-0.7h2v0c0-1-0.5-1.5-1.6-1.5
				c-0.5,0-1,0.1-1.5,0.3c-0.5,0.2-1,0.4-1.3,0.6l-1.2-1.7c1.3-0.9,2.7-1.4,4.3-1.4c0,0,0,0,0,0c1.2,0,2.1,0.3,2.8,0.9
				c0.7,0.6,1.1,1.5,1.1,2.8v6.1H421v-1.2c-0.7,0.9-1.5,1.3-2.5,1.3l0,0C417.5,495.9,416.6,495.6,415.9,495z M417.6,492.7
				c0,0.3,0.1,0.6,0.4,0.8c0.3,0.2,0.6,0.3,1.1,0.3s0.9-0.1,1.3-0.4c0.4-0.3,0.5-0.7,0.5-1.2v-0.5h-1.7
				C418.1,491.7,417.6,492,417.6,492.7z"/>
		</g>
	</g>
	<rect x="442.7" y="445.9" class="st4" width="128.4" height="22"/>
	<rect x="120.5" y="445.9" class="st4" width="64.2" height="22"/>
	<g>
		<g>
			<path class="st2" d="M459.3,495.8v-9.6h2.7v1.1c0.8-0.9,1.7-1.3,2.7-1.3c1,0,1.9,0.4,2.5,1.1c0.7,0.7,1,1.7,1,2.8v5.8h-2.7v-5.3
				c0-1.5-0.5-2.2-1.6-2.2c-0.5,0-1,0.2-1.4,0.6c-0.4,0.4-0.6,0.9-0.6,1.7v5.3H459.3z"/>
			<path class="st2" d="M470.9,485c-0.3-0.3-0.5-0.7-0.5-1.1s0.2-0.8,0.5-1.1c0.3-0.3,0.7-0.5,1.1-0.5s0.8,0.2,1.1,0.5
				c0.3,0.3,0.5,0.7,0.5,1.1s-0.2,0.8-0.5,1.1c-0.3,0.3-0.7,0.5-1.1,0.5S471.2,485.3,470.9,485z M470.7,495.8v-9.6h2.7v9.6H470.7z"
				/>
			<path class="st2" d="M475.9,495.8v-9.6h2.7v1.1c0.8-0.9,1.7-1.3,2.7-1.3c1,0,1.9,0.4,2.5,1.1c0.7,0.7,1,1.7,1,2.8v5.8h-2.7v-5.3
				c0-1.5-0.5-2.2-1.6-2.2c-0.5,0-1,0.2-1.4,0.6c-0.4,0.4-0.6,0.9-0.6,1.7v5.3H475.9z M477,484.9c0-0.9,0.2-1.6,0.6-2.1
				c0.4-0.5,0.9-0.8,1.5-0.8c0.4,0,0.8,0.2,1.4,0.5s0.9,0.5,1,0.5c0.4,0,0.5-0.3,0.5-0.9h1.9c0,0.9-0.2,1.6-0.6,2.1
				c-0.4,0.5-0.9,0.8-1.5,0.8c-0.4,0-0.8-0.2-1.4-0.5s-0.9-0.5-1-0.5c-0.4,0-0.5,0.3-0.5,0.9H477z"/>
			<path class="st2" d="M488.1,494.5c-1-0.9-1.4-2.1-1.4-3.5c0-1.4,0.5-2.6,1.4-3.5s2.2-1.4,3.6-1.4s2.7,0.5,3.6,1.4
				c1,1,1.4,2.1,1.4,3.5c0,1.4-0.5,2.6-1.4,3.5c-1,0.9-2.2,1.4-3.6,1.4S489.1,495.5,488.1,494.5z M490.1,489.1
				c-0.4,0.5-0.7,1.1-0.7,1.9c0,0.8,0.2,1.4,0.7,1.9c0.4,0.5,1,0.7,1.7,0.7c0.7,0,1.3-0.2,1.7-0.7c0.4-0.5,0.7-1.1,0.7-1.9
				c0-0.8-0.2-1.4-0.7-1.9c-0.4-0.5-1-0.7-1.7-0.7C491.1,488.3,490.5,488.6,490.1,489.1z"/>
			<path class="st2" d="M498.7,491.6v-2.3h6.3v2.3H498.7z"/>
			<path class="st2" d="M508,495c-0.7-0.6-1-1.4-1-2.3c0-1,0.4-1.7,1.1-2.2c0.7-0.5,1.7-0.7,2.9-0.7h2v0c0-1-0.5-1.5-1.6-1.5
				c-0.5,0-1,0.1-1.5,0.3c-0.5,0.2-1,0.4-1.3,0.6l-1.2-1.7c1.3-0.9,2.7-1.4,4.3-1.4c0,0,0,0,0,0c1.2,0,2.1,0.3,2.8,0.9
				c0.7,0.6,1.1,1.5,1.1,2.8v6.1h-2.5v-1.2c-0.7,0.9-1.5,1.3-2.5,1.3l0,0C509.6,495.9,508.7,495.6,508,495z M509.7,492.7
				c0,0.3,0.1,0.6,0.4,0.8c0.3,0.2,0.6,0.3,1.1,0.3s0.9-0.1,1.3-0.4c0.4-0.3,0.5-0.7,0.5-1.2v-0.5h-1.7
				C510.2,491.7,509.7,492,509.7,492.7z"/>
			<path class="st2" d="M518.9,494.5c-0.9-1-1.3-2.2-1.3-3.6c0-1.4,0.4-2.6,1.3-3.5s1.9-1.4,3-1.4s2.1,0.4,2.9,1.2v-4.7h2.7v13.2
				h-2.7v-1.3c-0.7,0.9-1.7,1.4-2.8,1.4l0,0C520.8,495.9,519.8,495.4,518.9,494.5z M520.9,489.1c-0.5,0.5-0.7,1.2-0.7,1.9
				c0,0.8,0.2,1.4,0.7,1.9c0.5,0.5,1,0.7,1.6,0.7s1.1-0.2,1.6-0.7c0.4-0.5,0.6-1.1,0.6-1.9c0-0.8-0.2-1.4-0.6-1.9
				c-0.4-0.5-1-0.8-1.6-0.8S521.4,488.6,520.9,489.1z"/>
			<path class="st2" d="M529.8,492v-5.8h2.7v5.2c0,1.5,0.5,2.2,1.6,2.2c0.5,0,1-0.2,1.4-0.6s0.6-0.9,0.6-1.7v-5.2h2.7v9.6h-2.7v-1.2
				c-0.7,0.9-1.5,1.4-2.6,1.4l0,0c-1,0-1.9-0.3-2.6-1C530.2,494.3,529.8,493.3,529.8,492z"/>
			<path class="st2" d="M541.3,495.8v-13.2h2.7v13.2H541.3z"/>
			<path class="st2" d="M545.9,488.1v-1.9h1.1v-2.9h2.7v2.9h2.3v1.9h-2.3v4.3c0,0.4,0.1,0.7,0.3,0.9c0.2,0.2,0.4,0.3,0.7,0.3
				c0.5,0,0.9-0.2,1.3-0.7l1,1.9c-0.8,0.8-1.7,1.1-2.6,1.1s-1.7-0.3-2.3-0.9c-0.6-0.6-0.9-1.4-0.9-2.5v-4.4H545.9z"/>
			<path class="st2" d="M555.1,494.5c-1-0.9-1.4-2.1-1.4-3.5c0-1.4,0.5-2.6,1.4-3.5s2.2-1.4,3.6-1.4s2.7,0.5,3.6,1.4
				c1,1,1.4,2.1,1.4,3.5c0,1.4-0.5,2.6-1.4,3.5c-1,0.9-2.2,1.4-3.6,1.4S556.1,495.5,555.1,494.5z M557.1,489.1
				c-0.4,0.5-0.7,1.1-0.7,1.9c0,0.8,0.2,1.4,0.7,1.9c0.4,0.5,1,0.7,1.7,0.7c0.7,0,1.3-0.2,1.7-0.7c0.4-0.5,0.7-1.1,0.7-1.9
				c0-0.8-0.2-1.4-0.7-1.9c-0.4-0.5-1-0.7-1.7-0.7C558.1,488.3,557.5,488.6,557.1,489.1z"/>
		</g>
	</g>
	<g>
		<g>
			<path class="st2" d="M122.3,495c-0.7-0.6-1-1.4-1-2.3s0.4-1.7,1.1-2.2c0.7-0.5,1.7-0.7,2.9-0.7h2v0c0-1-0.5-1.5-1.6-1.5
				c-0.5,0-1,0.1-1.5,0.3c-0.5,0.2-1,0.4-1.3,0.6l-1.2-1.7c1.3-0.9,2.7-1.4,4.3-1.4c0,0,0,0,0,0c1.2,0,2.1,0.3,2.8,0.9
				c0.7,0.6,1.1,1.5,1.1,2.8v6.1h-2.5v-1.2c-0.7,0.9-1.5,1.3-2.5,1.3l0,0C123.8,495.9,122.9,495.6,122.3,495z M123.9,492.7
				c0,0.3,0.1,0.6,0.4,0.8c0.3,0.2,0.6,0.3,1.1,0.3c0.5,0,0.9-0.1,1.3-0.4c0.4-0.3,0.5-0.7,0.5-1.2v-0.5h-1.7
				C124.4,491.7,123.9,492,123.9,492.7z"/>
			<path class="st2" d="M133.1,494.5c-0.9-1-1.3-2.2-1.3-3.6c0-1.4,0.4-2.6,1.3-3.5c0.9-0.9,1.9-1.4,3-1.4s2.1,0.4,2.9,1.2v-4.7h2.7
				v13.2H139v-1.3c-0.7,0.9-1.7,1.4-2.8,1.4l0,0C135,495.9,134,495.4,133.1,494.5z M135.1,489.1c-0.5,0.5-0.7,1.2-0.7,1.9
				s0.2,1.4,0.7,1.9c0.5,0.5,1,0.7,1.6,0.7c0.6,0,1.1-0.2,1.6-0.7s0.6-1.1,0.6-1.9c0-0.8-0.2-1.4-0.6-1.9s-1-0.8-1.6-0.8
				S135.6,488.6,135.1,489.1z"/>
			<path class="st2" d="M144,492v-5.8h2.7v5.2c0,1.5,0.5,2.2,1.6,2.2c0.5,0,1-0.2,1.4-0.6s0.6-0.9,0.6-1.7v-5.2h2.7v9.6h-2.7v-1.2
				c-0.7,0.9-1.5,1.4-2.6,1.4l0,0c-1,0-1.9-0.3-2.6-1C144.4,494.3,144,493.3,144,492z"/>
			<path class="st2" d="M155.5,495.8v-13.2h2.7v13.2H155.5z"/>
			<path class="st2" d="M160.1,488.1v-1.9h1.1v-2.9h2.7v2.9h2.3v1.9h-2.3v4.3c0,0.4,0.1,0.7,0.3,0.9c0.2,0.2,0.4,0.3,0.7,0.3
				c0.5,0,0.9-0.2,1.3-0.7l1,1.9c-0.8,0.8-1.7,1.1-2.6,1.1c-0.9,0-1.7-0.3-2.3-0.9c-0.6-0.6-0.9-1.4-0.9-2.5v-4.4H160.1z"/>
			<path class="st2" d="M169.4,494.5c-1-0.9-1.4-2.1-1.4-3.5s0.5-2.6,1.4-3.5c1-1,2.2-1.4,3.6-1.4c1.5,0,2.7,0.5,3.6,1.4
				c1,1,1.4,2.1,1.4,3.5s-0.5,2.6-1.4,3.5c-1,0.9-2.2,1.4-3.6,1.4C171.5,495.9,170.3,495.5,169.4,494.5z M171.3,489.1
				c-0.4,0.5-0.7,1.1-0.7,1.9s0.2,1.4,0.7,1.9s1,0.7,1.7,0.7c0.7,0,1.3-0.2,1.7-0.7s0.7-1.1,0.7-1.9s-0.2-1.4-0.7-1.9
				c-0.4-0.5-1-0.7-1.7-0.7C172.3,488.3,171.7,488.6,171.3,489.1z"/>
		</g>
	</g>
	<rect x="88.6" y="445.9" class="st5" width="32.1" height="22"/>
	<rect x="571.1" y="445.9" class="st5" width="32.1" height="22"/>
</g>
</svg>
