<?xml version="1.0" encoding="utf-8"?>
<!-- Generator: Adobe Illustrator 24.1.0, SVG Export Plug-In . SVG Version: 6.00 Build 0)  -->
<svg version="1.1" id="Capa_1" xmlns="http://www.w3.org/2000/svg" xmlns:xlink="http://www.w3.org/1999/xlink" x="0px" y="0px"
	 viewBox="0 0 724.1 569.7" style="enable-background:new 0 0 724.1 569.7;" xml:space="preserve">
<style type="text/css">
	.st0{fill:none;stroke:#FFFFFF;stroke-miterlimit:10;stroke-dasharray:6,6,6,6,6,6;}
	.st1{fill:none;stroke:#FFFFFF;stroke-width:3;stroke-miterlimit:10;}
	.st2{fill:#FFFFFF;}
	.st3{fill:#9A326D;}
	.st4{fill:#A1DE8C;}
	.st5{fill:#D768A7;}
</style>
<g>
	<path class="st0" d="M626.4,232.1"/>
	<line class="st1" x1="103.2" y1="444.1" x2="553.7" y2="445.9"/>
	<line class="st0" x1="457.3" y1="248.3" x2="457.3" y2="217"/>
	<line class="st0" x1="199.3" y1="233" x2="456.1" y2="232"/>
	<g>
		<path class="st2" d="M304.9,198.7c0.8-1.3,1.7-2.3,2.7-2.9c1-0.7,2.3-1,3.8-1c1.5,0,2.9,0.5,4,1.5s1.7,2.3,1.7,4
			c0,0.9-0.2,1.8-0.7,2.6c-0.5,0.8-1.3,1.9-2.6,3.2l-3.2,3.3h7v3.5h-12.6V210l5.2-5.3c1.1-1.1,1.8-1.9,2.3-2.5
			c0.4-0.6,0.7-1.2,0.7-1.8s-0.2-1.1-0.6-1.5c-0.4-0.4-0.9-0.6-1.5-0.6c-1.1,0-2.2,0.8-3.2,2.4L304.9,198.7z"/>
		<path class="st2" d="M327.6,212.9v-13.7h3.8v1.5c1.1-1.2,2.2-1.8,3.6-1.8c0.9,0,1.6,0.3,2.3,0.8c0.7,0.5,1.2,1.1,1.6,1.8
			c0.5-0.8,1.2-1.5,2.1-1.9c0.9-0.5,1.8-0.7,2.7-0.7c1.6,0,2.9,0.5,3.9,1.4s1.5,2.3,1.5,4.1v8.3h-3.8v-7.5c0-2.1-0.8-3.2-2.3-3.2
			c-0.8,0-1.4,0.3-2,0.8s-0.8,1.4-0.8,2.4v7.4h-3.8v-7.5c0-1.1-0.2-1.9-0.5-2.4c-0.3-0.5-0.9-0.8-1.6-0.8s-1.4,0.3-2,0.8
			s-0.8,1.4-0.8,2.4v7.4H327.6z"/>
	</g>
	<path class="st0" d="M586.4,232.4"/>
	<line class="st0" x1="100.9" y1="104.1" x2="555.7" y2="103.8"/>
	<g>
		<path class="st2" d="M294.5,89.6l1.6-3.2c1.7,1.2,3.2,1.8,4.5,1.8c0.8,0,1.4-0.2,2-0.6c0.5-0.4,0.8-1,0.8-1.7s-0.3-1.3-0.9-1.8
			c-0.6-0.4-1.4-0.6-2.5-0.6c-0.6,0-1.3,0.2-2.4,0.5v-2.9l3.4-4h-5.6v-3.3h10.8v2.7l-3.6,4.1c1.4,0.2,2.5,0.8,3.3,1.8
			s1.2,2.1,1.2,3.3c0,1.9-0.6,3.3-1.9,4.4c-1.3,1.1-2.9,1.6-4.8,1.6C298.5,91.7,296.5,91,294.5,89.6z"/>
		<path class="st2" d="M309.9,94l0.9-2.8c-0.6-0.4-0.8-1-0.8-1.6c0-0.7,0.2-1.2,0.7-1.7s1-0.6,1.6-0.6s1.1,0.2,1.6,0.6
			c0.4,0.4,0.7,0.9,0.7,1.5s-0.2,1.3-0.7,2l-1.5,2.6H309.9z"/>
		<path class="st2" d="M317.3,89.1l2.1-2.9c0.2,0.2,0.4,0.3,0.6,0.6c0.3,0.2,0.7,0.5,1.4,0.9c0.7,0.4,1.4,0.5,2,0.5s1.3-0.2,1.8-0.6
			c0.5-0.4,0.8-1,0.8-1.8s-0.3-1.4-0.8-1.9c-0.6-0.4-1.3-0.7-2.2-0.7s-1.9,0.3-3.1,1l-1.7-1.8v-8.7h10.7v3.4h-7v3
			c0.5-0.1,1.1-0.2,1.8-0.2c1.7,0,3.2,0.5,4.4,1.5c1.2,1,1.9,2.4,1.9,4.2s-0.6,3.2-1.9,4.3c-1.3,1.1-2.9,1.7-4.7,1.7
			C321,91.7,319,90.8,317.3,89.1z"/>
		<path class="st2" d="M339.7,91.5V77.9h3.8v1.5c1.1-1.2,2.2-1.8,3.6-1.8c0.9,0,1.6,0.3,2.3,0.8c0.7,0.5,1.2,1.1,1.6,1.8
			c0.5-0.8,1.2-1.5,2.1-1.9c0.9-0.5,1.8-0.7,2.7-0.7c1.6,0,2.9,0.5,3.9,1.4s1.5,2.3,1.5,4.1v8.3h-3.8V84c0-2.1-0.8-3.2-2.3-3.2
			c-0.8,0-1.4,0.3-2,0.8s-0.8,1.4-0.8,2.4v7.4h-3.8V84c0-1.1-0.2-1.9-0.5-2.4c-0.3-0.5-0.9-0.8-1.6-0.8s-1.4,0.3-2,0.8
			s-0.8,1.4-0.8,2.4v7.4H339.7z"/>
	</g>
	<line class="st0" x1="132.1" y1="154.4" x2="524.4" y2="153.4"/>
	<g>
		<path class="st2" d="M308.1,144.6l1.6-3.2c1.7,1.2,3.2,1.8,4.5,1.8c0.8,0,1.4-0.2,2-0.6c0.5-0.4,0.8-1,0.8-1.7s-0.3-1.3-0.9-1.8
			c-0.6-0.4-1.4-0.6-2.5-0.6c-0.6,0-1.3,0.2-2.4,0.5v-2.9l3.4-4h-5.6v-3.3H320v2.7l-3.6,4.1c1.4,0.2,2.5,0.8,3.3,1.8
			s1.2,2.1,1.2,3.3c0,1.9-0.6,3.3-1.9,4.4c-1.3,1.1-2.9,1.6-4.8,1.6C312.1,146.6,310.2,146,308.1,144.6z"/>
		<path class="st2" d="M324,146.4v-13.7h3.8v1.5c1.1-1.2,2.2-1.8,3.6-1.8c0.9,0,1.6,0.3,2.3,0.8c0.7,0.5,1.2,1.1,1.6,1.8
			c0.5-0.8,1.2-1.5,2.1-1.9c0.9-0.5,1.8-0.7,2.7-0.7c1.6,0,2.9,0.5,3.9,1.4s1.5,2.3,1.5,4.1v8.3h-3.8V139c0-2.1-0.8-3.2-2.3-3.2
			c-0.8,0-1.4,0.3-2,0.8s-0.8,1.4-0.8,2.4v7.4h-3.8V139c0-1.1-0.2-1.9-0.5-2.4c-0.3-0.5-0.9-0.8-1.6-0.8s-1.4,0.3-2,0.8
			s-0.8,1.4-0.8,2.4v7.4H324z"/>
	</g>
	<line class="st0" x1="524.4" y1="169.5" x2="524.4" y2="138.2"/>
	<line class="st0" x1="132.7" y1="169.5" x2="132.7" y2="138.2"/>
	<line class="st0" x1="555.7" y1="119.6" x2="555.7" y2="88.3"/>
	<line class="st0" x1="100.9" y1="119.6" x2="100.9" y2="88.3"/>
	<rect x="199.3" y="445.9" class="st3" width="258" height="22"/>
	<g>
		<g>
			<path class="st2" d="M229.8,494.5c-0.9-1-1.3-2.2-1.3-3.6c0-1.4,0.4-2.6,1.3-3.5c0.9-0.9,1.9-1.4,3-1.4s2.1,0.4,2.9,1.2v-4.7h2.7
				v13.2h-2.7v-1.3c-0.7,0.9-1.7,1.4-2.8,1.4l0,0C231.7,495.9,230.7,495.4,229.8,494.5z M231.8,489.1c-0.5,0.5-0.7,1.2-0.7,1.9
				c0,0.8,0.2,1.4,0.7,1.9c0.5,0.5,1,0.7,1.6,0.7c0.6,0,1.1-0.2,1.6-0.7c0.4-0.5,0.6-1.1,0.6-1.9c0-0.8-0.2-1.4-0.6-1.9
				c-0.4-0.5-1-0.8-1.6-0.8S232.2,488.6,231.8,489.1z"/>
			<path class="st2" d="M241,485c-0.3-0.3-0.5-0.7-0.5-1.1s0.2-0.8,0.5-1.1c0.3-0.3,0.7-0.5,1.1-0.5c0.4,0,0.8,0.2,1.1,0.5
				c0.3,0.3,0.5,0.7,0.5,1.1s-0.2,0.8-0.5,1.1c-0.3,0.3-0.7,0.5-1.1,0.5C241.7,485.4,241.4,485.3,241,485z M240.8,495.8v-9.6h2.7
				v9.6H240.8z"/>
			<path class="st2" d="M245.2,494.5l1.2-1.6c1,0.8,2.1,1.1,3.2,1.1c0.3,0,0.6-0.1,0.8-0.2c0.2-0.1,0.3-0.3,0.3-0.5
				s-0.1-0.4-0.4-0.6c-0.3-0.2-0.7-0.4-1.2-0.5s-0.9-0.3-1.2-0.4c-0.3-0.1-0.6-0.3-1-0.5c-0.7-0.4-1.1-1.1-1.1-2s0.4-1.6,1.1-2.2
				c0.7-0.6,1.6-0.9,2.8-0.9c1.1,0,2.2,0.4,3.4,1.2l-1,1.8c-0.8-0.6-1.7-0.8-2.5-0.8c0,0,0,0,0,0c-0.8,0-1.2,0.2-1.2,0.7
				c0,0.2,0.1,0.4,0.4,0.6c0.3,0.1,0.7,0.3,1.3,0.5c0.6,0.2,1,0.3,1.3,0.4c0.3,0.1,0.6,0.3,0.9,0.5c0.7,0.4,1,1.1,1,2
				s-0.3,1.7-1,2.2c-0.7,0.5-1.6,0.8-2.6,0.8c-0.7,0-1.5-0.1-2.2-0.4C246.6,495.3,245.9,495,245.2,494.5z"/>
			<path class="st2" d="M254.6,488.1v-1.9h1.1v-2.9h2.7v2.9h2.3v1.9h-2.3v4.3c0,0.4,0.1,0.7,0.3,0.9c0.2,0.2,0.4,0.3,0.7,0.3
				c0.5,0,0.9-0.2,1.3-0.7l1,1.9c-0.8,0.8-1.7,1.1-2.6,1.1c-0.9,0-1.7-0.3-2.3-0.9c-0.6-0.6-0.9-1.4-0.9-2.5v-4.4H254.6z"/>
			<path class="st2" d="M263.5,495c-0.7-0.6-1-1.4-1-2.3c0-1,0.4-1.7,1.1-2.2c0.7-0.5,1.7-0.7,2.9-0.7h2v0c0-1-0.5-1.5-1.6-1.5
				c-0.5,0-1,0.1-1.5,0.3c-0.5,0.2-1,0.4-1.3,0.6l-1.2-1.7c1.3-0.9,2.7-1.4,4.3-1.4c0,0,0,0,0,0c1.2,0,2.1,0.3,2.8,0.9
				c0.7,0.6,1.1,1.5,1.1,2.8v6.1h-2.5v-1.2c-0.7,0.9-1.5,1.3-2.5,1.3l0,0C265.1,495.9,264.2,495.6,263.5,495z M265.2,492.7
				c0,0.3,0.1,0.6,0.4,0.8c0.3,0.2,0.6,0.3,1.1,0.3c0.5,0,0.9-0.1,1.3-0.4c0.4-0.3,0.5-0.7,0.5-1.2v-0.5h-1.7
				C265.7,491.7,265.2,492,265.2,492.7z"/>
			<path class="st2" d="M273.6,495.8v-9.6h2.7v1.1c0.8-0.9,1.7-1.3,2.7-1.3c1,0,1.9,0.4,2.5,1.1c0.7,0.7,1,1.7,1,2.8v5.8h-2.7v-5.3
				c0-1.5-0.5-2.2-1.6-2.2c-0.5,0-1,0.2-1.4,0.6c-0.4,0.4-0.6,0.9-0.6,1.7v5.3H273.6z"/>
			<path class="st2" d="M285.9,494.6c-1-0.9-1.5-2.1-1.5-3.6c0-1.5,0.5-2.7,1.5-3.6c1-0.9,2.2-1.4,3.6-1.4c0.7,0,1.4,0.1,2.1,0.4
				s1.3,0.7,1.9,1.3l-1.4,1.8c-0.3-0.4-0.7-0.7-1.1-0.9c-0.4-0.2-0.9-0.3-1.3-0.3c-0.7,0-1.3,0.2-1.8,0.7c-0.5,0.5-0.8,1.1-0.8,1.9
				c0,0.8,0.3,1.4,0.8,1.9c0.5,0.5,1.1,0.7,1.8,0.7c0.9,0,1.7-0.4,2.4-1.3l1.6,1.8c-1.2,1.3-2.6,1.9-4,1.9S286.9,495.5,285.9,494.6z
				"/>
			<path class="st2" d="M295.5,485c-0.3-0.3-0.5-0.7-0.5-1.1s0.2-0.8,0.5-1.1c0.3-0.3,0.7-0.5,1.1-0.5c0.4,0,0.8,0.2,1.1,0.5
				c0.3,0.3,0.5,0.7,0.5,1.1s-0.2,0.8-0.5,1.1c-0.3,0.3-0.7,0.5-1.1,0.5C296.2,485.4,295.9,485.3,295.5,485z M295.3,495.8v-9.6h2.7
				v9.6H295.3z"/>
			<path class="st2" d="M301,495c-0.7-0.6-1-1.4-1-2.3c0-1,0.4-1.7,1.1-2.2c0.7-0.5,1.7-0.7,2.9-0.7h2v0c0-1-0.5-1.5-1.6-1.5
				c-0.5,0-1,0.1-1.5,0.3c-0.5,0.2-1,0.4-1.3,0.6l-1.2-1.7c1.3-0.9,2.7-1.4,4.3-1.4c0,0,0,0,0,0c1.2,0,2.1,0.3,2.8,0.9
				c0.7,0.6,1.1,1.5,1.1,2.8v6.1h-2.5v-1.2c-0.7,0.9-1.5,1.3-2.5,1.3l0,0C302.6,495.9,301.7,495.6,301,495z M302.7,492.7
				c0,0.3,0.1,0.6,0.4,0.8c0.3,0.2,0.6,0.3,1.1,0.3c0.5,0,0.9-0.1,1.3-0.4c0.4-0.3,0.5-0.7,0.5-1.2v-0.5h-1.7
				C303.2,491.7,302.7,492,302.7,492.7z"/>
			<path class="st2" d="M315.8,495.8v-9.6h2.7v1.2c0.3-0.4,0.8-0.7,1.3-1s1-0.4,1.6-0.4l0,2.5h-0.5c-0.8,0-1.4,0.3-1.8,0.8
				c-0.4,0.6-0.6,1.3-0.6,2.2v4.2H315.8z"/>
			<path class="st2" d="M324,494.6c-1-0.9-1.4-2.1-1.4-3.6s0.5-2.7,1.5-3.6s2.1-1.3,3.4-1.3s2.4,0.4,3.4,1.2s1.4,1.9,1.4,3.3v1.4h-7
				c0.1,0.5,0.4,0.9,0.8,1.3c0.5,0.3,1,0.5,1.6,0.5c0.9,0,1.7-0.3,2.3-0.9l1.5,1.6c-1.1,1-2.3,1.5-3.8,1.5S324.9,495.5,324,494.6z
				 M325.3,490h4.2c-0.1-0.6-0.3-1-0.6-1.3c-0.4-0.3-0.8-0.5-1.3-0.5s-1,0.2-1.4,0.5C325.6,489.1,325.3,489.5,325.3,490z"/>
			<path class="st2" d="M335,494.6c-1-0.9-1.5-2.1-1.5-3.6c0-1.5,0.5-2.7,1.5-3.6c1-0.9,2.2-1.4,3.6-1.4c0.7,0,1.4,0.1,2.1,0.4
				s1.3,0.7,1.9,1.3l-1.4,1.8c-0.3-0.4-0.7-0.7-1.1-0.9c-0.4-0.2-0.9-0.3-1.3-0.3c-0.7,0-1.3,0.2-1.8,0.7c-0.5,0.5-0.8,1.1-0.8,1.9
				c0,0.8,0.3,1.4,0.8,1.9c0.5,0.5,1.1,0.7,1.8,0.7c0.9,0,1.7-0.4,2.4-1.3l1.6,1.8c-1.2,1.3-2.6,1.9-4,1.9
				C337.2,495.9,336,495.5,335,494.6z"/>
			<path class="st2" d="M345.2,494.5c-1-0.9-1.4-2.1-1.4-3.5c0-1.4,0.5-2.6,1.4-3.5s2.2-1.4,3.6-1.4s2.7,0.5,3.6,1.4
				s1.4,2.1,1.4,3.5c0,1.4-0.5,2.6-1.4,3.5s-2.2,1.4-3.6,1.4S346.1,495.5,345.2,494.5z M347.1,489.1c-0.4,0.5-0.7,1.1-0.7,1.9
				c0,0.8,0.2,1.4,0.7,1.9c0.4,0.5,1,0.7,1.7,0.7s1.3-0.2,1.7-0.7c0.4-0.5,0.7-1.1,0.7-1.9c0-0.8-0.2-1.4-0.7-1.9
				c-0.4-0.5-1-0.7-1.7-0.7S347.5,488.6,347.1,489.1z"/>
			<path class="st2" d="M355.8,495.8v-9.6h2.7v1.1c0.7-0.8,1.6-1.2,2.5-1.2c0.6,0,1.1,0.2,1.6,0.5s0.9,0.8,1.1,1.3
				c0.4-0.6,0.9-1,1.5-1.3c0.6-0.3,1.3-0.5,1.9-0.5c1.1,0,2,0.3,2.7,1c0.7,0.7,1,1.6,1,2.9v5.8h-2.7v-5.2c0-1.5-0.5-2.2-1.6-2.2
				c-0.5,0-1,0.2-1.4,0.6c-0.4,0.4-0.6,1-0.6,1.7v5.2h-2.7v-5.2c0-0.8-0.1-1.3-0.3-1.7c-0.2-0.4-0.6-0.5-1.1-0.5s-1,0.2-1.4,0.6
				c-0.4,0.4-0.6,1-0.6,1.7v5.2H355.8z"/>
			<path class="st2" d="M374.2,494.6c-1-0.9-1.4-2.1-1.4-3.6s0.5-2.7,1.5-3.6s2.1-1.3,3.4-1.3s2.4,0.4,3.4,1.2
				c0.9,0.8,1.4,1.9,1.4,3.3v1.4h-7c0.1,0.5,0.4,0.9,0.8,1.3s1,0.5,1.6,0.5c0.9,0,1.7-0.3,2.3-0.9l1.5,1.6c-1.1,1-2.3,1.5-3.8,1.5
				C376.4,495.9,375.2,495.5,374.2,494.6z M375.5,490h4.2c-0.1-0.6-0.3-1-0.6-1.3c-0.4-0.3-0.8-0.5-1.3-0.5s-1,0.2-1.4,0.5
				C375.8,489.1,375.6,489.5,375.5,490z"/>
			<path class="st2" d="M384.3,495.8v-9.6h2.7v1.1c0.8-0.9,1.7-1.3,2.7-1.3s1.9,0.4,2.5,1.1c0.7,0.7,1,1.7,1,2.8v5.8h-2.7v-5.3
				c0-1.5-0.5-2.2-1.6-2.2c-0.5,0-1,0.2-1.4,0.6c-0.4,0.4-0.6,0.9-0.6,1.7v5.3H384.3z"/>
			<path class="st2" d="M396.5,494.5c-0.9-1-1.3-2.2-1.3-3.6c0-1.4,0.4-2.6,1.3-3.5c0.9-0.9,1.9-1.4,3-1.4s2.1,0.4,2.9,1.2v-4.7h2.7
				v13.2h-2.7v-1.3c-0.7,0.9-1.7,1.4-2.8,1.4l0,0C398.4,495.9,397.4,495.4,396.5,494.5z M398.5,489.1c-0.5,0.5-0.7,1.2-0.7,1.9
				c0,0.8,0.2,1.4,0.7,1.9c0.5,0.5,1,0.7,1.6,0.7s1.1-0.2,1.6-0.7c0.4-0.5,0.6-1.1,0.6-1.9c0-0.8-0.2-1.4-0.6-1.9
				c-0.4-0.5-1-0.8-1.6-0.8S399,488.6,398.5,489.1z"/>
			<path class="st2" d="M408.1,495c-0.7-0.6-1-1.4-1-2.3c0-1,0.4-1.7,1.1-2.2c0.7-0.5,1.7-0.7,2.9-0.7h2v0c0-1-0.5-1.5-1.6-1.5
				c-0.5,0-1,0.1-1.5,0.3c-0.5,0.2-1,0.4-1.3,0.6l-1.2-1.7c1.3-0.9,2.7-1.4,4.3-1.4c0,0,0,0,0,0c1.2,0,2.1,0.3,2.8,0.9
				c0.7,0.6,1.1,1.5,1.1,2.8v6.1h-2.5v-1.2c-0.7,0.9-1.5,1.3-2.5,1.3l0,0C409.6,495.9,408.8,495.6,408.1,495z M409.7,492.7
				c0,0.3,0.1,0.6,0.4,0.8c0.3,0.2,0.6,0.3,1.1,0.3s0.9-0.1,1.3-0.4c0.4-0.3,0.5-0.7,0.5-1.2v-0.5h-1.7
				C410.3,491.7,409.7,492,409.7,492.7z"/>
			<path class="st2" d="M418.9,494.5c-0.9-1-1.3-2.2-1.3-3.6c0-1.4,0.4-2.6,1.3-3.5s1.9-1.4,3-1.4s2.1,0.4,2.9,1.2v-4.7h2.7v13.2
				h-2.7v-1.3c-0.7,0.9-1.7,1.4-2.8,1.4l0,0C420.8,495.9,419.8,495.4,418.9,494.5z M420.9,489.1c-0.5,0.5-0.7,1.2-0.7,1.9
				c0,0.8,0.2,1.4,0.7,1.9c0.5,0.5,1,0.7,1.6,0.7s1.1-0.2,1.6-0.7c0.4-0.5,0.6-1.1,0.6-1.9c0-0.8-0.2-1.4-0.6-1.9
				c-0.4-0.5-1-0.8-1.6-0.8S421.4,488.6,420.9,489.1z"/>
			<path class="st2" d="M430.5,495c-0.7-0.6-1-1.4-1-2.3c0-1,0.4-1.7,1.1-2.2c0.7-0.5,1.7-0.7,2.9-0.7h2v0c0-1-0.5-1.5-1.6-1.5
				c-0.5,0-1,0.1-1.5,0.3c-0.5,0.2-1,0.4-1.3,0.6l-1.2-1.7c1.3-0.9,2.7-1.4,4.3-1.4c0,0,0,0,0,0c1.2,0,2.1,0.3,2.8,0.9
				c0.7,0.6,1.1,1.5,1.1,2.8v6.1h-2.5v-1.2c-0.7,0.9-1.5,1.3-2.5,1.3l0,0C432,495.9,431.2,495.6,430.5,495z M432.1,492.7
				c0,0.3,0.1,0.6,0.4,0.8c0.3,0.2,0.6,0.3,1.1,0.3s0.9-0.1,1.3-0.4c0.4-0.3,0.5-0.7,0.5-1.2v-0.5h-1.7
				C432.7,491.7,432.1,492,432.1,492.7z"/>
		</g>
	</g>
	<line class="st0" x1="199.3" y1="248.3" x2="199.3" y2="217"/>
	<line class="st0" x1="135.1" y1="233.2" x2="199.3" y2="232.9"/>
	<g>
		<g>
			<g>
				<path class="st2" d="M199.1,324.9c0-8.5-7-15.4-15.6-15.4h-35.2c-8.5,0-15.5,6.9-15.6,15.4v47.8c0,3.5,2.8,6.6,6.3,6.7
					c3.7,0.1,6.8-2.8,6.8-6.5c0-0.2,0-48,0-48.2c0.1-1.8,2.8-1.6,2.8,0.2l0,109.9c0,4.4,3.7,8,8.1,7.8c4.2-0.2,7.6-3.8,7.6-8v-62.5
					h3.4v62.5c0,4.2,3.3,7.9,7.6,8c4.5,0.2,8.1-3.4,8.1-7.8v-110c0-1.7,2.8-1.9,2.7,0.1v47.8c0,3.5,2.8,6.6,6.3,6.7
					c3.7,0.1,6.8-2.8,6.8-6.5L199.1,324.9z"/>
			</g>
		</g>
		<g>
			<g>
				<circle class="st2" cx="165.9" cy="291.6" r="13.5"/>
			</g>
		</g>
	</g>
	<line class="st0" x1="132.7" y1="248.3" x2="132.7" y2="217"/>
	<g>
		<path class="st2" d="M138.3,210.6c-1.2-1.7-1.8-3.9-1.8-6.7c0-2.8,0.6-5,1.8-6.7s3-2.5,5.5-2.5s4.3,0.8,5.5,2.5s1.8,3.9,1.8,6.7
			c0,2.8-0.6,5-1.8,6.7c-1.2,1.7-3,2.5-5.5,2.5S139.5,212.3,138.3,210.6z M141.2,199.7c-0.6,1.1-0.8,2.5-0.8,4.3s0.3,3.2,0.8,4.3
			c0.6,1.1,1.4,1.6,2.6,1.6s2.1-0.5,2.6-1.6c0.6-1.1,0.8-2.5,0.8-4.3s-0.3-3.2-0.8-4.3c-0.6-1.1-1.4-1.6-2.6-1.6
			S141.7,198.6,141.2,199.7z"/>
		<path class="st2" d="M154.7,212.5c-0.4-0.4-0.6-1-0.6-1.6s0.2-1.2,0.6-1.6c0.4-0.4,1-0.6,1.6-0.6c0.6,0,1.2,0.2,1.6,0.6
			c0.4,0.4,0.6,1,0.6,1.6s-0.2,1.2-0.6,1.6c-0.4,0.4-1,0.6-1.6,0.6C155.6,213.1,155.1,212.9,154.7,212.5z"/>
		<path class="st2" d="M161.2,210.5l2.1-2.9c0.2,0.2,0.4,0.3,0.6,0.6c0.3,0.2,0.7,0.5,1.4,0.9c0.7,0.4,1.4,0.5,2,0.5
			s1.3-0.2,1.8-0.6c0.5-0.4,0.8-1,0.8-1.8s-0.3-1.4-0.8-1.9c-0.6-0.4-1.3-0.7-2.2-0.7s-1.9,0.3-3.1,1l-1.7-1.8v-8.7h10.7v3.4h-7v3
			c0.5-0.1,1.1-0.2,1.8-0.2c1.7,0,3.2,0.5,4.4,1.5c1.2,1,1.9,2.4,1.9,4.2s-0.6,3.2-1.9,4.3c-1.3,1.1-2.9,1.7-4.7,1.7
			C164.8,213.1,162.8,212.3,161.2,210.5z"/>
		<path class="st2" d="M183.5,212.9v-13.7h3.8v1.5c1.1-1.2,2.2-1.8,3.6-1.8c0.9,0,1.6,0.3,2.3,0.8c0.7,0.5,1.2,1.1,1.6,1.8
			c0.5-0.8,1.2-1.5,2.1-1.9c0.9-0.5,1.8-0.7,2.7-0.7c1.6,0,2.9,0.5,3.9,1.4s1.5,2.3,1.5,4.1v8.3h-3.8v-7.5c0-2.1-0.8-3.2-2.3-3.2
			c-0.8,0-1.4,0.3-2,0.8s-0.8,1.4-0.8,2.4v7.4h-3.8v-7.5c0-1.1-0.2-1.9-0.5-2.4c-0.3-0.5-0.9-0.8-1.6-0.8s-1.4,0.3-2,0.8
			s-0.8,1.4-0.8,2.4v7.4H183.5z"/>
	</g>
	<rect x="135.1" y="445.9" class="st4" width="64.2" height="22"/>
	<g>
		<g>
			<path class="st2" d="M136.8,495c-0.7-0.6-1-1.4-1-2.3c0-1,0.4-1.7,1.1-2.2c0.7-0.5,1.7-0.7,2.9-0.7h2v0c0-1-0.5-1.5-1.6-1.5
				c-0.5,0-1,0.1-1.5,0.3c-0.5,0.2-1,0.4-1.3,0.6l-1.2-1.7c1.3-0.9,2.7-1.4,4.3-1.4c0,0,0,0,0,0c1.2,0,2.1,0.3,2.8,0.9
				c0.7,0.6,1.1,1.5,1.1,2.8v6.1h-2.5v-1.2c-0.7,0.9-1.5,1.3-2.5,1.3l0,0C138.4,495.9,137.5,495.6,136.8,495z M138.5,492.7
				c0,0.3,0.1,0.6,0.4,0.8c0.3,0.2,0.6,0.3,1.1,0.3c0.5,0,0.9-0.1,1.3-0.4c0.4-0.3,0.5-0.7,0.5-1.2v-0.5h-1.7
				C139,491.7,138.5,492,138.5,492.7z"/>
			<path class="st2" d="M147.7,494.5c-0.9-1-1.3-2.2-1.3-3.6c0-1.4,0.4-2.6,1.3-3.5c0.9-0.9,1.9-1.4,3-1.4s2.1,0.4,2.9,1.2v-4.7h2.7
				v13.2h-2.7v-1.3c-0.7,0.9-1.7,1.4-2.8,1.4l0,0C149.6,495.9,148.5,495.4,147.7,494.5z M149.7,489.1c-0.5,0.5-0.7,1.2-0.7,1.9
				c0,0.8,0.2,1.4,0.7,1.9c0.5,0.5,1,0.7,1.6,0.7c0.6,0,1.1-0.2,1.6-0.7c0.4-0.5,0.6-1.1,0.6-1.9c0-0.8-0.2-1.4-0.6-1.9
				c-0.4-0.5-1-0.8-1.6-0.8S150.1,488.6,149.7,489.1z"/>
			<path class="st2" d="M158.6,492v-5.8h2.7v5.2c0,1.5,0.5,2.2,1.6,2.2c0.5,0,1-0.2,1.4-0.6s0.6-0.9,0.6-1.7v-5.2h2.7v9.6h-2.7v-1.2
				c-0.7,0.9-1.5,1.4-2.6,1.4l0,0c-1,0-1.9-0.3-2.6-1C159,494.3,158.6,493.3,158.6,492z"/>
			<path class="st2" d="M170.1,495.8v-13.2h2.7v13.2H170.1z"/>
			<path class="st2" d="M174.7,488.1v-1.9h1.1v-2.9h2.7v2.9h2.3v1.9h-2.3v4.3c0,0.4,0.1,0.7,0.3,0.9c0.2,0.2,0.4,0.3,0.7,0.3
				c0.5,0,0.9-0.2,1.3-0.7l1,1.9c-0.8,0.8-1.7,1.1-2.6,1.1c-0.9,0-1.7-0.3-2.3-0.9c-0.6-0.6-0.9-1.4-0.9-2.5v-4.4H174.7z"/>
			<path class="st2" d="M183.9,494.5c-1-0.9-1.4-2.1-1.4-3.5c0-1.4,0.5-2.6,1.4-3.5c1-1,2.2-1.4,3.6-1.4c1.5,0,2.7,0.5,3.6,1.4
				c1,1,1.4,2.1,1.4,3.5c0,1.4-0.5,2.6-1.4,3.5c-1,0.9-2.2,1.4-3.6,1.4C186.1,495.9,184.9,495.5,183.9,494.5z M185.8,489.1
				c-0.4,0.5-0.7,1.1-0.7,1.9c0,0.8,0.2,1.4,0.7,1.9c0.4,0.5,1,0.7,1.7,0.7c0.7,0,1.3-0.2,1.7-0.7c0.4-0.5,0.7-1.1,0.7-1.9
				c0-0.8-0.2-1.4-0.7-1.9c-0.4-0.5-1-0.7-1.7-0.7C186.8,488.3,186.3,488.6,185.8,489.1z"/>
		</g>
	</g>
	<rect x="103.2" y="445.9" class="st5" width="32.1" height="22"/>
	<line class="st0" x1="524.5" y1="248.3" x2="524.5" y2="217"/>
	<line class="st0" x1="460.3" y1="233.2" x2="524.5" y2="232.9"/>
	<g>
		<g>
			<g>
				<path class="st2" d="M524.3,324.9c0-8.5-7-15.4-15.6-15.4h-35.2c-8.5,0-15.5,6.9-15.6,15.4v47.8c0,3.5,2.8,6.6,6.3,6.7
					c3.7,0.1,6.8-2.8,6.8-6.5c0-0.2,0-48,0-48.2c0.1-1.8,2.8-1.6,2.8,0.2l0,109.9c0,4.4,3.7,8,8.1,7.8c4.2-0.2,7.6-3.8,7.6-8v-62.5
					h3.4v62.5c0,4.2,3.3,7.9,7.6,8c4.5,0.2,8.1-3.4,8.1-7.8v-110c0-1.7,2.8-1.9,2.7,0.1v47.8c0,3.5,2.8,6.6,6.3,6.7
					c3.7,0.1,6.8-2.8,6.8-6.5L524.3,324.9z"/>
			</g>
		</g>
		<g>
			<g>
				<circle class="st2" cx="491.1" cy="291.6" r="13.5"/>
			</g>
		</g>
	</g>
	<line class="st0" x1="457.9" y1="248.3" x2="457.9" y2="217"/>
	<g>
		<path class="st2" d="M463.5,210.6c-1.2-1.7-1.8-3.9-1.8-6.7c0-2.8,0.6-5,1.8-6.7s3-2.5,5.5-2.5s4.3,0.8,5.5,2.5s1.8,3.9,1.8,6.7
			c0,2.8-0.6,5-1.8,6.7c-1.2,1.7-3,2.5-5.5,2.5S464.7,212.3,463.5,210.6z M466.4,199.7c-0.6,1.1-0.8,2.5-0.8,4.3s0.3,3.2,0.8,4.3
			c0.6,1.1,1.4,1.6,2.6,1.6s2.1-0.5,2.6-1.6c0.6-1.1,0.8-2.5,0.8-4.3s-0.3-3.2-0.8-4.3c-0.6-1.1-1.4-1.6-2.6-1.6
			S466.9,198.6,466.4,199.7z"/>
		<path class="st2" d="M479.9,212.5c-0.4-0.4-0.6-1-0.6-1.6s0.2-1.2,0.6-1.6c0.4-0.4,1-0.6,1.6-0.6c0.6,0,1.2,0.2,1.6,0.6
			c0.4,0.4,0.6,1,0.6,1.6s-0.2,1.2-0.6,1.6c-0.4,0.4-1,0.6-1.6,0.6C480.8,213.1,480.3,212.9,479.9,212.5z"/>
		<path class="st2" d="M486.4,210.5l2.1-2.9c0.2,0.2,0.4,0.3,0.6,0.6c0.3,0.2,0.7,0.5,1.4,0.9c0.7,0.4,1.4,0.5,2,0.5
			s1.3-0.2,1.8-0.6c0.5-0.4,0.8-1,0.8-1.8s-0.3-1.4-0.8-1.9c-0.6-0.4-1.3-0.7-2.2-0.7s-1.9,0.3-3.1,1l-1.7-1.8v-8.7H498v3.4h-7v3
			c0.5-0.1,1.1-0.2,1.8-0.2c1.7,0,3.2,0.5,4.4,1.5c1.2,1,1.9,2.4,1.9,4.2s-0.6,3.2-1.9,4.3c-1.3,1.1-2.9,1.7-4.7,1.7
			C490,213.1,488,212.3,486.4,210.5z"/>
		<path class="st2" d="M508.8,212.9v-13.7h3.8v1.5c1.1-1.2,2.2-1.8,3.6-1.8c0.9,0,1.6,0.3,2.3,0.8c0.7,0.5,1.2,1.1,1.6,1.8
			c0.5-0.8,1.2-1.5,2.1-1.9c0.9-0.5,1.8-0.7,2.7-0.7c1.6,0,2.9,0.5,3.9,1.4s1.5,2.3,1.5,4.1v8.3h-3.8v-7.5c0-2.1-0.8-3.2-2.3-3.2
			c-0.8,0-1.4,0.3-2,0.8s-0.8,1.4-0.8,2.4v7.4h-3.8v-7.5c0-1.1-0.2-1.9-0.5-2.4c-0.3-0.5-0.9-0.8-1.6-0.8s-1.4,0.3-2,0.8
			s-0.8,1.4-0.8,2.4v7.4H508.8z"/>
	</g>
	<g>
		<g>
			<path class="st2" d="M463,495c-0.7-0.6-1-1.4-1-2.3c0-1,0.4-1.7,1.1-2.2c0.7-0.5,1.7-0.7,2.9-0.7h2v0c0-1-0.5-1.5-1.6-1.5
				c-0.5,0-1,0.1-1.5,0.3c-0.5,0.2-1,0.4-1.3,0.6l-1.2-1.7c1.3-0.9,2.7-1.4,4.3-1.4c0,0,0,0,0,0c1.2,0,2.1,0.3,2.8,0.9
				c0.7,0.6,1.1,1.5,1.1,2.8v6.1h-2.5v-1.2c-0.7,0.9-1.5,1.3-2.5,1.3l0,0C464.6,495.9,463.7,495.6,463,495z M464.7,492.7
				c0,0.3,0.1,0.6,0.4,0.8c0.3,0.2,0.6,0.3,1.1,0.3s0.9-0.1,1.3-0.4c0.4-0.3,0.5-0.7,0.5-1.2v-0.5h-1.7
				C465.2,491.7,464.7,492,464.7,492.7z"/>
			<path class="st2" d="M473.9,494.5c-0.9-1-1.3-2.2-1.3-3.6c0-1.4,0.4-2.6,1.3-3.5c0.9-0.9,1.9-1.4,3-1.4s2.1,0.4,2.9,1.2v-4.7h2.7
				v13.2h-2.7v-1.3c-0.7,0.9-1.7,1.4-2.8,1.4l0,0C475.8,495.9,474.8,495.4,473.9,494.5z M475.9,489.1c-0.5,0.5-0.7,1.2-0.7,1.9
				c0,0.8,0.2,1.4,0.7,1.9c0.5,0.5,1,0.7,1.6,0.7s1.1-0.2,1.6-0.7c0.4-0.5,0.6-1.1,0.6-1.9c0-0.8-0.2-1.4-0.6-1.9
				c-0.4-0.5-1-0.8-1.6-0.8S476.3,488.6,475.9,489.1z"/>
			<path class="st2" d="M484.8,492v-5.8h2.7v5.2c0,1.5,0.5,2.2,1.6,2.2c0.5,0,1-0.2,1.4-0.6c0.4-0.4,0.6-0.9,0.6-1.7v-5.2h2.7v9.6
				h-2.7v-1.2c-0.7,0.9-1.5,1.4-2.6,1.4l0,0c-1,0-1.9-0.3-2.6-1C485.2,494.3,484.8,493.3,484.8,492z"/>
			<path class="st2" d="M496.3,495.8v-13.2h2.7v13.2H496.3z"/>
			<path class="st2" d="M500.9,488.1v-1.9h1.1v-2.9h2.7v2.9h2.3v1.9h-2.3v4.3c0,0.4,0.1,0.7,0.3,0.9c0.2,0.2,0.4,0.3,0.7,0.3
				c0.5,0,0.9-0.2,1.3-0.7l1,1.9c-0.8,0.8-1.7,1.1-2.6,1.1c-0.9,0-1.7-0.3-2.3-0.9s-0.9-1.4-0.9-2.5v-4.4H500.9z"/>
			<path class="st2" d="M510.1,494.5c-1-0.9-1.4-2.1-1.4-3.5c0-1.4,0.5-2.6,1.4-3.5s2.2-1.4,3.6-1.4s2.7,0.5,3.6,1.4
				s1.4,2.1,1.4,3.5c0,1.4-0.5,2.6-1.4,3.5s-2.2,1.4-3.6,1.4S511.1,495.5,510.1,494.5z M512,489.1c-0.4,0.5-0.7,1.1-0.7,1.9
				c0,0.8,0.2,1.4,0.7,1.9c0.4,0.5,1,0.7,1.7,0.7s1.3-0.2,1.7-0.7c0.4-0.5,0.7-1.1,0.7-1.9c0-0.8-0.2-1.4-0.7-1.9
				c-0.4-0.5-1-0.7-1.7-0.7S512.5,488.6,512,489.1z"/>
		</g>
	</g>
	<g>
		
			<rect x="457.4" y="445.9" transform="matrix(-1 -4.489621e-11 4.489621e-11 -1 979.0135 913.7916)" class="st4" width="64.2" height="22"/>
		
			<rect x="521.4" y="445.9" transform="matrix(-1 -4.491042e-11 4.491042e-11 -1 1074.8669 913.7916)" class="st5" width="32.1" height="22"/>
	</g>
</g>
</svg>
