<?xml version="1.0" encoding="utf-8"?>
<!-- Generator: Adobe Illustrator 24.1.0, SVG Export Plug-In . SVG Version: 6.00 Build 0)  -->
<svg version="1.1"
	 id="Capa_1" xmlns:cc="http://creativecommons.org/ns#" xmlns:dc="http://purl.org/dc/elements/1.1/" xmlns:inkscape="http://www.inkscape.org/namespaces/inkscape" xmlns:rdf="http://www.w3.org/1999/02/22-rdf-syntax-ns#" xmlns:sodipodi="http://sodipodi.sourceforge.net/DTD/sodipodi-0.dtd" xmlns:svg="http://www.w3.org/2000/svg"
	 xmlns="http://www.w3.org/2000/svg" xmlns:xlink="http://www.w3.org/1999/xlink" x="0px" y="0px" viewBox="0 0 596.6 420"
	 style="enable-background:new 0 0 596.6 420;" xml:space="preserve">
<sodipodi:namedview  bordercolor="#666666" borderopacity="1" gridtolerance="10" guidetolerance="10" id="namedview25" inkscape:current-layer="Capa_1" inkscape:cx="191.34309" inkscape:cy="266.52139" inkscape:pageopacity="0" inkscape:pageshadow="2" inkscape:window-height="1018" inkscape:window-maximized="1" inkscape:window-width="1920" inkscape:window-x="0" inkscape:window-y="34" inkscape:zoom="1" objecttolerance="10" pagecolor="#ffffff" showgrid="false">
	</sodipodi:namedview>
<g>
	<path id="path18" inkscape:connector-curvature="0" d="M269.5,420c8.3,0,15-6.7,15-15s-6.7-15-15-15h-31c-8.3,0-15,6.7-15,15
		s6.7,15,15,15H269.5z"/>
	<path id="path20" inkscape:connector-curvature="0" d="M358.5,420c8.3,0,15-6.7,15-15s-6.7-15-15-15h-31c-8.3,0-15,6.7-15,15
		s6.7,15,15,15H358.5z"/>
</g>
<g>
	<circle id="circle10" cx="75" cy="60" r="60"/>
	<path id="path12" inkscape:connector-curvature="0" d="M15,300h15v105c0,8.3,6.7,15,15,15c3.9,0,94.5,0,90,0c8.3,0,15-6.7,15-15
		s-6.7-15-15-15h-15v-90h15c8.3,0,15-6.7,15-15v-90c0-41.4-33.6-75-75-75S0,153.6,0,195v90C0,293.3,6.7,300,15,300z"/>
</g>
<g>
	<circle id="circle10_1_" cx="521.6" cy="60" r="60"/>
	<path id="path12_1_" inkscape:connector-curvature="0" d="M596.6,285v-90c0-41.4-33.6-75-75-75s-75,33.6-75,75v90
		c0,8.3,6.7,15,15,15h15v90h-15c-8.3,0-15,6.7-15,15s6.7,15,15,15c-4.5,0,86.1,0,90,0c8.3,0,15-6.7,15-15V300h15
		C589.9,300,596.6,293.3,596.6,285z"/>
</g>
</svg>
