<?xml version="1.0" encoding="utf-8"?>
<!-- Generator: Adobe Illustrator 24.1.0, SVG Export Plug-In . SVG Version: 6.00 Build 0)  -->
<svg version="1.1" id="Capa_1" xmlns="http://www.w3.org/2000/svg" xmlns:xlink="http://www.w3.org/1999/xlink" x="0px" y="0px"
	 viewBox="0 0 406.4 94.4" style="enable-background:new 0 0 406.4 94.4;" xml:space="preserve">
<style type="text/css">
	.st0{clip-path:url(#SVGID_2_);}
	.st1{clip-path:url(#SVGID_4_);fill:#B34911;}
	.st2{clip-path:url(#SVGID_4_);fill-rule:evenodd;clip-rule:evenodd;fill:#C35213;}
	.st3{clip-path:url(#SVGID_4_);fill-rule:evenodd;clip-rule:evenodd;fill:#C15113;}
	.st4{clip-path:url(#SVGID_4_);fill-rule:evenodd;clip-rule:evenodd;fill:#C05013;}
	.st5{clip-path:url(#SVGID_4_);fill-rule:evenodd;clip-rule:evenodd;fill:#B94D12;}
	.st6{clip-path:url(#SVGID_4_);fill-rule:evenodd;clip-rule:evenodd;fill:#B44911;}
	.st7{clip-path:url(#SVGID_4_);fill-rule:evenodd;clip-rule:evenodd;fill:#BD4F12;}
	.st8{clip-path:url(#SVGID_4_);fill-rule:evenodd;clip-rule:evenodd;fill:#9C3B0D;}
	.st9{clip-path:url(#SVGID_4_);fill-rule:evenodd;clip-rule:evenodd;fill:#B84B12;}
	.st10{clip-path:url(#SVGID_4_);fill-rule:evenodd;clip-rule:evenodd;fill:#BF5013;}
	.st11{clip-path:url(#SVGID_4_);fill-rule:evenodd;clip-rule:evenodd;fill:#B94B12;}
	.st12{clip-path:url(#SVGID_4_);fill-rule:evenodd;clip-rule:evenodd;fill:#C5662C;}
	.st13{clip-path:url(#SVGID_4_);fill-rule:evenodd;clip-rule:evenodd;fill:#E28030;}
	.st14{clip-path:url(#SVGID_4_);fill-rule:evenodd;clip-rule:evenodd;fill:#C66E37;}
	.st15{clip-path:url(#SVGID_4_);fill-rule:evenodd;clip-rule:evenodd;fill:#CE7137;}
	.st16{clip-path:url(#SVGID_4_);fill-rule:evenodd;clip-rule:evenodd;fill:#B84C12;}
	.st17{clip-path:url(#SVGID_4_);fill-rule:evenodd;clip-rule:evenodd;fill:#CF7237;}
	.st18{clip-path:url(#SVGID_4_);fill-rule:evenodd;clip-rule:evenodd;fill:#C3652C;}
	.st19{clip-path:url(#SVGID_4_);fill-rule:evenodd;clip-rule:evenodd;fill:#DE7B38;}
	.st20{clip-path:url(#SVGID_4_);fill-rule:evenodd;clip-rule:evenodd;fill:#C36B36;}
	.st21{clip-path:url(#SVGID_4_);fill-rule:evenodd;clip-rule:evenodd;fill:#E48C32;}
	.st22{clip-path:url(#SVGID_4_);fill-rule:evenodd;clip-rule:evenodd;fill:#E28330;}
	.st23{clip-path:url(#SVGID_4_);fill-rule:evenodd;clip-rule:evenodd;fill:#CD6B2D;}
	.st24{clip-path:url(#SVGID_4_);fill-rule:evenodd;clip-rule:evenodd;fill:#BA5F2C;}
	.st25{clip-path:url(#SVGID_4_);fill-rule:evenodd;clip-rule:evenodd;fill:#E17C2F;}
	.st26{clip-path:url(#SVGID_4_);fill-rule:evenodd;clip-rule:evenodd;fill:#BF622C;}
	.st27{clip-path:url(#SVGID_4_);fill-rule:evenodd;clip-rule:evenodd;fill:#C4662D;}
	.st28{clip-path:url(#SVGID_4_);fill-rule:evenodd;clip-rule:evenodd;fill:#D36F2E;}
	.st29{clip-path:url(#SVGID_4_);fill-rule:evenodd;clip-rule:evenodd;fill:#B56336;}
	.st30{clip-path:url(#SVGID_4_);fill-rule:evenodd;clip-rule:evenodd;fill:#C96F37;}
	.st31{clip-path:url(#SVGID_4_);fill-rule:evenodd;clip-rule:evenodd;fill:#E38B31;}
	.st32{clip-path:url(#SVGID_4_);fill-rule:evenodd;clip-rule:evenodd;fill:#B0592A;}
	.st33{clip-path:url(#SVGID_4_);fill-rule:evenodd;clip-rule:evenodd;fill:#DC732E;}
	.st34{clip-path:url(#SVGID_4_);fill-rule:evenodd;clip-rule:evenodd;fill:#C5662D;}
	.st35{clip-path:url(#SVGID_4_);fill-rule:evenodd;clip-rule:evenodd;fill:#B96636;}
	.st36{clip-path:url(#SVGID_4_);fill-rule:evenodd;clip-rule:evenodd;fill:#E1782E;}
	.st37{clip-path:url(#SVGID_4_);fill-rule:evenodd;clip-rule:evenodd;fill:#C9692D;}
	.st38{clip-path:url(#SVGID_4_);fill-rule:evenodd;clip-rule:evenodd;fill:#D17337;}
	.st39{clip-path:url(#SVGID_4_);fill-rule:evenodd;clip-rule:evenodd;fill:#A3522A;}
	.st40{clip-path:url(#SVGID_4_);fill-rule:evenodd;clip-rule:evenodd;fill:#F3D93E;}
	.st41{clip-path:url(#SVGID_4_);fill-rule:evenodd;clip-rule:evenodd;fill:#CE6B2C;}
	.st42{clip-path:url(#SVGID_4_);fill-rule:evenodd;clip-rule:evenodd;fill:#E4963A;}
	.st43{clip-path:url(#SVGID_4_);fill-rule:evenodd;clip-rule:evenodd;fill:#EDBE3A;}
	.st44{clip-path:url(#SVGID_4_);fill-rule:evenodd;clip-rule:evenodd;fill:#BB4E12;}
	.st45{clip-path:url(#SVGID_4_);fill-rule:evenodd;clip-rule:evenodd;fill:#E2811E;}
	.st46{clip-path:url(#SVGID_4_);fill-rule:evenodd;clip-rule:evenodd;fill:#CF5915;}
	.st47{clip-path:url(#SVGID_4_);fill-rule:evenodd;clip-rule:evenodd;fill:#DF6A19;}
	.st48{clip-path:url(#SVGID_4_);fill-rule:evenodd;clip-rule:evenodd;fill:#CC5814;}
	.st49{clip-path:url(#SVGID_4_);fill-rule:evenodd;clip-rule:evenodd;fill:#CA5614;}
	.st50{clip-path:url(#SVGID_4_);fill-rule:evenodd;clip-rule:evenodd;fill:#B64A11;}
	.st51{clip-path:url(#SVGID_4_);fill-rule:evenodd;clip-rule:evenodd;fill:#CB5714;}
	.st52{clip-path:url(#SVGID_4_);fill-rule:evenodd;clip-rule:evenodd;fill:#CD5814;}
	.st53{clip-path:url(#SVGID_4_);fill-rule:evenodd;clip-rule:evenodd;fill:#AF4711;}
	.st54{clip-path:url(#SVGID_4_);fill-rule:evenodd;clip-rule:evenodd;fill:#B74A11;}
	.st55{clip-path:url(#SVGID_4_);fill-rule:evenodd;clip-rule:evenodd;fill:#AD4510;}
	.st56{clip-path:url(#SVGID_4_);fill-rule:evenodd;clip-rule:evenodd;fill:#BC4E12;}
	.st57{clip-path:url(#SVGID_4_);fill-rule:evenodd;clip-rule:evenodd;fill:#DF6E1A;}
	.st58{clip-path:url(#SVGID_4_);fill-rule:evenodd;clip-rule:evenodd;fill:#E0731B;}
	.st59{clip-path:url(#SVGID_4_);fill-rule:evenodd;clip-rule:evenodd;fill:#DF6B19;}
	.st60{clip-path:url(#SVGID_4_);fill-rule:evenodd;clip-rule:evenodd;fill:#DF6F1A;}
	.st61{clip-path:url(#SVGID_4_);fill-rule:evenodd;clip-rule:evenodd;fill:#C65414;}
	.st62{clip-path:url(#SVGID_4_);fill-rule:evenodd;clip-rule:evenodd;fill:#98390C;}
	.st63{clip-path:url(#SVGID_4_);fill-rule:evenodd;clip-rule:evenodd;fill:#D05916;}
	.st64{clip-path:url(#SVGID_4_);fill-rule:evenodd;clip-rule:evenodd;fill:#DA6016;}
	.st65{clip-path:url(#SVGID_4_);fill-rule:evenodd;clip-rule:evenodd;fill:#E17C1D;}
	.st66{clip-path:url(#SVGID_4_);fill-rule:evenodd;clip-rule:evenodd;fill:#E0711B;}
	.st67{clip-path:url(#SVGID_4_);fill-rule:evenodd;clip-rule:evenodd;fill:#B24811;}
	.st68{clip-path:url(#SVGID_4_);fill-rule:evenodd;clip-rule:evenodd;fill:#95380F;}
	.st69{clip-path:url(#SVGID_4_);fill-rule:evenodd;clip-rule:evenodd;fill:#DE6818;}
	.st70{clip-path:url(#SVGID_4_);fill-rule:evenodd;clip-rule:evenodd;fill:#B94C12;}
	.st71{clip-path:url(#SVGID_4_);fill-rule:evenodd;clip-rule:evenodd;fill:#A8420F;}
	.st72{clip-path:url(#SVGID_4_);fill-rule:evenodd;clip-rule:evenodd;fill:#E17A1D;}
	.st73{clip-path:url(#SVGID_4_);fill-rule:evenodd;clip-rule:evenodd;fill:#F3D632;}
	.st74{clip-path:url(#SVGID_4_);fill-rule:evenodd;clip-rule:evenodd;fill:#A4400F;}
	.st75{clip-path:url(#SVGID_4_);fill-rule:evenodd;clip-rule:evenodd;fill:#D85E16;}
	.st76{clip-path:url(#SVGID_4_);fill-rule:evenodd;clip-rule:evenodd;fill:#BA4D12;}
	.st77{clip-path:url(#SVGID_4_);fill-rule:evenodd;clip-rule:evenodd;fill:#DE6618;}
	.st78{clip-path:url(#SVGID_4_);fill-rule:evenodd;clip-rule:evenodd;fill:#EBB62B;}
	.st79{clip-path:url(#SVGID_4_);fill-rule:evenodd;clip-rule:evenodd;fill:#E1811F;}
	.st80{clip-path:url(#SVGID_4_);fill-rule:evenodd;clip-rule:evenodd;fill:#E7A326;}
	.st81{clip-path:url(#SVGID_4_);fill-rule:evenodd;clip-rule:evenodd;fill:#E18620;}
	.st82{clip-path:url(#SVGID_4_);fill-rule:evenodd;clip-rule:evenodd;fill:#DE6417;}
	.st83{clip-path:url(#SVGID_4_);fill-rule:evenodd;clip-rule:evenodd;fill:#E1791C;}
	.st84{clip-path:url(#SVGID_4_);fill-rule:evenodd;clip-rule:evenodd;fill:#E17F1E;}
	.st85{clip-path:url(#SVGID_4_);fill-rule:evenodd;clip-rule:evenodd;fill:#C85514;}
	.st86{clip-path:url(#SVGID_4_);fill-rule:evenodd;clip-rule:evenodd;fill:#DE6718;}
	.st87{clip-path:url(#SVGID_4_);fill-rule:evenodd;clip-rule:evenodd;fill:#D25A15;}
	.st88{clip-path:url(#SVGID_4_);fill-rule:evenodd;clip-rule:evenodd;fill:#DE6317;}
	.st89{clip-path:url(#SVGID_4_);fill-rule:evenodd;clip-rule:evenodd;fill:#DC6117;}
	.st90{clip-path:url(#SVGID_4_);fill-rule:evenodd;clip-rule:evenodd;fill:#D96B1A;}
	.st91{clip-path:url(#SVGID_4_);fill-rule:evenodd;clip-rule:evenodd;fill:#BB4D12;}
	.st92{clip-path:url(#SVGID_4_);fill-rule:evenodd;clip-rule:evenodd;fill:#CE5915;}
	.st93{clip-path:url(#SVGID_4_);fill-rule:evenodd;clip-rule:evenodd;fill:#A94310;}
	.st94{clip-path:url(#SVGID_4_);fill-rule:evenodd;clip-rule:evenodd;fill:#E49222;}
	.st95{clip-path:url(#SVGID_4_);fill-rule:evenodd;clip-rule:evenodd;fill:#E1781C;}
	.st96{clip-path:url(#SVGID_4_);fill-rule:evenodd;clip-rule:evenodd;fill:#E69B24;}
	.st97{clip-path:url(#SVGID_4_);fill-rule:evenodd;clip-rule:evenodd;fill:#A6420F;}
	.st98{clip-path:url(#SVGID_4_);fill-rule:evenodd;clip-rule:evenodd;fill:#C75514;}
	.st99{clip-path:url(#SVGID_4_);fill-rule:evenodd;clip-rule:evenodd;fill:#EEC42E;}
	.st100{clip-path:url(#SVGID_4_);fill-rule:evenodd;clip-rule:evenodd;fill:#E79F25;}
	.st101{clip-path:url(#SVGID_4_);fill-rule:evenodd;clip-rule:evenodd;fill:#EAAE29;}
	.st102{clip-path:url(#SVGID_4_);fill-rule:evenodd;clip-rule:evenodd;fill:#BF4F12;}
	.st103{clip-path:url(#SVGID_4_);fill-rule:evenodd;clip-rule:evenodd;fill:#D85F16;}
	.st104{clip-path:url(#SVGID_4_);fill-rule:evenodd;clip-rule:evenodd;fill:#DE6518;}
	.st105{clip-path:url(#SVGID_4_);fill-rule:evenodd;clip-rule:evenodd;fill:#DF6D19;}
	.st106{clip-path:url(#SVGID_4_);fill-rule:evenodd;clip-rule:evenodd;fill:#EBB42A;}
	.st107{clip-path:url(#SVGID_4_);fill-rule:evenodd;clip-rule:evenodd;fill:#E59724;}
	.st108{clip-path:url(#SVGID_4_);fill-rule:evenodd;clip-rule:evenodd;fill:#EDBD2C;}
	.st109{clip-path:url(#SVGID_4_);fill-rule:evenodd;clip-rule:evenodd;fill:#C35314;}
	.st110{clip-path:url(#SVGID_4_);fill-rule:evenodd;clip-rule:evenodd;fill:#C65515;}
	.st111{clip-path:url(#SVGID_4_);fill-rule:evenodd;clip-rule:evenodd;fill:#E38620;}
	.st112{clip-path:url(#SVGID_4_);fill-rule:evenodd;clip-rule:evenodd;fill:#D15916;}
	.st113{clip-path:url(#SVGID_4_);fill-rule:evenodd;clip-rule:evenodd;fill:#DF6919;}
	.st114{clip-path:url(#SVGID_4_);fill-rule:evenodd;clip-rule:evenodd;fill:#BD4E12;}
	.st115{clip-path:url(#SVGID_4_);fill-rule:evenodd;clip-rule:evenodd;fill:#D55C16;}
	.st116{clip-path:url(#SVGID_4_);fill-rule:evenodd;clip-rule:evenodd;fill:#D95F16;}
	.st117{clip-path:url(#SVGID_4_);fill-rule:evenodd;clip-rule:evenodd;fill:#91340A;}
	.st118{clip-path:url(#SVGID_4_);fill-rule:evenodd;clip-rule:evenodd;fill:#993A0E;}
	.st119{clip-path:url(#SVGID_4_);fill-rule:evenodd;clip-rule:evenodd;fill:#E7A226;}
	.st120{clip-path:url(#SVGID_4_);fill-rule:evenodd;clip-rule:evenodd;fill:#E9AA28;}
	.st121{clip-path:url(#SVGID_4_);fill-rule:evenodd;clip-rule:evenodd;fill:#E0771C;}
	.st122{clip-path:url(#SVGID_4_);fill-rule:evenodd;clip-rule:evenodd;fill:#D76317;}
	.st123{clip-path:url(#SVGID_4_);fill-rule:evenodd;clip-rule:evenodd;fill:#B94E13;}
	.st124{clip-path:url(#SVGID_4_);fill-rule:evenodd;clip-rule:evenodd;fill:#DF6C19;}
	.st125{clip-path:url(#SVGID_4_);fill-rule:evenodd;clip-rule:evenodd;fill:#A03D0E;}
	.st126{clip-path:url(#SVGID_4_);fill-rule:evenodd;clip-rule:evenodd;fill:#FBF83B;}
	.st127{clip-path:url(#SVGID_4_);fill-rule:evenodd;clip-rule:evenodd;fill:#F3DF35;}
	.st128{clip-path:url(#SVGID_4_);fill-rule:evenodd;clip-rule:evenodd;fill:#E4AC29;}
	.st129{clip-path:url(#SVGID_4_);fill-rule:evenodd;clip-rule:evenodd;fill:#EDCC30;}
	.st130{clip-path:url(#SVGID_4_);fill-rule:evenodd;clip-rule:evenodd;fill:#D4801F;}
	.st131{clip-path:url(#SVGID_4_);fill-rule:evenodd;clip-rule:evenodd;fill:#E0701A;}
	.st132{clip-path:url(#SVGID_4_);fill-rule:evenodd;clip-rule:evenodd;fill:#E8A727;}
	.st133{clip-path:url(#SVGID_4_);fill-rule:evenodd;clip-rule:evenodd;fill:#E59423;}
	.st134{clip-path:url(#SVGID_4_);fill-rule:evenodd;clip-rule:evenodd;fill:#E48F22;}
	.st135{clip-path:url(#SVGID_4_);fill-rule:evenodd;clip-rule:evenodd;fill:#EDBE2D;}
	.st136{clip-path:url(#SVGID_4_);fill-rule:evenodd;clip-rule:evenodd;fill:#E5A026;}
	.st137{clip-path:url(#SVGID_4_);fill-rule:evenodd;clip-rule:evenodd;fill:#D75E16;}
	.st138{clip-path:url(#SVGID_4_);fill-rule:evenodd;clip-rule:evenodd;fill:#F5E035;}
	.st139{clip-path:url(#SVGID_4_);fill-rule:evenodd;clip-rule:evenodd;fill:#F2D332;}
	.st140{clip-path:url(#SVGID_4_);fill-rule:evenodd;clip-rule:evenodd;fill:#E49122;}
	.st141{clip-path:url(#SVGID_4_);fill-rule:evenodd;clip-rule:evenodd;fill:#E69924;}
	.st142{clip-path:url(#SVGID_4_);fill-rule:evenodd;clip-rule:evenodd;fill:#E17B1D;}
	.st143{clip-path:url(#SVGID_4_);fill-rule:evenodd;clip-rule:evenodd;fill:#DE6117;}
	.st144{clip-path:url(#SVGID_4_);fill-rule:evenodd;clip-rule:evenodd;fill:#B34811;}
	.st145{clip-path:url(#SVGID_4_);fill-rule:evenodd;clip-rule:evenodd;fill:#E0721B;}
	.st146{clip-path:url(#SVGID_4_);fill-rule:evenodd;clip-rule:evenodd;fill:#E2821F;}
	.st147{clip-path:url(#SVGID_4_);fill-rule:evenodd;clip-rule:evenodd;fill:#E8A427;}
	.st148{clip-path:url(#SVGID_4_);fill-rule:evenodd;clip-rule:evenodd;fill:#D15915;}
	.st149{fill:#FFFFFF;}
</style>
<g>
	<defs>
		<path id="SVGID_1_" d="M20.5,19.5L6.7,41c-3,4.7-3.1,10.7-0.3,15.6l12.2,20.5c2.8,4.7,7.9,7.4,13.3,7.2l24.5-0.9
			c5.1-0.2,9.7-3,12.2-7.3l12.1-20.7C83.3,51,83.4,45.5,81,41L69,18.2c-2.8-5.3-8.6-8.4-14.6-7.8l-23,2.4
			C26.9,13.3,22.9,15.7,20.5,19.5z"/>
	</defs>
	<clipPath id="SVGID_2_">
		<use xlink:href="#SVGID_1_"  style="overflow:visible;"/>
	</clipPath>
	<g class="st0">
		<defs>
			<rect id="SVGID_3_" x="-132" y="-223.1" width="735.1" height="519.8"/>
		</defs>
		<clipPath id="SVGID_4_">
			<use xlink:href="#SVGID_3_"  style="overflow:visible;"/>
		</clipPath>
		<path class="st1" d="M-130.6,124.5v-6.7c0.8-0.9,1.7-0.5,2.6-0.2c1.2,0.5,2.3,0.1,3.5,0c3.5-0.3,6.9-0.6,10.4-0.7
			c6.5-0.2,13-0.6,19.6-1c5.2-0.3,10.3-0.5,15.5-0.8c7-0.4,14-0.6,21.1-1.1c1.5-0.1,3,0,4.5-0.1c1.7-0.1,2.7,0.6,3.1,2.3
			c0.7,8,1.1,16,1.7,23.9c0.3,4.3,0.3,8.7,0.3,13c0,3-0.1,3-3.1,3c-25.5,0-51,0-76.5,0c-0.9,0-1.9,0.2-2.7-0.6V135
			c0.6-3.4,0.4-7,1.1-10.4c0.1-0.8,0.5-1.5,0.7-2.3c0-0.2,0.1-0.3,0.1-0.5c-0.1,0.2-0.1,0.5-0.2,0.7c-0.3,0.7-0.4,1.4-1,2
			C-130.2,124.6-130.4,124.7-130.6,124.5"/>
		<path class="st2" d="M-130.6,38V9.9c0.9-0.6,2-0.5,3.1-0.5c6.1-0.1,12.2,0.1,18.3,0c5.1-0.1,10.2,0.1,15.3-0.1
			c3.2-0.2,6.5,0.2,9.7,0.2c0.7,0,1.5,0.1,2.1,0.7c0.1,0.2,0.2,0.4,0.2,0.6c-0.2,1.3-1.4,2-1.8,3.1c-0.1,0.2-0.2,0.3-0.3,0.4
			c-0.7,0.4-1.2,1.1-1.6,1.9c-0.1,0.1-0.2,0.3-0.3,0.4c-0.4,0.4-0.7,0.9-1,1.4c-0.1,0.2-0.3,0.4-0.5,0.6c-0.6,0.4-1,1-1.3,1.7
			c-0.2,0.4-0.5,0.7-0.9,1c-0.6,0.4-1,1-1.3,1.7c-0.4,0.6-0.7,1.2-1.3,1.6c-0.4,0.3-0.7,0.6-1.1,0.9c-0.1,0.1-0.2,0.2-0.3,0.3
			c-0.5,0.3-0.8,0.9-1.2,1.4c-0.1,0.1-0.2,0.3-0.3,0.4c-0.7,0.4-1.2,1.1-1.5,1.8c-0.1,0.2-0.2,0.3-0.2,0.4c-0.2,0.3-0.4,0.7-0.6,1.1
			c-0.4,0.7-1,1.3-1.6,1.7c-1.3,0.6-2.1,1.6-2.4,3c-0.6,0.7-1.1,1.4-1.7,2c-0.7,0.4-1.2,1-1.5,1.7c-0.8,0.6-1.1,1.5-1.5,2.3
			c-1.2,1.3-2.4,2.6-3.3,4c-0.2,0.3-0.6,0.6-0.4,1c0.2,0.5,0.7,0.4,1.2,0.3c3.4-0.1,6.8-0.6,10.2-0.9c5-0.4,10-0.8,15.1-1.3
			c6-0.6,12-1.1,18-1.7c4.6-0.4,9.3-0.9,13.9-1.3c0.8-0.1,1.6-0.1,2.4,0.3c0.2,0.1,0.3,0.3,0.4,0.5c0.2,0.9-0.3,1.6-0.9,2.1
			c-4.4,3.6-8.8,7.3-13.5,10.5c-2.2,0.8-3.6,2.6-5.3,3.9c-5.5,4.4-11.1,8.8-16.6,13.2c-2.7,2.1-5.3,4.3-7.9,6.4
			c-0.7,0.6-1.5,1-2.3,1.6c-0.7,0.5-1.6,0.6-2.4,0.8c-0.1,0-0.2,0.1-0.4,0.1c-7.2,0-14.4,0.6-21.6,0.5c-1.7,0-2.9-0.5-3.3-2.2
			c-0.1-4.6-0.1-9.3-0.5-13.9c-0.2-2.8,0-5.6-0.2-8.4c-0.1-1.4,1.1-2.2,2.2-3c1.9-1.5,4-2.8,5.6-4.5c0.2-0.8-0.3-1-0.9-1.4
			c-4.5-2.4-8.4-5.7-12.6-8.4C-130.2,39.3-130.2,38.5-130.6,38"/>
		<path class="st3" d="M-82.3,11.1c-0.5-1.1-1.5-0.7-2.3-0.7c-10.5,0-21,0-31.5,0c-4,0-7.9,0-11.9,0c-0.9,0-1.7,0-2.6-0.4v-35.6
			c0.7-1.7,2.2-2.8,3.5-4c0.5-0.4,1.1-0.6,1.7-0.4c0.2,0.1,0.3,0.2,0.5,0.3c5.7,4.6,11,9.8,16.5,14.6c4,3.5,7.9,7.1,11.8,10.6
			c4.3,3.8,8.5,7.7,12.9,11.4c0.9,0.7,1.4,1.7,2.3,2.5c0.2,0.2,0.3,0.5,0.3,0.8C-81.3,10.7-81.5,11.2-82.3,11.1"/>
		<path class="st4" d="M-130.6,158.6V156c0.6-0.3,1.2-0.2,1.8-0.2c25.8,0,51.7,0,77.5,0c0.3,0,0.6,0,0.9,0c0.4,0,0.9-0.1,1.1,0.5
			c0.1,0.5-0.1,0.9-0.4,1.2c-0.6,0.6-1.3,1.1-2,1.6c-2.9,2.1-5.5,4.7-8.9,6.1c-20.4,0.1-40.8,0-61.2,0c-3.4-0.9-6-2.9-8.1-5.6
			C-130.2,159.2-130.4,158.9-130.6,158.6"/>
		<path class="st5" d="M-130.6-42.1v-21c0.6-0.8,1.5-0.8,2.4-0.9c5.5-0.1,10.9,0.4,16.4,0.6c4.8,0.2,9.7,0.6,14.5,0.5
			c2.7,0,5.3,0.2,7.9,0.8c0.2,0.1,0.4,0.2,0.5,0.4c0.2,1-0.7,1.2-1.3,1.5c-10.8,5.7-22,10.5-33,15.7c-1.6,0.8-3.2,1.7-4.9,2.3
			C-129-41.8-129.9-41.3-130.6-42.1"/>
		<path class="st6" d="M-114.5,49.6c-2.3,1.8-4.5,3.6-6.8,5.3c-1.1,0.8-1.7,1.7-1.5,3.3c0.3,2.9,0.2,5.8,0.4,8.8
			c0.2,4,0.4,8,0.5,11.9c-0.7,1.3,0.5,2.6,0.3,3.9c-2.6,6.6-4.4,13.6-6.9,20.3c-0.4,1-0.3,2.5-2,2.5V46.6c0.5-0.6,1.1-0.9,1.8-0.7
			c4.2,0.9,8.5,0.8,12.5,2.4C-115.6,48.6-114.8,48.7-114.5,49.6"/>
		<path class="st7" d="M-89.1-61.6c-8.2-0.4-16.4-0.6-24.6-1c-5.6-0.3-11.3-0.7-17-0.5v-10.5c0.6-0.4,1.3-0.2,2-0.2
			c8.4,0,16.9,0,25.3,0c0.2,0,0.4,0,0.6,0c1.8,0.3,3.2,1.5,4.5,2.7c3.2,2.7,6.3,5.5,9.6,8.1c0.3,0.3,0.6,0.6,0.7,1
			c0,0.2-0.1,0.4-0.2,0.5C-88.4-61.2-88.8-61.3-89.1-61.6"/>
		<path class="st8" d="M-130.6-42.1c3.3-1,6.4-2.8,9.5-4.2c10.3-4.8,20.6-9.7,31-14.5c0.3-0.2,0.7-0.2,1.1-0.4
			c0.4,0.9-0.1,1.4-0.7,1.9c-7,5.9-13.9,11.9-20.9,17.9c-4.6,3.9-9.2,7.9-14,11.5c-0.2,0.2-0.5,0.2-0.8,0.1c-2.1,1-3.2,3.1-5.2,4.1
			V-42.1z"/>
		<path class="st9" d="M-60.6,164.9c2-2.1,4.6-3.6,6.8-5.5c1.3-1.1,2.7-2,3.9-3.5h-80.8v-0.4h78.9c2.7,0,2.7,0,2.7-2.7
			c0.8-0.1,1.1,0.6,1.5,1.1c1,2.2,3.2,3.2,4.8,4.8c1.6,1.6,3.4,2.9,5,4.5c0.5,0.5,1.2,1,0.5,1.8c-0.2,0-0.4,0-0.6,0
			c-6.9,0-13.9,0-20.8,0C-59.3,165.1-60,165.3-60.6,164.9"/>
		<path class="st10" d="M-130.6,105.4c1.5-2.9,2.2-6.1,3.3-9.1c1.4-3.7,2.6-7.5,3.9-11.2c0.3-0.8,0.4-1.7,0.7-2.5
			c1.5,0.2,1.2,1.4,1.1,2.3c-0.1,1.6-0.4,3.2-0.7,4.8c-1.3,7.9-2.4,15.8-3.7,23.7c-0.2,1.6-0.8,3-1.2,4.5c-0.3,0.4-0.6,0.7-1.1,0.3
			c-0.7-0.1-1.5-0.2-2.2-0.4V105.4z"/>
		<path class="st11" d="M-114.5,49.6c-2.1-1.1-4.3-1.2-6.6-1.6c-3.2-0.5-6.3-1-9.5-1.4V38c4.8,3.2,9.7,6.4,14.5,9.7
			C-115.5,48.2-114.4,48.4-114.5,49.6"/>
		<path class="st12" d="M341.5-73.9c1.7,0,3.5,0,5.2,0c0.7,0,0.9,0.1,0.8,0.8c-0.1,0.3,0,0.6,0,0.9V62.4c-0.3,0-0.5,0-0.7-0.2
			c-0.7-0.7-0.6-1.6-0.6-2.5c0-5.3-0.2-10.7,0.1-16c-0.3-4.8-0.2-9.5-0.1-14.3c0-0.6,0.1-1.2,0-1.8c-0.1-12.1,0-24.2,0-36.3
			c0-1.5,0-3-0.1-4.5c0.4-1.8,0-3.6,0-5.4c0.1-3.5,0-7.1,0.1-10.7c-0.1-12.5,0-24.9,0-37.4c0-1.1,0-2.1,0-3.2
			c-0.1-2.2-0.5-2.6-2.6-2.8c-0.7-0.1-1.4-0.1-1.9-0.6C341.6-73.5,341.5-73.7,341.5-73.9"/>
		<path class="st13" d="M106.4-73.9h122.1c0,0.3,0,0.5-0.2,0.7c-0.6,0.6-1.4,0.6-2.1,0.6c-4.5,0-9,0.1-13.5,0c-0.8-0.2-1.6,0-2.4,0
			c-23.4,0-46.7,0-70.1,0c-5.6,0.1-11.3,0-16.9,0.1c-1-0.4-2-0.1-3-0.1c-3.8,0-7.6,0-11.4,0c-0.8,0-1.6,0-2.3-0.6
			C106.4-73.5,106.3-73.7,106.4-73.9"/>
		<path class="st14" d="M-60.6,164.9c7.9,0,15.7,0.1,23.6,0.1c0.1,0.1,0.1,0.1,0.1,0.2c0,0.1-0.1,0.1-0.1,0.1c-30.6,0-61.3,0-91.9,0
			c-0.5,0-1.3,0.4-1.7-0.4c2.6-1.6,5.2-1.1,7.9,0C-102.1,164.9-81.3,164.9-60.6,164.9"/>
		<path class="st15" d="M186.9,165.3H94.8c0-0.3,0-0.5,0.2-0.7c0.7-0.7,1.6-0.6,2.5-0.6c7,0,14-0.2,20.9,0.1c1.5-0.2,3-0.1,4.5-0.2
			c17.2,0,34.4,0.1,51.6,0c0.9,0.3,1.8,0.2,2.7,0.1c2.6-0.2,5.3-0.1,8,0c0.6,0,1.1,0.1,1.5,0.5C186.9,164.8,186.9,165.1,186.9,165.3
			"/>
		<path class="st16" d="M-122.8,164.9c-2.6,0-5.2,0-7.9,0v-6.4C-127.9,160.6-125.2,162.6-122.8,164.9"/>
		<path class="st17" d="M281.6,165.3h-70.8c0-0.3,0-0.5,0.2-0.7c0.9-0.8,2-0.6,3-0.6c6.5,0,13-0.2,19.4,0.1c0.3,0,0.6-0.1,0.9-0.1
			c14.9-0.1,29.7,0,44.6,0c0.8,0,1.8-0.1,2.5,0.6C281.7,164.8,281.7,165.1,281.6,165.3"/>
		<path class="st18" d="M347.5,68v63.7c-0.3,0-0.5,0-0.7-0.2c-0.6-0.7-0.6-1.5-0.6-2.3c0-18.8,0-37.6,0-56.4c0-0.7,0.2-1.4,0.1-2
			c-0.2-0.7,0.2-1.4,0.2-2c0.1-0.2,0.2-0.4,0.3-0.6C347.1,67.9,347.3,67.9,347.5,68"/>
		<path class="st19" d="M78.3,165.3H25.9c-0.1-0.3-0.1-0.5,0.1-0.7c0.7-0.7,1.6-0.6,2.5-0.6c15.7,0,31.5,0,47.2,0
			c0.8,0,1.8-0.1,2.5,0.6C78.4,164.8,78.4,165.1,78.3,165.3"/>
		<path class="st20" d="M25.9,165c0,0.1,0,0.2,0,0.3h-43.8c0-0.3,0-0.5,0.2-0.7c0.7-0.7,1.6-0.6,2.5-0.6c12.3,0,24.7,0,37,0
			c1.2,0,2.3,0.3,3.5,0.5C25.5,164.6,25.7,164.8,25.9,165"/>
		<path class="st21" d="M106.4-73.9c0,0.1,0,0.2,0,0.3c-0.1,0.1-0.1,0.2-0.2,0.3c-0.8,0.7-1.8,0.6-2.7,0.6c-11.6,0-23.2,0-34.8,0
			c-0.9,0-1.9,0.1-2.7-0.6c-0.2-0.2-0.2-0.4-0.1-0.7H106.4z"/>
		<path class="st22" d="M-0.7-73.9H39c0,0.3,0,0.5-0.2,0.7c-0.7,0.6-1.6,0.6-2.5,0.6c-11.5,0-22.9,0-34.4,0c-0.9,0-1.8,0.1-2.5-0.6
			C-0.8-73.5-0.8-73.7-0.7-73.9"/>
		<path class="st23" d="M266.3-73.9h38.6c0,0.3-0.1,0.5-0.3,0.6c-1.1,0.4-2.3,0.6-3.5,0.6c-10.7,0-21.4,0-32.1,0
			c-0.9,0-1.8,0.1-2.5-0.6C266.3-73.5,266.2-73.7,266.3-73.9"/>
		<path class="st24" d="M304.8-73.6c0-0.1,0-0.2,0-0.3h36.7c0,0.1,0,0.2,0,0.3c-0.1,0.1-0.1,0.2-0.2,0.3c-1,0.8-2.3,0.6-3.4,0.6
			c-10.2,0.1-20.5,0-30.7,0.1c-0.7,0.2-1.3-0.3-2-0.5C305-73.2,304.9-73.4,304.8-73.6"/>
		<path class="st25" d="M-0.7-73.9c0,0.1,0,0.2,0,0.4c-0.1,0.2-0.3,0.4-0.6,0.5c-4.8,0.8-9.7,0.4-14.5,0.5c-5.3,0-10.6,0-15.9,0
			c-1,0-2.1,0.2-3-0.6c-0.2-0.2-0.2-0.4-0.1-0.7H-0.7z"/>
		<path class="st20" d="M281.6,165.3c0-0.1,0-0.2,0-0.3c0.2-0.3,0.5-0.5,0.9-0.6c9.5-0.7,19.1-0.2,28.6-0.4c1.1,0,2.3-0.2,3.2,0.6
			c0.2,0.2,0.2,0.4,0.2,0.7H281.6z"/>
		<path class="st26" d="M-74.8-73.9h32.2c0,0.3,0,0.5-0.2,0.7c-0.8,0.7-1.8,0.6-2.7,0.6c-8.8,0-17.7,0-26.5,0
			c-0.9,0-1.9,0.1-2.7-0.6C-74.9-73.5-75-73.7-74.8-73.9"/>
		<path class="st27" d="M-102.6-73.6c-9.4,0-18.7,0-28.1,0c0.3-0.8,1-0.4,1.5-0.4c8.9,0,17.7,0,26.6,0
			C-102.3-73.8-102.3-73.7-102.6-73.6"/>
		<path class="st28" d="M-102.6-73.6c0-0.1,0-0.2,0-0.3h27.7c0,0.1,0,0.2,0,0.3c-0.1,0.2-0.3,0.4-0.6,0.5c-1.5,0.4-2.9,0.5-4.5,0.5
			c-6,0-12,0-18,0c-1.5,0-3-0.1-4.4-0.9C-102.3-73.6-102.4-73.6-102.6-73.6"/>
		<path class="st29" d="M347.5,165c-0.3,0.8-1,0.4-1.5,0.4c-8.6,0-17.2,0-25.8,0c0-0.3,0-0.5,0.3-0.6c1.1-0.5,2.3-0.6,3.4-0.6
			c6.8,0,13.6,0,20.3,0c0.9,0,1.9,0,2.7,0.4C347.2,164.6,347.4,164.8,347.5,165"/>
		<path class="st30" d="M210.8,165c0,0.1,0,0.2,0,0.3h-24c0-0.1,0-0.2,0-0.3c0.1-0.1,0.1-0.2,0.2-0.3c0.9-0.6,2-0.6,3.1-0.6
			c5.4,0,10.7,0,16.1,0c1.5,0,3,0.2,4.4,0.6C210.7,164.8,210.8,164.9,210.8,165"/>
		<path class="st31" d="M39-73.6c0-0.1,0-0.2,0-0.4h21c0.1,0.2,0.1,0.4-0.1,0.6c-0.2,0.1-0.4,0.2-0.6,0.3
			c-5.9,0.8-11.9,0.2-17.9,0.3c-0.8,0-1.5-0.1-2.1-0.6C39.1-73.4,39.1-73.5,39-73.6"/>
		<path class="st32" d="M347.5,165c-0.1,0-0.3,0-0.4,0c-0.9-0.7-0.8-1.8-0.8-2.7c0-3.5,0-7.1,0-10.6c0.3-1.2-0.1-2.4,0-3.7
			c0.1-0.9,0.1-1.8,0.6-2.6c0.2-0.2,0.4-0.3,0.6-0.2V165z"/>
		<path class="st33" d="M228.5-73.6v-0.3h19.8c0,0.3,0,0.5-0.2,0.7c-0.7,0.6-1.5,0.5-2.3,0.6c-5,0.1-9.9,0.1-14.9,0
			c-0.8,0-1.6,0-2.3-0.6C228.6-73.4,228.5-73.5,228.5-73.6"/>
		<path class="st34" d="M248.3-73.6c0-0.1,0-0.2,0-0.3h18c0,0.1,0,0.2,0,0.3c-0.1,0.1-0.1,0.2-0.2,0.3c-1.4,1-3,0.5-4.5,0.6
			c-1.3,0.1-2.6,0-3.9-0.1c-2.2,0.2-4.3,0.2-6.5,0.1c-0.9,0-1.9-0.1-2.7-0.6C248.4-73.4,248.4-73.5,248.3-73.6"/>
		<path class="st35" d="M78.3,165.3c0-0.1,0-0.2,0-0.3c0.1-0.2,0.3-0.4,0.5-0.5c4.6-0.9,9.3-0.4,14-0.4c0.6,0,1.2,0.2,1.8,0.6
			c0.1,0.1,0.1,0.2,0.2,0.3c0,0.1,0,0.2,0,0.3H78.3z"/>
		<path class="st35" d="M-37,165.3c0-0.1,0-0.2,0-0.3l0-0.1c0.4-0.7,1.1-0.8,1.8-0.8c4-0.1,8.1-0.1,12.1,0c0.7,0,1.4,0.2,2,0.6
			c0.2,0.2,0.3,0.4,0.2,0.7H-37z"/>
		<path class="st36" d="M347.2,131.6c0.1,0,0.2,0,0.4,0v10.5c-0.3,0-0.5,0-0.7-0.2c-0.3-0.3-0.5-0.7-0.5-1.2c0-3-0.7-6,0.5-9
			C347,131.7,347.1,131.7,347.2,131.6"/>
		<path class="st37" d="M-42.6-73.6c0-0.1,0-0.2,0-0.4h7.9c0,0.1,0,0.2,0,0.4c-0.1,0.2-0.3,0.4-0.5,0.5c-2.4,0.4-4.8,1-7.2-0.2
			C-42.5-73.4-42.6-73.5-42.6-73.6"/>
		<path class="st38" d="M320.2,165c0,0.1,0,0.2,0,0.3h-5.6c0-0.1,0-0.2,0-0.3c0.1-0.1,0.1-0.2,0.2-0.3c1.8-0.9,3.5-0.9,5.3,0
			C320.1,164.8,320.1,164.9,320.2,165"/>
		<path class="st39" d="M347.5,68c-0.1,0-0.2,0-0.4,0c-1.6-1.7-0.9-3.6-0.3-5.4c0.1-0.1,0.2-0.1,0.3-0.2c0.1,0,0.2,0,0.3,0V68z"/>
		<path class="st40" d="M60-73.6c0-0.1,0-0.2,0-0.4h3.7c0.1,0.2,0.1,0.4-0.1,0.6c-0.2,0.1-0.4,0.2-0.6,0.3
			C62-73.2,60.8-72.2,60-73.6"/>
		<path class="st41" d="M347.2,142.1c0.1,0,0.2,0,0.3,0v3c-0.1,0-0.2,0-0.4,0c-0.1-0.1-0.2-0.1-0.3-0.2c-0.8-0.9-0.5-1.8,0-2.7
			C347,142.2,347.1,142.2,347.2,142.1"/>
		<path class="st42" d="M-20.9,165.3c0-0.1,0-0.2-0.1-0.4c0.1-0.1,0.1-0.2,0.2-0.3c0.9-0.8,1.8-0.3,2.7,0c0.1,0.1,0.1,0.2,0.2,0.3
			c0,0.1,0,0.2,0,0.3H-20.9z"/>
		<path class="st43" d="M63.7-73.6c0-0.1,0-0.2,0-0.4h2.2c0,0.1,0,0.2,0,0.3c-0.2,0.3-0.4,0.5-0.8,0.6C64.6-73,64-73,63.7-73.6"/>
		<path class="st44" d="M-128.4,118.2c0.3-0.1,0.5-0.2,0.8-0.4c1.4-3.6,4.2-6.1,6.6-8.9c3.7-4.3,7.2-8.8,11-13.1
			c4.3-4.9,8.2-10.3,12.7-15.1c0.1-0.1,0.1-0.2,0.1-0.4c0.6-0.2,1.2-0.5,1.9-0.7c1.1,0.3,2.1-0.2,3.1-0.3c0.7-0.1,1.5-0.3,2.2-0.2
			c8.4,0.7,16.8-0.3,25.2,0c0.4,0,0.8,0,1.1,0.1c0.9,0.3,1,1.3,1.4,2c0.4,0.7,0.5,1.5,0.8,2.2c3.6,9.1,6.7,18.3,10,27.5
			c0.5,1.3,1.1,2.6,1,4.1c0,0.6-0.1,1.1-0.7,1.3c-0.3-1.1-0.8-1.6-2.2-1.6c-8.9,0.5-17.8,0.8-26.6,1.2c-7.1,0.4-14.1,0.7-21.2,1.2
			c-7.7,0.5-15.5,0.4-23.2,1.4C-125.8,118.6-127.2,118.8-128.4,118.2"/>
		<path class="st45" d="M-51.3,116.3c0-0.5,0.1-1,0.1-1.5c1.7-1.5,3.3-0.1,4.9,0.2c0.8,0.1,1.6,0.6,2.2,1.3c0.8,2.1,0.1,4.2-0.1,6.2
			c-0.7,6.9-1.5,13.8-2.1,20.7c-0.5,2.8-0.7,5.6-0.9,8.5c-0.3,0.9,0.1,2.2-1.1,2.8c-0.2-0.5-0.5-1-0.7-1.5
			c-0.2-7.6-0.8-15.3-1.4-22.9C-50.7,125.5-51,120.9-51.3,116.3"/>
		<path class="st46" d="M-62.9,81.5c-0.2-0.6-0.5-1.3-0.7-1.9c-0.8-0.5-0.8-1.3-0.8-2.1c-0.1-6.8-0.1-13.7,0-20.6
			c0-0.9,0.2-1.7,0.9-2.4c4.9-3.9,9.7-7.7,14.6-11.6c1.6-0.4,3.2-0.5,4.8-0.5c12.3-0.1,24.5,0.4,36.8,0.5c6.6,0.1,13.3,0.1,20,0.3
			c3.3,0.5,6.5,0.8,9.9,0.7c0.6,0,1.2,0,1.4,0.7c0.2,0.6-0.2,1.1-0.6,1.5c-2.3,2-4.8,3.8-7.2,5.6C9.7,56.3,3.5,61.1-2.7,65.8
			c-4.4,3.3-8.7,6.7-13.1,10c-1.8,1.4-4.1,2.2-5.6,4c-0.7,0.5-1.4,1-2.1,1.3c-5.8,0.2-11.6,0.2-17.4-0.1c-6.5-0.4-12.9-0.1-19.4-0.1
			c-0.6,0-1.1,0.2-1.6,0.4C-62.2,81.5-62.6,81.5-62.9,81.5"/>
		<path class="st47" d="M13.1,44c-5.4,0-10.9,0.3-16.3-0.1c-8-0.5-16,0.1-23.9-0.4c-6.7-0.4-13.3-0.1-20-0.3c-0.7,0-1.4,0.1-2-0.4
			c0-0.1,0-0.2,0-0.4c0-0.4,0.2-0.7,0.5-0.9C-45,38-40.9,35-37,31.8c0.5-0.4,1.1-0.8,1.8-1.1c2.4-0.1,4.4-1.4,6.5-2.2
			c5.3-2,10.6-3.9,15.9-6c5.1-2,10.2-3.8,15.3-5.8c3.5-1.3,6.9-2.9,10.6-3.6c1.1-0.2-0.5-0.7,0.1-1c1.4-1.2,2.9-0.8,4.5-0.5
			c0.8,0.4,1.1,1,1.3,1.9c2,9.3,3.7,18.7,5.8,28c0.2,1,0.5,2.1-0.8,2.7c-3-0.1-5.9,0-8.9-0.1C14.3,44.2,13.7,44.3,13.1,44"/>
		<path class="st48" d="M-48.3,42.1c-0.2,0.1-0.5,0.3-0.7,0.4c-5.5,0.1-10.9,0.9-16.4,1.4c-4.6,0.4-9.2,0.8-13.7,1.3
			c-6.5,0.6-13,1.2-19.5,1.8c-4.1,0.4-8.3,0.8-12.4,1.2c-0.5,0-1.1,0.2-1.3-0.4c-0.2-0.5,0.3-0.8,0.6-1.1c1.7-2,3.4-4,5-6
			c4.9-3.1,10.2-5.3,15.5-7.8c5.8-2.7,11.5-5.5,17.4-8.2c5.1-2.3,10.1-4.8,15.2-7.1c3-1.4,6-2.8,8.9-4.4c1-0.6,2-0.9,3.2-1.2
			c-0.4-0.4-0.9-0.7-0.6-1.3c0.6-0.9,1.5-1,2.4-0.7c0.6,0.2,1.1,0.4,1.7,0.5c0.4,0.2,0.8,0.4,1,0.8c0.1,2.3-0.7,4.5-1.1,6.8
			c-0.9,4.5-1.4,9.1-2.4,13.6C-46.3,35.2-46.3,39-48.3,42.1"/>
		<path class="st49" d="M-47.1,11.1c0.8,0.6,1.8,0.2,3.1,0.5c-7,3.4-13.8,6.6-20.5,9.8c-5.3,2.5-10.6,5-15.8,7.4
			c-5.4,2.5-10.8,4.9-16.2,7.5c-3.3,1.6-6.4,3.5-10,4.3c0.5-0.6,1-1.3,1.5-1.9c-0.1-1.1,0.9-1.3,1.5-1.9c0.5-0.6,1-1.2,1.5-1.9
			c0.8-1.1,1.7-2.3,2.6-3.4c0.7-0.3,1.2-0.8,1.5-1.5c0.2-0.4,0.5-0.7,0.7-1.1v0c0.5-0.8,1.4-1.4,1.9-2.2c0.4-0.7,1.1-1.2,1.5-1.9v0
			c0.3-0.5,0.7-0.8,1.1-1.1c0.6-0.3,0.8-0.9,1.1-1.5c0.4-0.7,1.1-1.2,1.5-1.9c0.2-0.2,0.5-0.5,0.7-0.7c0.4-0.7,1.1-1.2,1.5-1.9
			c0.1-0.1,0.2-0.2,0.4-0.4c0.3-0.5,0.8-1,1.1-1.5v0c0.5-0.8,1.4-1.4,1.9-2.2c0.6-1,1.6-1.6,2.2-2.6c0.4-0.3,0.7-0.6,0.7-1.1
			c1.9-1,4-0.5,6-0.4c1.6,0.1,3.1,0.3,4.7,0.2c7.2-0.2,14.4,0.5,21.6,0.5C-48.5,10.3-47.6,10.2-47.1,11.1"/>
		<path class="st50" d="M-97.3,80.3c1.1,0.5,0.5,1,0,1.5c-4.9,5.8-9.9,11.7-14.7,17.5c-4.8,5.8-9.6,11.6-14.3,17.3
			c-0.4,0.4-0.7,0.9-1.3,1.1c0.9-6,1.9-11.9,2.8-17.9c0.8-5.1,1.6-10.2,2.4-15.3c0.1-0.7,0.1-1.4-0.3-2c0.3-1.2,0.2-2.6,0.7-3.7
			c-0.2,1.5,0.6,1.9,2,1.9C-112.5,80.6-104.9,80.5-97.3,80.3"/>
		<path class="st3" d="M-63.6,54.5c0,8.4,0,16.7,0,25.1c-0.7,0.3-1.4,0.4-2.2,0.4c-4.7,0.1-9.3,0.1-14,0.2c-2.9,0.1-5.9,0.8-8.9-0.2
			c-1-0.3-2.2,0-3.3,0.2c-1.1,0.1-2.5,0.7-3.4-0.6c5-4.4,10.4-8.5,15.6-12.6c4.8-3.8,9.7-7.5,14.3-11.6
			C-65.1,54.8-64.4,54.4-63.6,54.5"/>
		<path class="st3" d="M-99.6,31.7c-0.6,1.4-1.4,2.5-2.6,3.4C-101.7,33.6-100.8,32.5-99.6,31.7"/>
		<path class="st3" d="M-82.3,11.1c-0.3,1.2-1.3,1.9-2.2,2.6C-84.3,12.4-83.3,11.8-82.3,11.1"/>
		<path class="st3" d="M-84.6,13.7c-0.2,1.1-1.1,1.7-1.9,2.2C-86.2,14.9-85.4,14.3-84.6,13.7"/>
		<path class="st3" d="M-95.4,26.8c-0.2,1.1-1.1,1.7-1.9,2.2C-97.1,28-96.3,27.4-95.4,26.8"/>
		<path class="st3" d="M-103.7,36.9c-0.5,0.6-1,1.2-1.5,1.9C-105.5,37.5-104.5,37.2-103.7,36.9"/>
		<path class="st3" d="M-90.2,20.4c-0.2,0.9-0.8,1.4-1.5,1.9C-91.5,21.4-90.9,20.9-90.2,20.4"/>
		<path class="st3" d="M-88,17.8c-0.2,0.9-0.8,1.4-1.5,1.9C-89.3,18.8-88.7,18.3-88,17.8"/>
		<path class="st3" d="M-93.9,24.9c-0.2,0.9-0.8,1.4-1.5,1.9C-95.3,25.9-94.6,25.4-93.9,24.9"/>
		<path class="st3" d="M-86.5,15.9c-0.1,0.7-0.5,1.2-1.1,1.5C-87.5,16.7-87,16.3-86.5,15.9"/>
		<path class="st3" d="M-97.3,29c-0.1,0.5-0.3,0.9-0.7,1.1C-98.3,29.5-97.7,29.3-97.3,29"/>
		<path class="st3" d="M-92.8,23.8c-0.4,0.4-0.7,0.7-1.1,1.1C-93.8,24.3-93.5,23.9-92.8,23.8"/>
		<path class="st46" d="M-125.4-29.8c0.1-0.1,0.3-0.2,0.4-0.4c4.3-3.1,9.3-4.8,14.1-6.8c12.8-5.5,25.5-11,38.3-16.4
			c8-3.4,15.9-6.8,23.9-10.2c1.4-0.6,3.1-0.6,4.3-1.7c0.6-0.3,1.2-0.3,1.7,0.1c0.7,0.8,0.2,1.5-0.2,2.2c-0.6,1.1-1.5,1.9-2.3,2.9
			c-1.6,2.8-3.7,5.3-5.6,7.9c-4.6,7.1-9.8,13.7-14.5,20.6c-2.1,3-4.2,6-6.5,8.8c-0.2,0.3-0.4,0.7-0.8,0.8c-0.4,0.2-0.8,0-1.2,0
			c-3.9-0.3-7.8-0.9-11.7-1.3c-7-0.8-13.9-1.9-20.9-2.7c-5.3-0.6-10.6-1.3-15.9-2.2c-1.1-0.2-2-0.9-3.1-1.2
			C-125.4-29.5-125.4-29.6-125.4-29.8"/>
		<path class="st51" d="M-125.4-29.4c5.2,0.7,10.5,1.4,15.7,2c5.8,0.7,11.7,1.4,17.5,2.2c3.1,0.4,6.2,0.8,9.2,1.2
			c3.2,0.4,6.4,0.9,9.6,1.3c0.7,1,0.8,2,0.4,3.2c-1.6,5-2.6,10.1-4.1,15.1c-1.1,3.9-2.1,7.8-3,11.7c-0.3,1.1-0.7,2-1.9,2.2
			c-3.8-3.4-7.6-6.7-11.4-10.1c-6.6-5.9-13.2-11.7-19.7-17.6C-117.2-21.9-121.3-25.7-125.4-29.4"/>
		<path class="st52" d="M-80.4,10.6c1.7-2.8,2-6,2.8-9c1.9-6.4,3.4-12.9,5.1-19.4c0.3-1.3,0.5-2.6,0.7-3.8c0.3,0.1,0.5,0.2,0.8,0.4
			c1-0.4,1.5,0.4,2,1c4.7,5,9.3,10.2,13.8,15.4c3.8,4.3,7.6,8.7,11.5,13c1,1.1,2.3,2.1,2.4,3.8c-0.1,0.1-0.1,0.1-0.2,0.2
			c-1.4,0-2.7-0.6-4.1,0c-9,0.3-17.9-0.5-26.9-0.5c-2.5,0-5.1,0.2-7.6-0.6C-80.2,10.8-80.3,10.7-80.4,10.6"/>
		<path class="st53" d="M-44.1-64.6C-53.1-60.8-62-56.9-71-53.1c-13.6,5.8-27.3,11.7-40.9,17.5c-4.4,1.9-8.6,3.9-13.1,5.5
			c2.6-2.8,5.8-5.1,8.7-7.6c5.9-5.2,11.9-10.2,17.8-15.3c3.2-2.7,6.3-5.4,9.5-8.1c0-0.1,0-0.3,0-0.4c0.4,0,0.7,0,1.1,0
			c1-0.9,2.3-1.1,3.6-1.3c11.8-0.9,23.7-1.7,35.5-2.9c1.1-0.1,2.2-0.1,3.4,0C-44.8-65.7-44.1-65.5-44.1-64.6"/>
		<path class="st54" d="M-44.1-64.6c-1.4-0.7-2.8-0.5-4.2-0.3c-5.9,0.6-11.8,1-17.7,1.5c-6.9,0.5-13.9,1.2-20.8,1.8
			c-0.4,0-0.7,0-1.1,0c0-0.1,0-0.2,0-0.4c-0.4-0.8,0-1.3,0.5-1.8c3.2-2.9,6.6-5.6,9.7-8.6C-77-73-76-73-75.2-73.5
			c0.1,0,0.2,0,0.4-0.1c10.7,0,21.5,0,32.2,0l0,0c0.6,0.4,0.9,1.1,0.9,1.8c0,2,0.4,4,0,5.9c-0.1,0.5-0.4,0.8-0.9,0.9
			C-43.1-64.8-43.6-64.7-44.1-64.6"/>
		<path class="st46" d="M-75.2-73.5c-2.7,2.5-5.5,5-8.2,7.5c-1.5,1.4-3,2.7-4.5,4.1c-2.3-0.7-3.7-2.6-5.5-4.1c-3-2.5-5.8-5-8.7-7.5
			C-93.2-73.5-84.2-73.5-75.2-73.5"/>
		<path class="st55" d="M-48.3,154.4c0-1,0.1-1.9,0.1-2.9c0.4-1.7,1.8-1.7,3.1-1.5c3.7,0.5,7.5,0.8,11.3,1.3
			c1.7,0.2,3.5,0.4,5.1,0.8c0.7,0.2,1.5,0.4,1.9,1c0.6,0.7,1,1.5,1.5,2.3c1.1,2.3,2.4,4.6,3.8,6.8c0.5,0.8,1.3,1.8,0.5,2.9l-0.1,0
			c-5.4,0-10.7,0-16.1,0c-3.4-3-6.8-5.9-10.2-8.8C-47.8,155.6-48.3,155.2-48.3,154.4"/>
		<path class="st4" d="M347.1-13.3c0,13.6,0,27.2,0,40.8c-1.2,2.5-3.8,3.5-5.9,5c-4.8,3.6-9.8,6.9-14.6,10.4
			c-1.1,0.8-2.5,0.8-3.5,1.8c-0.2,0-0.4,0-0.6,0c-0.8-0.4-1.3-1.1-1.7-1.9c-4.9-9.9-9.8-19.7-14.7-29.6c-1-2-2.5-3.8-2.6-6.1
			c0.7-1.7,1.7-3.2,3-4.5c6.7-6.5,12.8-13.6,19.4-20.2c2-2,3.8-4.1,6-5.8c0.2-0.1,0.4-0.1,0.6-0.1c0.4,0,0.7,0.2,1.1,0.4
			c2.5,1,4.4,2.8,6.6,4.2c1.6,1,3.3,2,4.8,3.1C346-15.1,346.7-14.4,347.1-13.3"/>
		<path class="st3" d="M322.8,44.4c0.1,0,0.2,0,0.4,0c1.4-0.7,2.8-0.9,4.3-0.9c5.9,0.2,11.7-0.5,17.6-0.4c0.8,0,1.5-0.1,2,0.6
			c0,6.2,0,12.5,0,18.7l-0.1,0.1c-0.5,0.9-1.2,1.5-2.1,2c-4.8,2.4-9.5,5-14.3,7.3c-3.2,1.5-6.2,3.4-9.4,4.9
			c-1.4,0.6-2.8,1.3-4.4,1.4c-0.2-0.1-0.4-0.2-0.5-0.4c-0.7-1.4-0.2-2.8,0.1-4.2c1.6-8.5,3.1-16.9,4.7-25.4c0.1-0.8,0.6-1.4,0.7-2.1
			C322.1,45.4,322.2,44.7,322.8,44.4"/>
		<path class="st7" d="M333.3-22.6c-0.2-0.1-0.5-0.2-0.7-0.4c-0.7-0.6-0.8-1.3-0.4-2.2c2-5,3.6-10.2,5.3-15.3
			c1.9-6,4.2-11.8,5.9-17.9c-0.5-4.1-1.5-8.1-2.1-12.1c-0.2-1-0.7-2.1,0.4-3l0-0.1c0.6,0,1.2,0,1.9,0c4.2,0,3.7-0.4,3.7,3.9
			c0,13.4,0,26.9,0,40.3c-0.3,0.6-0.7,1.2-1.4,1.5c-3.8,1.7-7.7,3.3-11.6,5C333.9-22.7,333.6-22.7,333.3-22.6"/>
		<path class="st56" d="M347.1,43.6c-8,0.7-16,0.8-23.9,0.7c0.9-1.5,2.6-1.9,3.9-2.8c6.1-4.5,12.3-8.7,18.5-13.1
			c0.5-0.4,1.1-0.6,1.6-1C347.1,32.9,347.1,38.3,347.1,43.6"/>
		<path class="st44" d="M333.3-22.6c0.8-1.7,2.5-1.9,3.9-2.5c3.3-1.5,6.6-2.8,9.9-4.2c0,5.4,0,10.7,0,16.1
			C342.5-16.4,337.9-19.5,333.3-22.6"/>
		<path class="st57" d="M140.1-73.6c24.2,0,48.4,0,72.6,0c0.8,0.7,0.4,1.5,0.1,2.3c-1.6,3.7-3,7.5-4.7,11.2
			c-0.3,0.5-0.1,1.1-0.4,1.6c-0.4,0.5-0.9,0.5-1.5,0.5c-7.2,0-14.3-1.1-21.4-1.7c-6-0.5-11.9-1.1-17.8-1.7
			c-5.6-0.6-11.3-1.1-16.9-1.6c-3.3-0.3-6.7-0.8-10-1c-1.1-0.1-2.2-0.2-3.2-0.8c-0.4-0.3-0.8-0.8-0.6-1.3
			C136.9-68.8,137.4-71.8,140.1-73.6"/>
		<path class="st58" d="M140.1-73.6c-1.2,2.7-2.6,5.3-3.4,8.2c-0.3,0.6-0.9,0.8-1.5,0.9c-4.5,1.6-9.2,2.4-13.9,3.5
			c-3.4,0.8-6.8,1.6-10.2,2.3c-0.7,0.2-1.4,0.5-2.2,0.2c-0.2-0.1-0.4-0.2-0.5-0.3c-0.8-1.4,0.2-2.3,1-3.1c3.5-3.4,7.1-6.7,10.7-9.9
			c0.9-0.8,2-1.3,3-1.8C128.8-73.5,134.5-73.6,140.1-73.6"/>
		<path class="st59" d="M207.5-59c-0.5-0.6-0.2-1.1,0-1.7c1.7-4,3.4-8.1,5-12.1c0.1-0.2,0.1-0.5,0.2-0.7c5.2,0,10.5,0,15.7-0.1
			l0,0.1c0.8,0.6,0.8,1.4,0.7,2.3c-0.2,1.1-0.2,2.3-0.5,3.4c-0.2,1.3-0.4,2.5-1.3,3.5c-3.3,0.9-6.4,2.2-9.6,3.2
			c-2.7,0.8-5.4,1.8-8.2,2.5C208.8-58.5,208.1-58.2,207.5-59"/>
		<path class="st60" d="M123.2-73.5c-2,2.3-4.4,4.1-6.6,6.2c-2.5,2.4-5.1,4.6-7.4,7.2c-0.3,0.3-0.4,0.8-0.6,1.1
			c-1.1,0.7-1.7,0.1-1.9-0.9c-0.6-3.9-1-7.8-1.2-11.7c-0.1-0.8,0.2-1.5,0.8-2c0,0,0,0,0,0C112-73.6,117.6-73.6,123.2-73.5"/>
		<path class="st61" d="M174.5,164.9c-18.7,0-37.5,0-56.2,0c-0.4-0.4-1-0.7-1.1-1.4c-0.6-3.5-1.7-7-2.2-10.6c-0.1-0.7,0-1.4,0.3-2
			c0.2-0.3,0.5-0.5,0.8-0.5c1.6,0.5,3.2-0.4,4.8-0.4c16.4-0.2,32.8-0.1,49.1-0.2c7.5-0.1,15.1-0.3,22.6-0.3c1.1,0,2.2-0.1,3.3,0.2
			c1.1,0.7,1.3,1.5,0.2,2.5c-0.5,0.4-0.8,1.1-1.2,1.6c-4.1,2.8-8.5,5-12.8,7.5C179.8,162.8,177.3,164,174.5,164.9"/>
		<path class="st2" d="M115.7,151.1c0.3,2,0.8,4.1,1.2,6.1c0.5,2.6,1.4,5.1,1.5,7.7c-7.9,0-15.7,0.1-23.6,0.1l0-0.1
			c-2.8-1.3-3.8-4-5-6.5c-0.5-1,0.2-1.9,0.8-2.8c0.8-1.3,2.3-2.4,2.4-4.1c0.1-0.3,0.2-0.5,0.2-0.8c0.2-0.6,0.5-1,1.1-1.3
			c0.3-0.1,0.6,0,1,0c5.9-0.4,11.8,0.5,17.7,0.4C113.9,149.9,115.1,150,115.7,151.1"/>
		<path class="st51" d="M174.5,164.9c1.5-1.8,3.7-2.4,5.6-3.5c4.7-2.7,9.5-5.4,14.2-8.1c0.7-0.4,1.2-1,1.9-1.5
			c0.4-0.3,0.9-0.6,1.3-0.2c0.6,0.5,0.2,1-0.1,1.5c-0.5,0.9-1.3,1.5-1.8,2.3c-2.6,3.4-5.1,7-8.8,9.4l0,0.1
			C182.8,165,178.7,164.9,174.5,164.9"/>
		<path class="st61" d="M282.4,164.9c-0.3,0-0.5,0-0.8,0.1c-14.4,0-28.7,0-43.1,0c-1.4,0-2.7,0-4.1,0c-1-0.5-1.7-1.2-2-2.3
			c-0.5-1.4-1.3-2.7-1.9-4c-0.4-0.9-0.7-1.7-0.1-2.6c0.3-0.4,0.7-0.5,1.2-0.6c4.8-0.7,9.7-0.7,14.5-1.1c7.3-0.5,14.7-0.9,22-1.4
			c4.7-0.3,9.3-0.5,14-0.9c7.1-0.6,14.2-0.8,21.2-1.3c3.2-0.2,6.4-0.8,9.7-0.3c1.2,0.5,1.1,1.2,0.2,1.9c-0.9,0.7-2,1-3,1.4
			c-7.6,3.4-15.3,6.6-22.9,9.9C285.7,164.3,284,164.3,282.4,164.9"/>
		<path class="st51" d="M230.7,156.4c0.8,3,2.6,5.7,3.7,8.6c-7.9,0-15.7,0-23.6,0.1c0,0,0-0.1,0-0.1c-4.3-0.9-7.4-3.8-11-5.9
			c-1-0.6-2.1-1.1-3-1.8c-0.6-0.5-1.3-0.8-1.3-1.7c1.1-1.6,1.8-3.5,4-4c3.6-0.2,7.2,0.7,10.7,1.1c6.2,0.8,12.3,1.6,18.5,2.5
			C229.5,155.2,230.4,155.3,230.7,156.4"/>
		<path class="st56" d="M347.1,70.2c0,20.5,0,40.9,0,61.4l0,0c-0.5,0.8-1.1,1.3-2,1.6c-7,2.6-14.1,5.1-21.1,7.6
			c-1.1,0.4-2.3,1.2-3.5,0.3c-0.6-1.2,0.2-2,0.7-2.9c3-5.2,6-10.3,9.2-15.4c1.9-2.9,1.8-6,1.4-9.1c-0.1-1-0.4-2.1-0.4-3.1
			c0.1-7.7-0.6-15.4-0.4-23.1c0.1-2.8-0.7-5.7-0.1-8.5c0.6-2.3,2.7-2.8,4.4-3.7c2.8-0.2,4.9-1.9,7.2-3.2c1-0.5,1.9-1.1,2.9-1.7
			C345.9,69.9,346.5,69.7,347.1,70.2"/>
		<path class="st62" d="M335.5,75.8c-1.4,0.9-2.7,1.8-4.1,2.7c-0.6,0.8-1.5,0.8-2.3,0.9c-3.5,0.2-6.9-0.4-10.3-0.4
			c-0.7,0-1.5-0.1-1.6-1.2c10-5.1,19.9-10.2,29.9-15.3c0,1.9,0,3.7,0.1,5.6c0,0.1-0.1,0.2-0.1,0.3c-0.5,1.1-1.3,1.7-2.3,2.3
			c-2.5,1.5-5,2.9-7.5,4.5C336.8,75.4,336.2,75.8,335.5,75.8"/>
		<path class="st63" d="M335.5,75.8c3.9-2.5,7.7-5,11.6-7.5c0,0.7,0,1.3,0,2c-3.2,1.7-6.4,3.4-9.6,5.1
			C336.9,75.7,336.3,76.3,335.5,75.8"/>
		<path class="st64" d="M93.7,151.1c0.1,0.1,0.3,0.2,0.4,0.4c-2.7,3.6-6.2,6.5-9.7,9.4c-1.8,1.5-3.3,3.4-5.7,4.1
			c-0.1,0-0.3,0-0.4,0.1c-17.5,0-34.9,0-52.4,0c-0.1,0-0.3,0-0.4-0.1c-3.1-0.8-5.1-3.3-7.5-5.1c-0.9-0.6-1.7-1.3-2.4-2
			c-0.5-0.5-1-1-0.7-1.8c1.9-1.2,4-1.1,6.1-1.3c8.8-0.5,17.6-1.1,26.5-1.7c8.4-0.5,16.9-1,25.3-1.7c6-0.5,11.9-0.7,17.9-1.1
			C91.6,150.2,92.9,149.9,93.7,151.1"/>
		<path class="st9" d="M15.1,156.7c3.2,2,5.9,4.6,8.9,6.9c0.5,0.4,1,0.9,1.5,1.3c-14.5,0-28.9,0-43.4,0.1l-0.1,0
			c-2.2-0.8-3.2-2.7-4.4-4.4c-1.1-1.7-2.2-3.5-3.3-5.2c-0.4-0.8-1.1-1.5-1.3-2.5c0.1-0.2,0.3-0.3,0.5-0.4c4.4-0.7,8.7,0.3,13,0.5
			c6,0.3,11.9,1,17.8,1.3c3.4,0.2,6.8,0.4,10.2,1.1C14.9,155.8,14.7,156.4,15.1,156.7"/>
		<path class="st65" d="M106.4-73.6c0,4.5,0.9,8.9,1.1,13.4c0,0.7,0.3,1.2,1.1,1.2l0,0c-0.1,1-0.8,1-1.5,1
			c-4.8-0.1-9.5-0.9-14.3-1.4c-8.5-0.9-16.9-1.9-25.4-2.8c-3.6-0.4-7.2-0.9-10.7-1.2c-1-0.1-1.8-0.7-2.9-0.8
			c-0.2-0.1-0.4-0.2-0.5-0.4c-0.4-1,0.2-1.5,0.9-2c0.8-0.7,1.7-1.4,2.6-2.1c2.1-0.9,4.1-2.1,5.8-3.5c0.8-0.6,1.7-0.9,2.6-1.3
			c0.2,0,0.4-0.1,0.7-0.1C79.4-73.6,92.9-73.6,106.4-73.6"/>
		<path class="st66" d="M-1.1-73.5c0.1,0,0.3,0,0.4,0c13.2,0,26.5,0,39.7,0l0,0c0.6,0.4,1.1,0.9,1.3,1.7c0.7,2.8,1.4,5.5,2.1,8.3
			c0.3,1.3,0.6,2.7-0.3,3.9c-0.2,0.1-0.4,0.2-0.7,0.2c-1.7-0.2-3.3,0.2-5,0.2c-10,0-20,0.2-29.9-0.1c-8.6-0.2-17.2-0.2-25.8-0.3
			c-0.7,0-1.5,0-2.2-0.3c-1.3-0.7-0.9-1.5,0-2.1c1.6-1.3,3.4-2.2,5.2-3.3c3.8-2.2,7.4-4.7,11.3-6.8C-3.8-72.9-2.4-73-1.1-73.5"/>
		<path class="st61" d="M266.3-73.6c12.8,0,25.7,0,38.5,0l0,0.1c0.4,0.7-0.1,1.1-0.5,1.4c-1.8,1.2-3,3-4.5,4.4c-0.9,0.9-2,1.6-3,2.4
			c-0.3,0.3-0.7,0.5-1.1,0.5c-1,0.3-2,0.3-3,0.3c-7.4,0-14.8,0-22.3,0c-1.3,0-2.6,0-3.7-0.9C265.3-67.7,265-71.9,266.3-73.6
			L266.3-73.6z"/>
		<path class="st67" d="M296.6-66.1c0.9-0.7,1.8-1.5,2.6-2.2c1.7-0.6,2.7-2.1,4-3.1c1.1-0.8,2.1-1.8,3.5-2.1c11.6,0,23.2,0,34.8,0
			c0.8,4.3,1.6,8.6,2.4,12.9c0.1,0.8,0.2,1.6,0.2,2.4c-0.8,0.5-1.6,0.5-2.5,0.4c-8.6-1.2-17.1-2.5-25.7-3.7
			c-5.9-0.8-11.8-1.8-17.7-2.6C297.2-64.4,296.2-64.6,296.6-66.1"/>
		<path class="st68" d="M306.7-73.6c-2.1,1.7-4.2,3.3-6.4,5c-0.3,0.3-0.7,0.6-1.1,0.2c1.9-1.7,3.7-3.5,5.6-5.2
			C305.5-73.5,306.1-73.6,306.7-73.6"/>
		<path class="st69" d="M-1.1-73.5c-6.6,4-13.2,8-19.7,12c-0.5,0.3-1.1,0.4-1.2,1.1c0.2,0.3,0.2,0.6-0.1,0.9
			c-6.5-0.3-13-0.1-19.4,0.3c-1.4,0.1-3.2,0.8-4.1-1.2c1-1.5,2-3,3-4.5c0.1-0.2,0.3-0.5,0.4-0.7c1.6-3.3,3.9-6,7.1-7.9
			c0.1,0,0.2,0,0.4,0C-23.6-73.6-12.3-73.6-1.1-73.5"/>
		<path class="st70" d="M282.4,164.9c3.7-2,7.7-3.5,11.6-5.1c6.3-2.7,12.7-5.5,19-8.2c0.2-0.1,0.5-0.2,0.5-0.5
			c-0.1-0.6,0.3-0.6,0.8-0.5c0.2,0.1,0.3,0.2,0.5,0.4c0.6,0.8,0.7,1.8,0.8,2.8c0.1,2.9,0.1,5.8,0,8.7c0,0.9,0,1.9-0.9,2.5l0,0.1
			C303.9,165,293.1,164.9,282.4,164.9"/>
		<path class="st71" d="M347.1,151.5c0,4.5,0,9,0,13.5c-9,0-17.9,0-26.9,0.1l0-0.1c-0.5-0.9,0.1-1.4,0.6-2c4.7-4.5,8.9-9.4,14-13.5
			c0.2-0.1,0.4-0.1,0.6-0.1c3,0.4,6.1,0.3,9.2,0.5C345.8,149.9,346.7,150.3,347.1,151.5"/>
		<path class="st4" d="M195.9,155.6c5,3.1,10,6.2,15,9.3c-8,0-16,0-24,0c0.9-1.9,2.6-3.1,3.9-4.7c1.3-1.8,2.9-3.3,4.4-5
			C195.6,155,195.7,155.4,195.9,155.6"/>
		<path class="st72" d="M42-59.7c0-2.7-1-5.2-1.5-7.8c-0.4-2-1-4-1.4-6c6.9,0,13.8,0,20.6,0c0.4,0.9-0.3,1.4-0.9,1.8
			c-4,3.1-7.9,6.4-12.2,9.1c-1,0.6-1.9,1.3-2.6,2.3c-0.5,0.4-1,0.9-1.7,0.8C42.1-59.6,42-59.7,42-59.7"/>
		<path class="st73" d="M43.4-60.8c4.5-3.5,9-7,13.5-10.5c0.9-0.7,1.8-1.5,2.7-2.2c0.1,0,0.2,0,0.4,0c1.1,0,2.2,0,3.3,0
			c0.3,0.7-0.1,1-0.6,1.4c-1.8,1.4-3.6,2.8-5.4,4.2c-1.3,1-2.5,2-3.8,3c-0.1,0.3-0.2,0.6-0.4,0.8c-2.3,1.5-4.9,2.5-7.5,3.6
			C44.9-60.2,44-59.9,43.4-60.8"/>
		<path class="st74" d="M347.1,151.5c-1.6-1-3.3-0.8-5-0.8c-2.3,0-4.6-0.5-6.9-0.7c0-0.9,0.6-1.3,1.2-1.6c3.1-0.3,5.5-2.3,8.3-3.2
			c0.8-0.3,1.6-0.7,2.5,0l0,0C347.2,147.2,347.1,149.4,347.1,151.5"/>
		<path class="st75" d="M227.7-68c0.2-1.9,0.5-3.7,0.7-5.6c6.6,0,13.2,0,19.8-0.1c0,0,0,0.1,0,0.1c1.1,0.5,1.9,1.3,2.5,2.4
			c1.4,2.6,3.4,4.9,4.1,7.9c-0.1,0.2-0.2,0.4-0.3,0.5c-0.3,0.2-0.6,0.2-0.9,0.2c-3.8,0.5-7.5-0.4-11.3-0.6
			c-3.8-0.2-7.7-0.7-11.5-0.9C227.6-64.2,227.2-64.8,227.7-68"/>
		<path class="st76" d="M254.6-63.1c0-0.1,0-0.2,0-0.4c-0.1-3.7,0.8-7.1,3-10.1c2.9,0,5.7,0,8.6,0c-0.1,2.6,0.4,5.2,0.7,7.8
			c0,0.3-0.1,0.6-0.4,0.8c-2.8,1.4-6,1.6-9,2.2c-0.8,0.2-1.7,0.4-2.6,0.3C254.8-62.5,254.6-62.7,254.6-63.1"/>
		<path class="st3" d="M257.7-73.5c-0.8,3.4-1.8,6.8-3,10.1c-2.5-3.1-4.2-6.7-6.3-10.1C251.4-73.5,254.5-73.5,257.7-73.5"/>
		<path class="st55" d="M78.7,164.9c3.4-3.5,7.2-6.4,10.8-9.6c1.5-1.3,3-2.5,4.6-3.8c-0.6,1.8-1.9,3.2-2.9,4.8
			c-0.8,1.3-0.7,2.3,0.1,3.4c1.2,1.7,2.4,3.5,3.5,5.3C89.4,164.9,84,164.9,78.7,164.9"/>
		<path class="st77" d="M336.7,149.2c-0.5,0.3-1,0.5-1.5,0.8c0,0-0.2,0-0.2,0l-0.2,0c-0.9,0.4-1.8,0.8-2.8,0.8
			c-5.2,0-10.4,0.1-15.7,0c-0.3,0-0.6-0.1-0.9-0.2c-0.8-0.6-0.7-1.4-0.3-2.2c1.2-2.3,2.6-4.5,4-6.7c0.3-0.5,0.8-0.7,1.4-0.7
			c7.6-2.7,15.1-5.4,22.7-8.1c1.3-0.5,2.6-0.9,3.9-1.3c0,3.5,0,7,0.1,10.5c0,0-0.1,0-0.1,0c-0.9,1.7-2.5,2.7-4.1,3.6
			C340.9,146.9,338.7,147.9,336.7,149.2"/>
		<path class="st2" d="M-35.2-73.6c-2.1,2.8-4.5,5.4-7.1,7.9c-0.5-2.6-0.4-5.2-0.4-7.9C-40.2-73.5-37.7-73.5-35.2-73.6"/>
		<path class="st49" d="M315.3,150c6.5,0,13,0,19.5,0c-4.2,4.2-8.4,8.5-12.6,12.7c-0.7,0.7-1.4,1.5-2,2.2c-1.9,0-3.8,0-5.6,0
			c0-3.9,0-7.7,0-11.6c-0.4-0.8-0.1-1.6-0.2-2.4C314.5,150.4,314.6,149.9,315.3,150"/>
		<path class="st78" d="M57.3-68c1.7-2.2,4.2-3.5,6-5.6c0.1,0,0.2,0,0.4,0c0.5,0,1,0,1.6,0.1C62.8-71.4,60.2-69.5,57.3-68"/>
		<path class="st49" d="M336.7,149.2c1-1.3,2.4-1.9,3.7-2.8c2.2-1.5,4.5-2.9,6.8-4.3c0,1,0,2,0,3
			C343.6,146.5,340.2,147.8,336.7,149.2"/>
		<path class="st79" d="M-25.4,155.2c2.5,3.2,4.9,6.5,7.4,9.7c-1,0-1.9,0-2.9,0c-1.6-3.1-3.3-6.2-4.9-9.3
			C-25.9,155.2-25.8,155.1-25.4,155.2"/>
		<path class="st80" d="M-44.6,116.2c-2.2-0.5-4.4-1-6.6-1.5c-3.7-10.5-7.3-20.9-11-31.4c-0.1-0.4,0.1-0.5,0.4-0.6
			c0.9,0,1.2,0.8,1.6,1.4c2.2,3.4,3.8,7.1,5.7,10.7c3.2,6,6.2,12,9.4,18c0.5,0.9,1.2,1.8,0.9,3C-44.3,116-44.4,116.2-44.6,116.2"/>
		<path class="st81" d="M-61.7,83c-0.1,0.1-0.3,0.3-0.4,0.4c-0.3-0.6-0.5-1.3-0.8-1.9c0.1-0.1,0.3-0.2,0.4-0.4
			C-61.5,81.4-61.2,82-61.7,83"/>
		<path class="st48" d="M-44.6,116.2c0-0.1,0-0.2,0-0.3c0.7-0.7,1.6-0.5,2.5-0.5c11.3-0.5,22.7-0.3,34-0.4c4.2-0.1,8.3-0.3,12.5-0.3
			c1.3,0,2.6,0.1,3.9,0.5c0.2,0.1,0.4,0.3,0.5,0.5c0.2,0.8-0.2,1.3-0.9,1.7c-2.2,0-3.6,1.6-5.3,2.6c-5.4,2.8-10.8,5.7-16.1,8.6
			c-6,3.3-12.2,6.4-18.2,9.8c-4.2,2.4-8.4,4.5-12.6,6.9c-0.2,0.1,0.1,0-0.2,0.1c-0.8,0.3-1.7,0.9-2.5,0.4c-0.8-0.5-0.5-1.5-0.2-2.4
			c0.1-4.6,0.9-9.2,1.3-13.9C-45.4,125-45,120.6-44.6,116.2"/>
		<path class="st46" d="M-47.1,143.2c0.1,2.1,0.2,2.3,2,1.3c5.6-3,11.1-6.2,16.6-9.2c6.2-3.3,12.4-6.5,18.6-9.8
			c4.9-2.6,9.7-5.2,14.6-7.9c0.9-0.5,1.8-0.9,2.8-1c0.6,1-0.2,1.5-0.7,2.1c-2,2.1-4,4.3-6,6.4c-8.1,8-15.8,16.4-23.9,24.4
			c-0.9,0.9-2.4,1.4-2.7,2.9c-0.2,0.4-0.8,0.3-1.1,0.6c0,0.1,0,0.3,0,0.4c0.1,0.1,0.2,0.2,0.1,0.2c0,0.1-0.1,0.1-0.1,0.1
			c-0.9-1-2.1-1-3.3-1.1c-5.1-0.7-10.2-1.3-15.3-1.9c-1-0.1-2-0.3-2.7,0.7C-47.7,148.7-47.8,145.9-47.1,143.2"/>
		<path class="st7" d="M8.7,115.5c-13.7,0.1-27.4,0.5-41.1,0.5c-3.2,0-6.3,0.3-9.5,0.3c-0.9,0-1.7,0-2.6-0.4
			c-5.7-11-11.5-22-17.2-32.9c-0.3-0.6-0.5-1.2-0.8-1.8c-0.4-1.5,0.8-1.1,1.4-1.1c4.6,0,9.2-0.1,13.8,0c8,0.2,16,0.5,24.1,0.4
			c0.3,0,0.5,0.1,0.8,0.2c4.4,3.6,7.9,8.2,11.8,12.3c1.8,1.9,3.6,3.9,5.4,5.9c3.5,3.9,7,7.7,10.5,11.6c0.9,1.1,2.2,1.8,2.9,3.1
			C8.5,114.1,9.2,114.7,8.7,115.5"/>
		<path class="st64" d="M-22.8,80.7c-0.1-0.1-0.3-0.2-0.4-0.4c0.5-0.4,1-0.7,1.5-1.1c2.1-0.6,3.8-2.1,5.8-2.9
			c8.1-3.4,16.1-7,24.1-10.5c6.4-2.8,12.9-5.7,19.3-8.5c4.8-2.1,9.6-4.1,14.4-6.2c5-2.2,9.9-4.4,14.9-6.6c2-0.9,4.3-1.3,6.2-2.5
			c0.3,0,0.6,0.1,0.8,0.3c0.5,0.6,0.6,1.3,0.3,2.1c-2.7,8.8-5.5,17.6-8.1,26.4c-1.2,4.1-2.5,8.2-4,12.2c-0.2,0.4-0.4,0.8-0.8,1
			c-0.3,0.1-0.7,0.2-1,0.1c-1.2-0.4-2.5,0.1-3.7,0.1c-6.5,0-12.9-0.8-19.4-0.8c-3.5,0-7.1-0.3-10.6-0.4C10.9,82.9,5,82.5-0.8,82.3
			c-6.1-0.2-12.3-0.7-18.4-0.7C-20.5,81.6-21.7,81.4-22.8,80.7"/>
		<path class="st82" d="M62.9,42.5c-2.6,2.1-5.9,2.9-8.9,4.2c-8.4,3.8-17,7.4-25.5,11.1c-9.4,4.1-18.7,8.1-28,12.2
			c-6.8,3-13.6,6-20.5,9.1c-0.6,0.3-1.1,0.6-1.7,0.1C-14.9,74-8,68.8-1.2,63.6C6.9,57.3,15,51.1,23.4,44.7c-1.1-0.5-2.1-0.2-3-0.3
			c-2.4-0.2-4.8,0.4-7.2-0.4c3.6,0,7.2,0,10.9,0c0.9-0.6,2-0.8,3-0.8c3,0,6-0.4,9-0.4c7.3-0.2,14.7-0.7,22-1
			C59.7,41.6,61.5,41,62.9,42.5"/>
		<path class="st83" d="M17.6,12.2c-1.5,0.2-3-0.3-4.5,0.4c-0.8,1-1.9,0.8-2.9,0.9c-1.9,0.1-3.8-0.1-5.7,0.2c-0.2,0-0.5,0.1-0.7,0
			c-3.5-1-7-0.3-10.5,0.1c-1.5,0-3,0.1-4.6,0c-0.8,0-1.6-0.2-2.1-0.9c-0.8-1.3-0.9-2.9-0.9-4.3c-0.2-4.8-1-9.5-1.2-14.3
			c0-0.4-0.2-0.9-0.3-1.3c-0.1-0.8-0.1-1.5,0-2.3c0.2-0.7,0.2-1.4,0-2.1c-0.1-0.8-0.1-1.6-0.2-2.4c-0.1-0.4-0.2-0.8-0.2-1.2
			c0-0.8-0.1-1.6-0.1-2.4c0-0.7-0.2-1.5-0.3-2.2c0.1-1-0.3-2,0.4-3c1-0.8,2.2-0.9,3.4-0.9c2.7,0,5.5-0.4,8.2-0.5
			c8.8-0.1,17.5-0.6,26.3-0.9c3.9-0.1,7.8,0,11.7-0.5c1.4,0.6,1,1.7,0.7,2.7c-0.9,2.4-1.9,4.7-3,7c-2.5,5.4-4.8,11-7.3,16.4
			c-0.4,0.8-1.1,1.5-1.2,2.5c-0.2,1.3-1.1,2.3-1.6,3.5c-0.3,1.7-1.3,3-1.9,4.5C18.6,11.8,18.4,12.4,17.6,12.2"/>
		<path class="st84" d="M17.6,12.2l0.8-1.1c0.9-0.7,1.7-0.1,2.4,0.4c6.5,4.5,12.9,8.9,19.4,13.3c8.2,5.6,16.4,11.3,24.7,16.8
			c0.3,0.3,0.6,0.6,0.2,1c-0.5,0.3-1,0.2-1.4-0.2c-0.3,0-0.5,0-0.8,0c-8.7,0.4-17.5,0.7-26.2,1.1c-3.6,0.2-7.3,0.4-10.9,0.7
			c-0.6,0-1.2,0-1.8-0.3c0-2.8-1-5.4-1.5-8.1c-1.5-7.7-3.1-15.4-4.6-23.1C17.8,12.6,17.7,12.4,17.6,12.2"/>
		<path class="st85" d="M-48.3,42.1c0-2.7,0.8-5.3,1.3-7.9c0.9-4.7,1.4-9.4,2.5-14.1c0.7-2.9,0.5-6.1,2.2-8.8c0.6-1,1.6-0.9,2.5-0.8
			c5.5,0.4,10.9,0.4,16.4,0.9c2.7,0.3,5.4-0.1,8,0.5c0.6,0.1,1.3,0.1,1.8,0.5c1.1,1.6-0.3,2.3-1.2,3c-2,1.6-3.9,3.3-5.9,4.9
			c-3.6,2.9-7.1,5.9-10.6,8.8c-1.2,1-2.8,1.3-3.9,2.4c-3.5,2.3-6.6,5.3-9.9,7.9C-46.2,40.4-47.2,41.3-48.3,42.1"/>
		<path class="st86" d="M-35.2,31.6c2.4-2.7,5.3-4.6,8-6.9c4.5-3.9,9.2-7.6,13.7-11.4c0.2-0.2,0-0.6,0.4-0.8
			c2.1,0.8,4.2,0.2,6.3,0.4c2.7-0.4,5.4-0.1,8.1-0.2c1,0,2.1,0.2,3.1-0.2c2.9,0,5.7,0,8.6,0h2.2c0,0.1,0,0.2,0.1,0.2
			c-2.7,1-5.3,2-8,3.1c-6.2,2.4-12.4,4.8-18.6,7.1c-4.9,1.9-9.9,3.6-14.9,5.5C-29,29.6-32,30.8-35.2,31.6"/>
		<path class="st87" d="M-13,12.5c-0.1,0.3-0.3,0.5-0.4,0.8c-1.4-0.6-3-0.6-4.5-0.7c-6-0.4-12-0.5-18-0.8c-2.1-0.1-4.2-0.5-6.3-0.4
			c-0.3-0.1-0.5-0.2-0.8-0.4l0,0c0.1-1.1,0.6-2,1.3-2.8c4.1-5.3,7.9-10.8,12-16.1c3.5-4.5,6.8-9.2,10.3-13.7c0.5-0.6,1-1.3,1.7-1.7
			c0.5-0.3,0.9-0.4,1.3,0.1c0.2,1.8,0.2,3.7,0.5,5.5c0.4,0.9-0.1,2,0.4,2.9c0.1,0.3,0.2,0.5,0.3,0.8c-0.3,0.9-0.3,1.7,0,2.6
			c0.4,0.6,0.3,1.3,0.3,1.9c-0.2,0.7-0.3,1.5,0,2.2c0.4,2.8,0.8,5.7,1,8.5C-13.5,5-13.3,8.8-13,12.5"/>
		<path class="st88" d="M-16.8-23.4c-3.6,4.2-6.7,8.8-10,13.2C-32-3.4-37.1,3.5-42.2,10.3c-0.2,0.3-0.6,0.5-0.8,0.7
			c-4.3-4.9-8.7-9.8-13-14.7c-4.4-4.9-8.7-9.9-13.1-14.8c-1.2-1.3-2.4-2.6-3.5-3.8c0.1-0.3,0.2-0.5,0.4-0.8c0.6-0.4,1.3-0.8,2.1-0.8
			c3.1,0.3,6.2-0.1,9.3-0.2c7.6-0.2,15.2-0.5,22.7-0.5c5.6,0,11.2-0.4,16.8-0.2c1.6,0.1,3.2-0.3,4.6,0.6
			C-16.7-23.8-16.7-23.6-16.8-23.4"/>
		<path class="st89" d="M-16.8-23.8c-5.1,0-10.3-0.2-15.4,0.3c-0.7,0.1-1.4,0.2-2,0.1c-2.2-0.3-4.5,0-6.7,0
			c-8.1-0.1-16.2,0.6-24.3,0.5c-2.3,0-4.7,0.3-7-0.1c1.3-2.8,3.4-5,5.1-7.5c5.2-7.4,10.5-14.7,15.8-22.1c0.8-0.2,1.3,0.3,1.8,0.8
			c9.4,7.5,18.5,15.3,27.9,22.8c0.5,0.4,1,0.9,1.5,1.4c0.9,1,1.8,1.2,2.6-0.1c0.2,0,0.4,0,0.6,0.1c1.1,1.2,1.5,2.4,0.6,3.9
			C-16.4-23.7-16.6-23.6-16.8-23.8"/>
		<path class="st47" d="M-17.6-27.5c0.1,0.3,0.3,0.6,0.3,0.9c0.1,0.6,0.4,1.4-0.3,1.7c-0.6,0.3-0.9-0.4-1.3-0.7
			c-6.6-5.4-13.3-10.8-19.9-16.3c-3.7-3-7.3-6-10.9-9c-0.6-0.5-1-1.1-1.5-1.7c1.6-2.8,3.6-5.4,5.6-7.9c1.2,0.6,2.5,0.5,3.7,0.3
			c5.2-0.5,10.4-0.6,15.6-0.4c0.7,0,1.3-0.2,2-0.3c1-0.2,1.8,0.1,2.3,1.1c1.6,0.4,1.4,1.8,1.5,2.9c0.3,2.1,0.6,4.2,0.9,6.3
			c1.1,6.8,2.3,13.6,3.2,20.4C-16.3-29.1-16.8-28.2-17.6-27.5"/>
		<path class="st90" d="M-26.9,153.7c0-0.1,0-0.2,0-0.4c0.7,0.5,1.1,1.2,1.5,1.9c-0.1,0.1-0.3,0.3-0.4,0.4
			C-26.2,155-26.6,154.4-26.9,153.7"/>
		<path class="st49" d="M322.8,44.4c0,0.5,0,1.1-0.4,1.5c-3.6,4.7-7.5,9.1-11.4,13.5c-4,4.6-8,9.1-11.9,13.8c-2.5,3-5.1,5.9-7.9,8.7
			c-0.8,0.8-1.4,0.8-2.2,0.2c-0.5-0.4-1.1-0.8-1.5-1.4c-3.8-5.5-8-10.6-12-16c-1.9-2.6-3.8-5.2-5.9-7.7c-0.6-0.7-0.6-1.5-0.8-2.2
			c0-0.4,0.1-0.7,0.3-1c0.9-0.8,2.1-1.5,2.5-2.8c0.5-1.1,1.9-1.2,2.4-2.2c0.2-0.4,0.5-0.7,0.8-1c2.1-3.4,4-6.9,5.9-10.3
			c4.6-8.2,9.5-16.3,14.1-24.6c0.1-0.2,0.2-0.3,0.4-0.4c1.3-0.5,2.3-1.3,3.3-2.3c1.3-1.4,2.9-2.4,4.6-3.4c0.2-0.1,0.5-0.2,0.8-0.1
			c0.1,0,0.2,0.1,0.2,0.1c2,4.1,4,8.2,6.1,12.3c3.3,6.6,6.6,13.1,9.8,19.6C321,40.7,321.9,42.6,322.8,44.4"/>
		<path class="st70" d="M296.6-66.1c0.2,0.6,0.7,0.8,1.3,0.9c9.9,1.4,19.8,2.8,29.7,4.4c5.5,0.9,11.1,1.2,16.6,2.6
			c-0.8,3.9-2.5,7.4-3.6,11.2c-1.3,4.3-2.9,8.6-4.4,12.9c-1,3-2.1,6-3.2,9c-0.3,0.7-0.5,1.4-0.5,2.2c-0.1,0-0.2,0-0.4,0
			c-2.7,1.3-5.7,1.3-8.6,1.2c-2.6-0.1-5.1-0.1-7.6,0c-6.1,0.3-12.2-0.2-18.3,0.3c-0.8,0.1-1.4-0.4-2.1-0.8c-0.5-0.6-0.9-1.2-0.8-2
			c0.5-7.6,0-15.1,0.3-22.7c0.9-5.4,0.7-10.9,0.7-16.4c0-0.7,0-1.4,0.6-1.9C296.4-65.6,296.5-65.8,296.6-66.1"/>
		<path class="st91" d="M295.9-22.6c1.3,0.6,2.6,0,3.9,0c3.7,0,7.4,0.1,11,0c7.1-0.1,14.3-0.2,21.4-0.4c-2.9,3.1-5.8,6.3-8.8,9.4
			c-3,3-5.8,6.1-8.6,9.3c-1.5,1.7-3.3,3.2-4.9,4.9c-1.9,2.1-3.9,4.2-5.7,6.4l0,0c-1-0.4-1.4-1.2-1.6-2.1c-1.7-6.9-4.1-13.5-5.4-20.5
			c-0.3-1.6-0.8-3.3-1.7-4.7c-0.2-0.6-0.3-1.2,0-1.9C295.5-22.4,295.7-22.6,295.9-22.6"/>
		<path class="st92" d="M269.2,54.9c3.1,4.1,6.1,8.1,9.2,12.2c3.3,4.4,6.6,8.7,9.8,13.1c1.7,2.3,1.8,2.2,3.5,0.1
			c3.3-4,6.7-7.8,10.1-11.7c5.3-6.2,10.8-12.1,15.9-18.5c1.4-1.8,3-3.4,4.6-5.3c0,0.4,0.1,0.7,0.1,1c-1,5.5-2,10.9-3,16.4
			c-0.9,5.2-1.8,10.3-2.7,15.5c0.1,0.2,0.2,0.4,0.1,0.6c-0.2,0.4-0.5,0.7-0.9,0.8c-1.4-0.2-2.7,0.4-4,0.7c-6.3,1.2-12.6,2.2-19,3.3
			c-1.4,0.2-2.5,1.1-3.8,1.4c-0.3,0-0.6-0.2-0.9-0.4c-1.8-1.1-3.9-0.7-5.8-0.7c-8.2-0.3-16.4-0.6-24.6-0.7c-4,0-7.9-0.4-11.9-0.3
			c-0.8,0-1.6-0.1-2.4-0.4c-2-0.4-2.2-1.1-1.1-2.8c4.2-3.3,8-7.1,11.7-11c0.9-1,2.2-1.6,3-2.7c2-1.8,3.7-3.9,5.6-5.7
			c2.1-1.3,3.5-3.3,5.3-5C268.6,54.6,268.9,54.5,269.2,54.9"/>
		<path class="st93" d="M316.8,78.1c0-0.1,0-0.2,0-0.3c0.1,0,0.3,0,0.4,0c0.4,0.3,0.9,0.4,1.4,0.4c4.3-0.1,8.5,0.6,12.8,0.4
			c0.1,6.8,0.3,13.5,0.5,20.3c0.1,4.1,0.2,8.2,0.3,12.3c0.3,2.7,0.2,5.4,0.1,8.2c-1.5,0.5-1.7-0.8-2-1.6c-1.1-3.4-2.5-6.7-3.6-10
			c-3-8.7-6.5-17.3-9.6-26C316.6,80.5,316,79.3,316.8,78.1"/>
		<path class="st94" d="M135.2-65c0.4-0.4,1-0.4,1.5-0.4c7.2,0.7,14.4,1.5,21.5,2.2c7.1,0.7,14.1,1.3,21.2,2c7,0.7,14,1.4,21,2.1
			c2,0.2,4,0.3,6,0.5c0.3,0.4,0.2,0.7-0.1,1c-8,4-16.1,7.9-24.1,11.8c-3.9,1.9-7.7,3.7-11.6,5.5c-3.8,1.8-7.5,3.7-11.2,5.4
			c-6.7,3.1-13.3,6.5-20,9.7c-0.7,0.4-1.6,0.4-2.2,0.7c0.1,0-0.3,0-0.2,0c0.6-0.1,1.1-0.3,1.6,0.1c0.5,0.4,0.7,0.9,0,1.3
			c-1.8,0.1-3.6,0.4-5.4-0.2c-0.8-0.9-0.7-1.9-0.6-3c0.6-6.1,0.8-12.1,1.4-18.2c0.6-6.1,0.7-12.1,1.4-18.2c0.1-0.7,0.4-1.5-0.1-2.2
			C135.3-64.8,135.2-64.9,135.2-65"/>
		<path class="st95" d="M206-57.8c0.1-0.3,0.2-0.5,0.4-0.8c0.4-0.1,0.8-0.3,1.1-0.4c5.9-1.9,11.7-3.7,17.5-5.6
			c0.7-0.2,1.3-0.5,1.9,0c-0.2,2.1-1.9,3.2-3.2,4.5c-2.9,0.9-4.3,3.5-6.3,5.4c-3.9,4.1-7.9,8.1-12.1,11.9c-0.6,0.5-1.1,1-1.6,1.6
			c-5.3,5.6-11.1,10.7-16.6,16.2c-0.8,0.8-1.6,2-3.1,1.6c-0.7-1,0-1.8,0.5-2.5c3.9-6.2,7.9-12.3,11.8-18.5c2.3-3.7,4.6-7.4,7.1-11
			C204.2-56.4,204.9-57.3,206-57.8"/>
		<path class="st96" d="M107.1-58.6c0.5,0,1.1,0,1.5-0.4c7.9-1.8,15.8-3.6,23.7-5.4c1-0.2,2-0.4,2.9-0.6c0,0,0,0,0,0
			c0.7,0.9,0,1.5-0.6,2c-2.1,1.9-4.3,3.6-6.5,5.3c-3.7,2.8-7.1,6-10.8,8.9c-3.5,2.7-6.9,5.7-10.5,8.4c-1.2,0.9-2,2-2.4,3.4
			c-0.2,0.8-0.4,1.6-1.5,1.6c-0.9-0.5-0.9-1.3-0.8-2.1c1.2-6.4,2.5-12.7,3.7-19.1C106.2-57.3,106.4-58.1,107.1-58.6"/>
		<path class="st69" d="M223.2-60.8c1.6-0.9,2.2-2.8,3.7-3.7c0.8-1,0-2.4,0.7-3.4c0,2.7,0.3,2.8,3,3c6.9,0.5,13.7,1.2,20.6,1.7
			c0.9,0.1,1.7,0.1,2.6,0.1c0.8,1.3-0.3,1.8-1.1,2.3c-4.8,3.1-9.7,6.1-14.6,9.1c-8,4.9-16,9.9-24,14.8c-5.4,3.3-10.7,6.9-16.2,10
			c-1.1,0.6-2.1,1.6-3.6,1.2c-0.6-0.9,0-1.5,0.5-2.1c2.2-3,4.8-5.7,7.2-8.6c3.6-4.2,7-8.5,10.7-12.7C216.1-53.2,219.7-57,223.2-60.8
			"/>
		<path class="st49" d="M196.3,150.4c-5.3,0.1-10.6,0.1-15.9,0.2c-10.5,0.2-21,0.2-31.6,0.2c-6.2,0-12.3-0.2-18.5,0.1
			c-3.9,0.2-7.8,0-11.7,0.3c-0.9,0.1-1.8,0.2-2.5-0.4c-0.1-0.3,0-0.5,0.2-0.7c0.8-0.4,1.7-0.5,2.3-1.1c7.8-3.8,15.5-7.6,23.4-11.3
			c13.4-6.2,26.8-12.5,40.2-18.8c0.7-0.3,1.5-0.5,2.3-0.6c1.3,0,2.2,0.6,2.7,1.8c3.3,7.5,6.8,14.8,10,22.3c0.8,1.8,1.4,3.6,2.2,5.3
			c0.4,0.7,0.8,1.6,0.4,2.5c-0.1,0.2-0.3,0.3-0.5,0.3C198.3,150.8,197.3,150.7,196.3,150.4"/>
		<path class="st97" d="M116.5,150.4c-0.1,0.1-0.3,0.2-0.4,0.3c-0.1,0.1-0.2,0.3-0.4,0.4c-6.6-0.2-13.2-0.5-19.7-0.8
			c-0.4,0-0.8-0.2-1.2-0.3c-0.7-2.1,0.1-4.5,1.9-5.7c4-2.1,8.2-3.6,12.4-5.3c18.7-7.7,37.4-15.3,56.1-23c1.3-0.5,2.6-1.4,4.1-0.8
			c0.2,0.1,0.3,0.3,0.3,0.5c0.1,1-0.6,1.4-1.3,1.9c-7.9,5.3-15.9,10.5-23.9,15.6c-3.3,2.1-6.5,4.3-9.8,6.5
			c-5.2,3.4-10.5,6.7-15.9,9.7C117.9,149.7,117.3,150.3,116.5,150.4"/>
		<path class="st98" d="M196.3,150.4c1-0.5,2-0.6,3,0c0.3,0.6,0.3,1.2,0,1.8c-2,0.3-2.6,1.9-3.4,3.4c-0.3-0.1-0.5-0.3-0.8-0.4
			c0.7-1,1.7-1.9,2.3-3.2c-1.3,0.1-2,1.2-3,1.4C194.7,152.2,196.7,152,196.3,150.4"/>
		<path class="st9" d="M15.1,156.7c-0.1-0.3-0.3-0.5-0.4-0.8c-0.4-1.1,0.3-1.7,1.2-2.1c1.3-0.1,2.4-0.7,3.5-1.5
			c6.3-4.5,13-8.3,19.5-12.3c5.1-3.1,10.1-6.4,15.2-9.5c7.1-4.2,14-8.8,21.1-13c1.4-0.8,3-1.2,4.1-2.5c0.2-0.1,0.4-0.1,0.6-0.1
			c1.7,0,2.1,1.4,2.6,2.6c2.4,6.2,4.9,12.4,7.3,18.6c1.4,3.7,2.9,7.3,4.3,11c0.4,1,0.7,1.9,0,2.8c0.2,0.5-0.1,0.8-0.4,1.1
			c-7.5,0.5-15,1-22.5,1.5c-4.8,0.3-9.6,0.5-14.3,0.8c-6.9,0.4-13.8,0.9-20.7,1.4c-4.6,0.3-9.2,0.6-13.8,0.8c-2,0.1-4.1,0.3-6.1,0.4
			C15.7,156,15.2,156.1,15.1,156.7"/>
		<path class="st48" d="M94,150c-3-7.7-6-15.4-8.9-23.1c-1.2-3.1-2.3-6.2-3.6-9.2c-0.3-0.9-0.4-2.1-1.7-2.1c0-0.9,0.7-0.8,1.3-0.9
			c7.7-0.7,15.3-0.2,23-0.3c0.4,0,0.9,0,1.3,0.2c1.2,0.7,1,1.7,0.7,2.8c-1.7,5.5-3.4,10.9-5.1,16.4c-0.9,2.9-1.9,5.8-2.8,8.7
			c-0.3,0.8-0.8,1.5-1.1,2.4c-1.6,1.3-1.6,3.4-2.3,5.2C94.5,150,94.3,150,94,150"/>
		<path class="st50" d="M314.2,150.7c-0.2,0.1-0.5,0.2-0.7,0.4c-7.7,0.5-15.5,1-23.2,1.4c-4.7,0.3-9.4,0.5-14.1,0.8
			c-7,0.5-14,1-21,1.4c-4.4,0.3-8.8,0.6-13.2,0.8c-3.5,0.1-6.9,0.7-10.4,0.4c-0.1-0.1-0.2-0.3-0.3-0.4c0-0.3,0-0.6,0.3-0.9
			c2.5-2.5,4.9-5.2,7.6-7.5c1.7-1.5,3.5-3,5.2-4.6c6.3-5.9,12.6-11.7,18.9-17.5c2.8-2.6,5.8-5.1,8.4-8c0.9-1.1,2.7-1.2,3-2.9
			c0.5-0.5,1.1-0.7,1.9-0.5c5.6,5.1,11.2,10.3,16.7,15.5c4.5,4.3,9.2,8.6,13.7,12.9c2.2,2.2,4.7,4.1,6.7,6.5
			C314,149.2,314.7,149.8,314.2,150.7"/>
		<path class="st55" d="M231.4,155.6c0,0.1,0,0.3,0,0.4c-0.2,0.1-0.5,0.3-0.7,0.4c-5.3-0.7-10.6-1.5-15.9-2.2
			c-4.3-0.6-8.5-1.1-12.8-1.7c-0.9-0.1-1.9-0.2-2.8-0.2c-0.8-0.6-0.3-1.2,0-1.8c0.1,0,0.2,0,0.4,0c0.3-1.4,1.3-2.2,2.4-2.9
			c7.4-5.2,14.7-10.4,22-15.6c1-0.7,2.1-1.1,3.1-1.7c1.6-0.4,3.2-1,4.6-1.9c4.3-2.6,9-4.5,13.4-6.8c0.8-0.4,1.6-1,2.6-0.6
			c0.2,0.1,0.3,0.2,0.4,0.4c0.4,0.9-0.1,1.6-0.4,2.3c-3,6-6,12-9,18c-1.6,3.2-3.2,6.5-4.7,9.7C233.4,152.8,231.8,153.8,231.4,155.6"
			/>
		<path class="st67" d="M314.2,150.7c-2.9-3.5-6.5-6.3-9.7-9.5c-3.1-3.1-6.4-6-9.6-9c-5.7-5.4-11.4-10.8-17.1-16.2
			c-0.6-0.6-1.3-1.1-1.4-1.9c0.1-0.1,0.3-0.2,0.5-0.2c6.8,0.5,13.4,1.7,20.2,2.3c7,0.6,14,1.4,20.9,2.3c3.1,0.4,6.3,0.4,9.4,1.1
			c1.5,0.3,3,0.2,4.4-0.3c0.8-2.7,0.2-5.5,0.4-8.2c0.4,4.4,1.2,8.7-1.3,12.8c-3.5,5.7-6.9,11.4-10.3,17.2c-1.8,2.9-3.7,5.9-5.3,9
			c-0.2,0.3-0.5,0.5-0.7,0.8C314.5,151,314.3,151,314.2,150.7"/>
		<path class="st67" d="M16.1,154.5c-0.6,0.4-1.1,0.9-1.5,1.5c-4.7,0-9.3-0.8-13.9-1c-3.2-0.2-6.4-0.5-9.6-0.8c-6-0.6-12-0.8-18-1.2
			c0.2-0.2,0.5-0.5,0.7-0.7c0.7-1.3,2.1-1.7,3.3-2.2c11.4-4.7,22.8-9.3,34.3-14c11.7-4.8,23.5-9.5,35.1-14.4c1.5-0.6,3-1.1,4.6-1.3
			c1.2,0.6,0.8,1.4,0.2,2.1c-0.9,1.2-2.2,1.9-3.2,2.9c-3.1,3.1-6.2,6.1-9.4,9c-6.8,6.3-13.3,12.9-20.4,18.8
			C17.7,153.7,17,154.2,16.1,154.5"/>
		<path class="st99" d="M53.2-64.6c0.1-0.1,0.2-0.2,0.3-0.3c0,0.1,0,0.2,0.1,0.3c3.3,1,5.4,3.7,7.9,5.8c6.1,5.2,12.1,10.6,18.1,15.9
			c4.8,4.3,9.7,8.4,14.4,12.8c1.4,1.3,2.9,2.6,4.4,3.8c1.2,0.9,2.3,1.9,2.6,3.5c-0.1,0.3-0.4,0.5-0.7,0.6c-0.2,0.1-0.4,0.1-0.7,0.1
			c-1-0.3-2-0.3-3.1-0.2c-3.8,0.3-7.6,0.3-11.4,0c-4.5-0.4-9.1-0.1-13.6-0.1c-2.4,0-13.6-0.4-14.8-0.4c-7-0.1-13.9-0.5-20.9-0.5
			c-0.9,0-1.8-0.1-1.9-1.3c-0.2-0.6-0.6-1.2-0.3-1.9c2-2,2.6-4.8,3.7-7.2c4.4-9.3,8.9-18.6,13.4-27.9C51.3-62.9,52.2-63.8,53.2-64.6
			"/>
		<path class="st100" d="M100.7-23L53.6-64.6c6.4,0.7,12.7,1.4,19.1,2.1c6.2,0.7,12.4,1.4,18.5,2.1c5.3,0.6,10.6,1.2,15.9,1.9
			c-0.6,5.3-1.8,10.4-2.8,15.6c-0.4,1.9-0.7,3.8-1.1,5.7c-0.1,0.7-0.3,1.3,0.2,2c1.1,0.8,0.6,1.9,0.5,2.8c-0.4,2.8-1.1,5.5-1.7,8.2
			c-0.1,0.5-0.3,1.1-0.8,1.4C101.1-22.9,100.9-22.9,100.7-23"/>
		<path class="st57" d="M-17.2-30.1c-0.5-3-1.3-5.9-1.6-8.9c-0.4-3.8-1.1-7.5-1.7-11.2c-0.5-3.2-0.6-6.4-1.6-9.5c0-0.3,0-0.5,0-0.8
			c4.3,0,8.6-0.1,12.9,0c16.3,0.3,32.5,0.4,48.8,0.4c0.7,0,1.4-0.1,2,0.4c0.2,1.3-0.9,1.7-1.7,2.2C29.3-50.8,18.7-44,8.1-37.3
			C1.5-33.1-5-28.8-11.5-24.6c-1.5,0.9-3,1.8-4.8,1.8c-0.3-0.3-0.5-0.6-0.1-1c0-1.3-0.2-2.5-0.7-3.7C-17.5-28.4-17.5-29.2-17.2-30.1
			"/>
		<path class="st84" d="M-16.1-23c2.9-1.3,5.4-3.2,8-4.8c14-8.9,28-18,42-27c2.6-1.6,5.1-3.3,7.7-4.9c0.1,0,0.2,0,0.4,0c0,0,0,0,0,0
			c0.9,0.5,0.7,1.3,0.6,2.2c-1.9,8.2-3.9,16.5-5.8,24.7c-0.5,2.2-1.5,4.3-2.3,6.5c-0.4,0.4-0.3,1-0.3,1.5c-0.1,0.3-0.2,0.3-0.3,0
			c-1.2,0.5-2.5,0.7-3.8,0.8c-9.1,0.2-18.3,0.4-27.4,0.8c-5.5,0.2-10.9,0.6-16.4,0.7c-0.7,0-1.5,0.2-2.2,0.4
			C-16.3-22.5-16.3-22.8-16.1-23"/>
		<path class="st46" d="M296.2-65.3c0,5.4,0,10.8,0,16.2c0,0.7,0.1,1.5-0.4,2.2c-0.8-0.3-0.8-1-0.8-1.7c-0.1-4-0.1-8.1,0-12
			c-4.1,9.5-8.4,19.1-12.7,28.7c-0.8,1.7-1.4,3.5-2.2,5.1c-0.3,0.7-0.5,1.4-1.5,1.5c-1.6-0.8-1.7-2.6-2.1-4
			c-1.9-7.2-3.8-14.4-6-21.5c-0.4-1.4-0.8-2.8-1.2-4.2c-0.1-1-0.6-2-0.8-3c-0.3-1-0.5-1.9-0.7-2.9c-0.2-1.1-0.6-2-1.2-2.9
			c-0.3-0.6-0.1-1.1,0.1-1.6c0.1-0.1,0.2-0.3,0.4-0.4c0.9,0.4,1.8,0.4,2.7,0.4C278.6-65.3,287.4-65.3,296.2-65.3"/>
		<path class="st50" d="M314.2,150.7c0.1,0,0.3,0,0.4,0c0,0.9,0,1.7,0,2.6C314,152.5,314.3,151.6,314.2,150.7"/>
		<path class="st101" d="M34.4-26.4c1.2-6.4,2.9-12.7,4.4-19.1c1.1-4.7,2.1-9.5,3.2-14.2c0.4-0.4,0.7-1,1.4-1.1
			c2.5-0.4,4.7-1.9,7.1-2.7c0.9-0.3,1.9-0.7,2.8-1c-5.8,12-11.7,24.1-17.5,36.1C35.4-27.7,35.1-26.9,34.4-26.4"/>
		<path class="st64" d="M194.4-26c3-1.3,5.6-3.2,8.4-4.9c14.2-8.7,28.3-17.5,42.5-26.2c2.5-1.6,5.1-3.2,7.6-4.7
			c0.5-0.3,0.9-0.6,1-1.3c0.2,0,0.5,0,0.7,0c0.1,0.1,0.3,0.3,0.4,0.4c0.9,0.3,1.4,0.9,1.9,1.7c5.4,8.9,10.8,17.7,16.2,26.6
			c0.5,0.8,0.9,1.8,1.3,2.7c0.3,0.7,0.6,1.5,1.5,1.8c0.5,0.5,0.4,1.2,0.2,1.8c-0.7,1.3-2.1,1.1-3.2,1.1c-2.3,0.1-4.6,0.4-6.9,0.4
			c-6.4,0-12.8,0.4-19.3,0.5c-9.9,0.1-19.8,0.5-29.7,0.8c-4.1,0.1-8.1,0.2-12.1,0.3c-1.5,0-3,0.1-4.5,0.3c-2,0.2-4,0.3-5.9-0.5
			C194.3-25.5,194.3-25.8,194.4-26"/>
		<path class="st102" d="M275.3-30.2c-1,0.8-1-0.4-1.1-0.7c-3.4-5.6-6.8-11.2-10.2-16.8c-2.8-4.6-5.6-9.2-8.5-13.9
			c-0.2-0.4-0.4-0.8-0.6-1.2c1.6-1.2,3.7-0.9,5.5-1.4c2-0.6,4.1-0.9,6.1-1.3c0.2,0.4,0.5,0.8,0.7,1.1c0.4,1.1,0.5,2.3,0.9,3.3
			c0.2,1,0.4,2,0.8,3c0.1,1,0.5,1.8,0.8,2.8c0.2,1.7,0.8,3.2,1.2,4.9c1.5,5.6,3,11.3,4.4,16.9C275.7-32.3,276.6-31.2,275.3-30.2"/>
		<path class="st75" d="M-22.8,80.7c6,0,11.9,0.4,17.9,0.6c4.5,0.1,8.9,0.5,13.4,0.6c5,0.1,9.9,0.5,14.9,0.6c4.3,0.1,8.7,0.4,13,0.5
			c4.3,0.1,8.6,0.6,12.9,0.4c0.5,0,1,0.1,1.4,0.4c0.5,1.1-0.5,1.6-1.1,2.1c-6.6,5-13.2,9.9-19.8,15c-6,4.6-12.1,9.1-18.2,13.7
			c-0.7,0.6-1.7,0.8-2.3,1.6c-0.2,0-0.4,0-0.5-0.1v-0.4c-3.1-4.2-6.9-7.8-10.4-11.7C-8.7,96.1-15.8,88.4-22.8,80.7"/>
		<path class="st103" d="M8.7,115.9c0.1,0,0.3,0,0.4,0c1.1-1,2.5-0.9,3.9-0.8c10.6,1.2,21.3,2.2,31.9,3.3c2.6,0.3,5.4,0.1,7.9,1.3
			c0.4,1.5-0.8,0.9-1.4,1.1c-9.2,3.7-18.5,7.5-27.7,11.2c-16.2,6.6-32.4,13.2-48.6,19.8c-0.4,0.2-0.8,0.3-1.2,0.4
			c-0.3-0.1-0.5-0.2-0.3-0.5c0.2-0.3,0.5-0.6,0.7-0.8c7.8-7.9,15.6-15.8,23.4-23.8c3.3-3.4,6.6-6.9,9.9-10.4
			C7.9,116.4,8.3,116.2,8.7,115.9"/>
		<path class="st104" d="M52.9,120c-4.9-0.1-9.7-0.9-14.5-1.3c-5.6-0.5-11.3-1.2-16.9-1.7c-4.1-0.4-8.3-1.2-12.4-1.1
			c0.2-0.9,0.8-1.4,1.5-1.9c7.6-5.7,15.2-11.5,22.8-17.2c5.6-4.2,11.1-8.3,16.7-12.5c0.2-0.2,0.4-0.4,0.6-0.7h0.7
			c1.2,1,1.2,2.5,1.2,3.8c-0.1,5.3,0.5,10.6,0.5,15.9c-0.1,4.5,0.4,9.1,0.5,13.6c0,1.1,0.4,1.9,1.1,2.6
			C54.3,120.8,53.6,120.6,52.9,120"/>
		<path class="st57" d="M54.7,119.7c-1.3,0.1-1.8-0.5-2-1.8c-0.6-3.7-0.5-7.4-0.6-11.1c-0.1-6.3-0.6-12.5-0.5-18.8
			c0-1.4-0.2-2.8-0.3-4.3c0.1-0.3,0.2-0.5,0.4-0.8c0.1,0,0.2,0,0.3,0c5.5-0.3,10.9,0.5,16.4,0.5c5.3,0,10.7,1.1,16,0.1
			c3.6,0.7,7.2,0.2,10.8,0.4c1,0.1,2.2-0.3,2.7,1.1c-0.4,1.1-1.4,0.9-2.2,1c-2.7,0.1-5.3,0-8,0c-1.2,0-2.2,0.2-3,1.1
			c-0.9,0.2-1.8,0.5-2.4,1.3c-3,3.7-6.3,7.2-9.5,10.8c-5.5,6.3-11.1,12.4-16.7,18.6c-0.5,0.5-0.9,1.1-1.1,1.7
			C54.9,119.5,54.8,119.6,54.7,119.7"/>
		<path class="st105" d="M63.7,42.5h1.5c0.4-0.7,1.1-0.8,1.8-0.7c5.5,0.4,11,1,16.5,1.5c2.1,0.2,4.2,0,6.3,0.8
			c1.2,0.7,1.5,1.6,0.6,2.7c-1.2,0.3-2.1,1-2.9,1.9c-2.9,2.9-6,5.6-8.8,8.6c-6.3,6.7-13,13-19.3,19.7c-1.8,2-3.9,3.8-5.9,5.7
			c-0.5,0.4-1,0.7-1.7,0.4l0,0c1.6-5.4,3.1-10.8,4.7-16.1c2.3-7.7,4.8-15.3,7.1-23C63.7,43.4,63.7,42.9,63.7,42.5"/>
		<path class="st106" d="M100-22.6c0.1,0,0.2,0,0.4,0c1.1,0.7,0.8,1.7,0.7,2.7c-0.4,4.8-0.8,9.5-1.4,14.3c-0.1,0.2-0.1,0.4-0.1,0.6
			c-0.1,0.7,0.2,1.5,0,2.2C99,1,98.9,4.9,98.3,8.8c-0.1,0.9-0.1,1.9-0.8,2.6c-1.7,0.6-3.6,0.7-5.4,0.5c-6.9-0.5-13.8-0.7-20.7-1.2
			C61.5,10.1,51.5,9.7,41.6,9c-6-0.4-12-0.8-18.1-0.9c-1.3,0-2.8,0.2-3.3-1.6c0.5-1.1,1-2.2,1.5-3.4c1-1.4,2.6-1.9,4.1-2.4
			C37-2.6,48-6.5,59.1-10.1c11.7-3.7,23.3-7.7,34.9-11.6C96-22.3,98-22.7,100-22.6"/>
		<path class="st107" d="M20.2,6.6C21,7.1,22,7.2,22.9,7.3C29,7.6,35.2,7.7,41.3,8.1c7.9,0.4,15.8,1,23.6,1.4
			c5.4,0.3,10.8,0.6,16.2,0.8c5.4,0.2,10.8,0.9,16.2,0.8c0.2-0.1,0.3-0.1,0.5,0c0.2,0.6-0.2,1-0.7,1.4c-2.6,2.1-4.8,4.6-7.3,6.9
			c-4.8,4.4-9.5,8.9-14.3,13.3c-2.9,2.7-5.6,5.7-8.7,8.1c-0.8,0.6-1.6,0.9-2.4,1.3c-1.1-0.1-1.9-1-2.7-1.6
			c-13.1-8.9-26.2-17.9-39.3-26.8c-1.3-0.9-2.7-1.8-4-2.7C18.6,9.4,19.6,8.1,20.2,6.6"/>
		<path class="st108" d="M100-22.6c-8.2,2.8-16.4,5.4-24.6,8.2c-14.6,5-29.3,9.6-44,14.4C28.2,1,25,2.1,21.7,3.2
			c2.6-6,5.3-11.9,7.8-17.9c1.4-3.4,3.3-6.6,4.2-10.1c0.1,0,0.2,0,0.3,0c0.2,0.7,0.8,0.7,1.4,0.7c7.2,0.2,14.4,0.3,21.6,0.4
			c0.6,0,11.5,0.4,12.6,0.4c1.1,0,2.1,0,3.2,0c8.5,0.1,16.9,0.2,25.4,0.4C98.8-23,99.5-23,100-22.6"/>
		<path class="st47" d="M4.5,12.6c-1.5,0.7-3.2,0.3-4.7,0.4c-2.2,0.1-4.3,0-6.5,0c1.7-0.7,3.4-0.3,5.1-0.4
			C0.5,12.5,2.5,12.6,4.5,12.6"/>
		<path class="st10" d="M-16.1-23c0,0.2,0,0.5,0,0.7c0,1,0,2,0,3c0.3,0.5,0.1,1.1,0.1,1.6c-0.1,0.1-0.1,0.2-0.2,0.2
			c-0.6-2-0.4-4-0.8-6c0-0.1,0-0.2,0-0.4h0.4C-16.3-23.5-16.2-23.3-16.1-23"/>
		<path class="st109" d="M-15.3-11.4c0,0.2,0,0.5-0.1,0.7c0-1.1-1-2.2,0-3.3C-15.3-13.2-15.3-12.3-15.3-11.4"/>
		<path class="st109" d="M-15.7-14.8c-0.8-0.8-0.2-1.7-0.4-2.6l0,0c0.1-0.3,0.2-0.3,0.4,0C-15.7-16.5-15.7-15.7-15.7-14.8"/>
		<path class="st110" d="M-14.9-7.3c-0.5-0.7-0.5-1.5,0-2.2C-15-8.8-14.9-8-14.9-7.3"/>
		<path class="st87" d="M-15.7-17.4c-0.1,0-0.2,0-0.4,0c0-0.6,0-1.3,0-1.9C-15.6-18.7-15.7-18-15.7-17.4"/>
		<path class="st111" d="M64.4,42.1c3-2.9,5.9-5.9,9-8.7c2.3-2,4.4-4.2,6.7-6.2c5.6-5,11-10.3,16.5-15.4c1.5,0.2,1.2,1.4,1,2.3
			c-0.5,3.1-1.3,6.2-2,9.3c-1.2,5.4-1.9,11-3.9,16.3c-0.3,0.8,0,1.6,0.1,2.4c0.2,1.4,1.3,1,2.1,1.2c0.9,0.2,2.2-0.4,2.3,1.3
			c-1.7,1.4-3.7,0.8-5.6,0.6c-0.3,0-0.5-0.3-0.9-0.2c-6.1-0.6-12.3-1.2-18.4-1.8c-2.1-0.2-4.2-0.3-6.3-0.5
			C64.9,42.4,64.7,42.3,64.4,42.1"/>
		<path class="st112" d="M-17.2-30.1c0,0.9,0,1.7,0,2.6c-0.1,0-0.3,0-0.4,0C-17.5-28.4-17.8-29.3-17.2-30.1"/>
		<path class="st4" d="M295.8,12.9c-6,10.6-12,21.2-18,31.7c-0.8,1.3-1.3,2.9-2.5,3.9c-1.1-0.2-1.2-1.2-1.4-2
			c-1.7-6.8-3.4-13.7-5-20.5c-1.2-4.9-2.4-9.8-3.6-14.7C265,10.2,265,9,264.6,8c-0.2-0.7,0.1-1.4,0.3-2.1c0.3-0.6,0.9-1.2,1.1-1.9
			c0.3-0.8,0.7-1.5,0.9-2.3c3.4-8.2,6.1-16.5,9.6-24.6c0.4-0.9,0.6-2.1,1.9-2.3c0.2,0,0.4,0,0.6,0c0.7,0.2,1.1,0.8,1.5,1.3
			c5.8,8.7,11.4,17.5,17.1,26.3c0.8,1.2,1.3,2.5,2.1,3.7c0,0.3,0.1,0.6,0.1,0.8C299.4,9.5,297.7,11.3,295.8,12.9"/>
		<path class="st113" d="M265.2,7.7c1.8,5.6,2.9,11.4,4.3,17c2,7.9,3.9,15.9,5.8,23.8c-0.3,0.3-0.5,0.5-0.8,0.8
			c-1.6,0.6-3.2,0.6-4.8,0.5c-7.6-0.4-15.1-0.7-22.7-0.8c-1.1-0.5-2.3-0.2-3.4-0.2c-0.2,0-0.4,0-0.6-0.1c-1.8-1.1-2-1.7-1.1-3.6
			c1.4-3.2,3.5-6,5.3-9c3.1-5.4,6.3-10.7,9.5-16.1c2.2-3.7,4.4-7.4,6.5-11.1C263.7,8.1,264.2,7.5,265.2,7.7"/>
		<path class="st105" d="M243.1,47.8h0.4c1.1,0.4,2.3,0.1,3.4,0.4c6.5-0.5,13,0.5,19.6,0.5c2.7,0,5.5-0.2,8.1,0.6
			c-0.5,1-1.6,1.4-2.3,2.2c-0.7,1.1-1.6,1.9-2.6,2.6c-0.1,0.2-0.3,0.5-0.4,0.7c-0.2,0.1-0.5,0.2-0.7,0.3c-1.9,1.6-3.5,3.6-5.5,5
			c-1.8,1.9-3.7,3.6-5.6,5.4c-4.2,3.6-8,7.8-12.3,11.3c-0.7,0.6-1.4,1.7-2.5,0.6c-0.9-1.3-0.6-2.8-0.7-4.2
			c-0.3-6.7-0.8-13.4-1.4-20.1c-0.1-0.9,0.3-1.7,0-2.6C240.6,49.1,241.4,48,243.1,47.8"/>
		<path class="st82" d="M299.3,6.9c0-0.2,0-0.5,0-0.7c-1.8-3.3-1.8-7-2.3-10.5c-0.7-4.7-1.1-9.4-1.7-14.1c-0.1-1-0.5-2,1-2.3
			c2.4,8.6,4.8,17.2,7.2,25.8c0.2,0.7,0.4,1.3,0.7,1.9c-0.2,0.1-0.5,0.3-0.7,0.4C302,7.5,300.5,8.3,299.3,6.9"/>
		<path class="st113" d="M299.3,6.9c1.4-0.1,2.8-0.4,4.1,0.4c-2.4,2-4.6,4.3-7.5,5.6C297,10.9,298.1,8.9,299.3,6.9"/>
		<path class="st114" d="M269.6,54.1c0.7-1.1,1.6-1.9,2.6-2.6C271.9,52.9,270.9,53.6,269.6,54.1"/>
		<path class="st115" d="M279-24.9c-0.1,0-0.3,0-0.4,0c-0.1-0.1-0.2-0.2-0.2-0.3c0-0.1,0.1-0.3,0.2-0.4c3.3-7.5,6.6-14.9,9.9-22.4
			c2.3-5.2,4.7-10.4,7-15.7c0.2,0,0.3,0,0.5,0.1V-47c0,6.8,0,13.5,0,20.3c0,1.3-0.7,2.7,0,4c0,0.1,0,0.2,0,0.4
			c-1.2,0.9-2.6,0.3-3.8,0C287.7-23.1,283.2-23.3,279-24.9"/>
		<path class="st64" d="M279-24.9c1.7-1.1,3.2,0.2,4.8,0.4c4,0.6,8.1,1,12,2.2c0.1,0.5,0.3,1,0.4,1.5c-0.4,0.6-0.3,1.2-0.2,1.8
			c1,7.6,1.9,15.2,2.8,22.8c0.1,0.8,0.2,1.6,0.4,2.4c-1.7-2.6-3.5-5.1-5.2-7.7c-4.6-7-9.1-14.1-13.7-21.1
			C279.8-23.3,279.4-24.1,279-24.9"/>
		<path class="st46" d="M243.1,79.1c0.1,0.6-1.7,1.6,0.3,1.9c0.9,0.7,0.8,1.7,0.9,2.7c0.1,3.8,0,7.5-0.3,11.3
			c0.2,7.1,0.5,14.3,0.3,21.4c0,1.1,0.3,2.4-1,3.2c-4.1,0.7-8.3,0.6-12.5,0.2c-2.4-0.2-4.9-0.1-7.3-0.1c-11.6,0.2-23.1-0.5-34.7-0.4
			c-0.9,0-1.9,0-2.7-0.5c-0.6-0.2-1.2-0.4-0.6-1.3c0.3-0.5,0.6-0.9,1.1-1.3c7.5-5.2,15-10.4,22.4-15.6c6.5-4.5,12.9-9.2,19.4-13.6
			c4.3-2.9,8.3-6.1,12.8-8.7c0.6-0.3,1.2-0.8,1.9-0.2C243.3,78.6,243.3,78.9,243.1,79.1"/>
		<path class="st6" d="M331.8,119.3c0.4,1.3,0.5,1.8-1.5,1.6c-3.2-0.4-6.3-0.9-9.6-1.1c-3.4-0.1-6.8-1.1-10.2-1.4
			c-4.3-0.3-8.5-1.1-12.8-1.2c-1.9-0.1-3.8-0.3-5.7-0.7c-4.5-0.8-9.1-1.1-13.7-1.7c-0.6-0.1-1.2-0.2-1.6-0.8
			c-0.1-0.1-0.2-0.3-0.2-0.5c0.2-1.2,1.3-1.6,2-2.4c0.7-0.3,1.2-0.8,1.5-1.4c0.4-0.6,1-0.9,1.6-1.3c0.8-0.3,1.6-0.6,1.8-1.6
			c0.7-1,1.6-1.8,2.6-2.5c0.7-0.3,1.2-0.7,1.6-1.4c0.4-0.4,0.8-0.9,1.4-1.2c0.9-0.3,1.6-0.9,2-1.8c0.7-0.7,1.3-1.4,2.1-2
			c0.5-0.3,1-0.5,1.4-1c0.2-0.2,0.4-0.3,0.6-0.5c0.6-0.3,1-0.8,1.3-1.5c2.4-2.6,5.1-4.8,7.8-7.1c3-2.6,5.8-5.3,8.9-7.9
			c0.9-0.8,1.9-1.3,3-1.6c0.2-0.1,0.5-0.3,0.7-0.4c2.2,6.1,4.5,12.1,6.7,18.2C326.3,103.9,329,111.6,331.8,119.3"/>
		<path class="st87" d="M243.4,94.9c-0.4-0.6-0.4-1.3-0.3-2c0.7-3.9,0.2-7.9,0.3-11.9c1.9,0.3,3.7,0.3,5.6,0.4
			c8,0.2,15.9,0.2,23.9,0.5c3.9,0.1,7.8,0,11.7,0.6c0.8,0.1,1.7-0.2,2.6-0.2c0.8,0,2-0.2,1.5,1.3c0.3,0.9-0.4,1.4-0.9,1.9
			c-3.8,3.8-7.9,7.4-11.9,11c-1.8,1.6-3.6,3.2-5.4,4.9c-6.3,5.9-12.7,11.6-19.1,17.5c-0.9,0.8-2.1,1.1-2.8,2.1
			c-0.2,0.1-0.5,0.2-0.8,0.1l0-0.1c-0.9-0.6-1.1-1.6-1.3-2.6c-1.1-7.5-2.7-14.9-2.9-22.5C243.8,95.6,243.7,95.2,243.4,94.9"/>
		<path class="st98" d="M248.3,120.8c2.9-2.7,5.8-5.5,8.7-8.2c3.4-3.1,6.8-6,10.1-9.1c6.9-6.5,14-12.9,21.1-19.3
			c0.2-0.2,0.3-0.4,0.5-0.6c0.1,0.1,0.3,0.3,0.4,0.4c0.9,0.8,0.5,1.6,0.1,2.4c-3.6,7.9-7.1,15.9-10.6,23.9c-0.5,1.2-1.7,2-1.9,3.4
			c0,0.1,0,0.2,0,0.3c-0.1,0-0.2,0-0.4,0c-0.5,0.2-1,0.5-1.5,0.7c-1,1-2.2,1.4-3.5,1.7c-6.9,1.6-13.8,3.3-20.7,4.9
			C249.8,121.5,248.9,121.7,248.3,120.8"/>
		<path class="st116" d="M276.8,113.7c-0.3-2.3,1.2-4,2-5.8c3.1-7.3,6.5-14.5,9.7-21.8c0.3-0.6,0.4-1.3,0.6-1.9
			c0.8-1.5,2.2-1.7,3.7-2c6.6-1.1,13.2-2.3,19.8-3.4c1.1-0.2,2.3-0.5,3.5-0.2c-5.5,4.9-10.9,9.8-16.4,14.7c-0.9,0.8-2.1,1.4-2.7,2.5
			c-0.4,0.6-0.8,1.2-1.5,1.5c-0.1,0.1-0.2,0.2-0.4,0.4c-0.5,0.4-0.9,0.9-1.5,1.2c-0.8,0.5-1.4,1.1-1.9,1.8c-0.8,0.5-1.4,1.4-2.2,1.9
			c-0.4,0.4-0.7,0.7-1.1,1.1c-0.7,0.4-1.1,1.2-1.9,1.5c-0.9,0.8-1.7,1.5-2.6,2.3c-0.4,0.9-1.2,1.3-1.9,1.8c-0.5,0.4-1,0.8-1.5,1.2
			c-0.4,0.6-0.9,1.1-1.5,1.5C278.3,112.4,277.5,113,276.8,113.7"/>
		<path class="st117" d="M243.1,79.1v-0.7c-0.1-0.1-0.2-0.2-0.2-0.3c0-0.1,0.1-0.3,0.2-0.3c5-3.9,9.3-8.4,14.2-12.5
			c0.4-0.1,0.5,0,0.4,0.4c-4.5,4.3-9,8.7-13.6,13C243.8,79,243.5,79.2,243.1,79.1"/>
		<path class="st118" d="M257.7,65.7c-0.1-0.1-0.3-0.3-0.4-0.4c1.9-1.7,3.8-3.5,5.6-5.2c0.2-0.2,0.3-0.2,0.5,0
			C261.6,62.1,259.7,64,257.7,65.7"/>
		<path class="st93" d="M263.4,60.1c-0.2,0-0.3,0-0.5,0c1.9-1.7,3.4-3.6,5.6-4.9C267.1,57.1,265.4,58.8,263.4,60.1"/>
		<path class="st107" d="M206-57.8c-3.7,5.9-7.4,11.8-11.2,17.7c-3.3,5.2-6.7,10.4-10,15.6c-0.2,0.4-0.4,0.8-0.6,1.2
			c0.1,0.3,0.1,0.6,0,0.8c-0.1,0.8-0.5,1.3-1.4,1.3c-0.2,0-0.4-0.1-0.7-0.1c-0.7-0.3-1.4-0.4-2.2-0.4c-6.8,0.1-13.6,0.2-20.4,0
			c-4.9-0.2-9.8-0.2-14.7-0.3c-2.1-0.2-4.2-0.2-6-1.3c-1.1-0.7-2.3-0.2-3.5-0.4c0-0.8,0.7-0.9,1.1-1c7.3-3.1,14.3-7,21.5-10.3
			c6.8-3.1,13.4-6.8,20.2-9.9c5.2-2.4,10.3-5,15.5-7.4c3.6-1.7,7.2-3.6,10.9-5.2C205.2-57.9,205.6-58.2,206-57.8"/>
		<path class="st119" d="M101.3-22.4c0.7-4.1,1.5-8.2,2.2-12.4c0-3.5,2.4-5.3,4.8-7.1c4-3.2,8-6.3,11.9-9.6
			c4.6-3.9,9.4-7.7,14.2-11.5c0.4-0.4,0.9-0.7,1-1.3c1.2,0.1,1.2,1,1.1,1.8c-0.4,5.7-0.8,11.4-1.3,17.1c-0.3,3.5-0.6,7.1-0.8,10.6
			c-0.2,4-0.7,8-0.9,12.1c-0.8,0.8-1.7,1-2.8,1.1c-6.7,0.4-13.4,0-20.2,0.3c-2.4,0.1-4.8,0.5-7.3,0.3
			C102.4-21.3,101.4-21.1,101.3-22.4"/>
		<path class="st120" d="M101.1-23c1.8,0.8,3.7,0.5,5.5,0.3c6.1-0.6,12.2-0.1,18.3-0.3c2.8-0.1,5.6-0.3,8.4-0.4c1.9,0,3.7,0,5.6,0
			c2,0.2,4-0.3,6,0.4c-0.4,1-1.3,0.8-2.1,0.9c-2.2,0.1-4.4,0.1-6.5,0c-1.7-0.1-2.8,0.5-3.5,2.1c-3.3,7.2-6.5,14.4-9.9,21.5
			c-1.5,3.3-2.8,6.7-4.8,9.7c-0.2,0.3-0.5,0.6-0.8,0.8c-2.6-0.3-4.1-2.4-6-3.9c-0.3-0.3-0.4-0.7-0.8-1c-0.2-0.2-0.4-0.3-0.6-0.5
			c-3.3-3.4-6.5-6.9-9.9-10.4c-0.5-0.5-0.7-1.2-1.2-1.6c0.4-4.8,0.9-9.6,1.3-14.4c0.1-0.9,0.1-1.9,0.2-2.8c0.1-0.1,0.2-0.2,0.3-0.4
			C100.9-23,101-23,101.1-23"/>
		<path class="st66" d="M183.9-23c0.1-0.1,0.3-0.3,0.4-0.4c0.3-0.3,0.7-0.5,1-0.8c5.4-5.3,10.9-10.6,16.3-15.9
			c6.5-6.3,12.9-12.7,19.4-19c0.7-0.6,1.5-1.1,2.2-1.7c-1.6,2.9-3.9,5.1-5.9,7.6c-7.6,9.1-15.2,18.2-22.9,27.2c0,0.1,0,0.2,0,0.4
			c0.1,0.1,0.1,0.2,0.1,0.3c0,0.1,0,0.2-0.1,0.2c-0.5,0.5-1.2,0.3-1.8,0.6c-2.2,1.3-4.7,1.7-7.1,2.4C184.8-22,184-21.9,183.9-23"/>
		<path class="st98" d="M185.4,118.5c5.2,0,10.4-0.2,15.5,0.1c9.8,0.6,19.5,0,29.3,0.4c4.3,0.2,8.6,0.2,12.9,0.3
			c0.5,1.2-0.6,1.6-1.3,2.2c-4.6,3.6-9.5,6.5-14.5,9.5c-9.5,6-18.5,12.9-27.7,19.4c-4.4-10-8.8-20-13.2-30.1
			c-0.4-0.9-1.1-1.1-1.8-1.4c0-0.2,0.1-0.4,0.4-0.5C185.2,118.3,185.3,118.4,185.4,118.5"/>
		<path class="st121" d="M185,118.5c-0.1,0.1-0.3,0.2-0.4,0.4c-4.1,1.9-8.3,3.7-12.4,5.7c-17.8,8.3-35.7,16.7-53.5,25.1
			c-0.4,0.1-0.5,0-0.4-0.4c16.6-10.9,33.2-21.7,49.8-32.6c0.4-0.2,0.7-0.5,1.1-0.7c0.2-0.7,0.7-1.1,1.3-1.5c0.7-0.5,1.4-0.7,2.2-0.8
			c3.6,0.8,6.9,2.2,10.5,3.2c0.7,0.2,1.3,0.7,1.8,1.2C185.2,118.2,185.2,118.4,185,118.5"/>
		<path class="st122" d="M118.4,149.2c0.1,0.1,0.2,0.2,0.4,0.4c-0.7,0.5-1.3,1.2-2.2,0.8C117.1,150,117.8,149.6,118.4,149.2"/>
		<path class="st59" d="M97.1,144.8c-0.6-1.1,0-2,0.3-3c2.7-8.9,5.5-17.7,8.3-26.6c0.1-0.2,0.3-0.4,0.5-0.5c1.1-0.4,2.3-0.5,3.5-0.4
			c10.2,0.2,20.3-0.3,30.5-0.5c7.2-0.1,14.5-0.1,21.7-0.3c2.1-0.1,4.2-0.2,6.3,0.1c0.7,0.1,1.5,0,2.1,0.6c0.5,1.1-0.4,1.1-1,1.3
			c-9.6,3.9-19.2,7.8-28.8,11.7c-13.7,5.6-27.5,11.2-41.2,16.8C98.6,144.3,97.8,144.5,97.1,144.8"/>
		<path class="st123" d="M169.3,115.5c0.4-0.2,0.7-0.5,1.1-0.7c0.3-0.1,0.5,0,0.4,0.4c-0.5,0.3-1,0.5-1.5,0.8
			C169.3,115.8,169.3,115.6,169.3,115.5"/>
		<path class="st44" d="M52.9,120c0.6,0,1.3,0.1,1.9-0.4h0c0.4-0.9,1.3-0.9,2.1-1.1c6.7-1.3,13.5-2.5,20.3-3.5
			c0.8-0.1,1.8-0.5,2.4,0.5c-1.6,2-4,2.8-6.1,4.1c-7.1,4.5-14.3,8.8-21.4,13.3c-7.4,4.6-14.8,9.1-22.2,13.7c-3.7,2.3-7.3,4.7-11,7
			c-0.7,0.5-1.4,1.2-2.5,0.9c6.3-6,12.5-12.1,19-18c4.9-4.5,9.6-9.2,14.6-13.6c0.6-0.6,1.6-1,1.6-2.1
			C51.8,120.5,52.3,120.3,52.9,120"/>
		<path class="st124" d="M79.4,115.6c-7.4,1.3-14.9,2.6-22.3,3.9c-0.8,0.1-1.6,0.2-2.4,0.2c-0.6-0.7-0.4-1.2,0.2-1.9
			c6.1-6.7,12.2-13.4,18.2-20.2c2.8-3.3,5.9-6.4,8.6-9.8c1.1-1.4,1.5-1.4,2.2-0.7c0.9,0.5,0.8,1.3,0.7,2.1c-0.9,7.7-2,15.4-2.8,23.1
			c-0.1,0.8-0.7,1.5-0.6,2.3c-0.1,0.2-0.2,0.4-0.3,0.6c-0.4,0.1-0.7,0.2-1.1,0.4C79.7,115.5,79.5,115.5,79.4,115.6"/>
		<path class="st9" d="M80.9,115.2c0-0.1,0-0.2,0-0.4c0.2-1.1,0.9-1.9,1.7-2.6c4-3.5,8-7.1,12-10.6c5.7-5.1,11.4-10.1,17.1-15.2
			c0.6-0.6,1.4-1.1,2.3-1c0.2,0.1,0.3,0.2,0.5,0.3c0.5,1,0.1,1.9-0.2,2.9c-1.6,5.7-3.3,11.4-4.9,17.1c-0.5,1.8-1.4,3.6-1.9,5.4
			c-0.2,0.7-0.3,1.4-0.2,2.2c0,1-0.7,1.4-1.4,1.9c-0.1,0-0.2,0-0.3,0C97.4,115.2,89.2,115.2,80.9,115.2"/>
		<path class="st125" d="M248.3,120.8c4.8-1.1,9.6-2.2,14.4-3.3c4.1-0.9,8.1-1.9,12.2-2.8c0.2,0.4-0.1,0.7-0.4,1
			c-3.9,3.6-7.9,7.2-11.8,10.8c-1.9,1.8-3.9,3.5-5.8,5.3c-8.1,7.5-16.2,14.9-24.2,22.4c-0.5,0.4-0.8,0.9-1.2,1.4
			c-0.5-0.8,0.1-1.3,0.4-1.9c5.3-10.8,10.7-21.7,16.1-32.5C248.1,121,248.2,120.9,248.3,120.8"/>
		<path class="st86" d="M227.3,130.9c2.8-2.6,6.2-4.4,9.2-6.8c2.2-1.7,4.6-3,6.6-4.9c0.5-0.7,0.4-1.6,0.4-2.3c0-7.3,0-14.7,0-22
			c0-0.2,0-0.5,0-0.7c0.1,0,0.2,0,0.3,0c1.4,9,2.8,17.9,4.1,26.9c-6.1,3-12.3,6-18.4,8.9C228.8,130.3,228.1,130.6,227.3,130.9"/>
		<path class="st126" d="M278.5-25.6c0,0.1-0.1,0.2-0.1,0.3c-0.7,0.7-1.2,0.1-1.6-0.4c-0.5-0.5-0.7-1.1-1.1-1.7
			c-0.1-0.4,0.3-0.9,0-1.4c0-0.5,0-1-0.3-1.5c-1.4-6.1-2.8-12.2-4.3-18.2c-0.1-0.6-0.2-1.2-0.3-1.8c-0.1-0.4-0.3-0.8,0.4-0.8
			c2.3,7.8,4.5,15.7,6.8,23.5C278.1-26.9,278.3-26.3,278.5-25.6"/>
		<path class="st127" d="M271.1-51.1c-0.1,0.3-0.2,0.5-0.4,0.8c-0.6-1.6-1-3.3-1.2-4.9c0.2-0.1,0.3-0.1,0.5,0
			C270.4-53.8,270.7-52.5,271.1-51.1"/>
		<path class="st128" d="M268.8-57.8c-0.5-1-0.6-2-0.8-3c-0.1-0.4,0-0.5,0.4-0.3c0.2,1,0.5,2,0.7,3C269.1-58,269.1-57.8,268.8-57.8"
			/>
		<path class="st129" d="M268.8-57.8c0.1-0.1,0.2-0.3,0.4-0.4c0.3,1,0.5,2,0.8,3c-0.2,0-0.3,0-0.5,0C269.1-56,268.9-56.9,268.8-57.8
			"/>
		<path class="st130" d="M268.5-61.1c-0.1,0.1-0.3,0.2-0.4,0.3c-0.5-1.1-0.7-2.2-0.7-3.4C268.1-63.3,268.1-62.2,268.5-61.1"/>
		<path class="st82" d="M275.7-28.7c0.1,0.4,0.2,0.8,0.3,1.2c0,0.3,0,0.5-0.2,0.8c-5.9,5.1-12,9.8-18,14.8c-4.5,3.7-9.1,7.3-13.7,11
			c-3.2,2.6-6.5,5-9.6,7.8c-1,0.9-2,1.7-3.3,2.1c-0.2,0-0.4,0-0.5,0c-2.2-1.5-4.2-3.4-6.1-5.2c-6.1-5.7-12.3-11.3-18.4-17
			c-3.5-3.3-7.2-6.4-10.6-9.7c-0.6-0.6-1.4-1.1-1.2-2.2c0-0.1,0-0.2,0-0.4c6.5-0.1,13.1-0.3,19.6-0.5c8.5-0.2,17-0.5,25.5-0.7
			c8.8-0.2,17.6-0.5,26.5-0.8c2.7-0.1,5.3-0.3,8-0.3C274.7-27.9,275.4-27.9,275.7-28.7"/>
		<path class="st131" d="M51.7,83C57,78,62,72.8,67.1,67.7c7.1-7.1,14.2-14.1,21.3-21.2c0.7-0.7,1.1-0.6,1.5,0.2
			c0.5,0.3,0.8,0.8,0.7,1.4c-0.3,2-0.1,4.1-1,6c-0.8,2-0.7,4.2-1,6.3c-1.1,7.2-2.2,14.5-3.2,21.7c-0.1,0.8-0.3,1.6-1.2,2
			c-0.6,0.7-1.4,0.8-2.2,0.8c-5.2,0-10.3-0.6-15.4-0.6c-4.3,0-8.5-0.5-12.8-0.5C53.1,83.7,52.2,83.9,51.7,83"/>
		<path class="st77" d="M84.3,84.1c0.8-5.3,1.5-10.7,2.3-16c0.6-4.4,1.2-8.8,1.9-13.3c0.1-0.4,0.2-0.7,0.3-1c1.4-0.1,2,1,2.8,1.9
			c7.2,8.8,14.3,17.7,21.7,26.6c0.5-0.7,0.5-1.4,0.4-2.1c-0.1-7.4,0.6-14.8,0.4-22.2c0-2.8,0.4-5.7,0.4-8.6c0-0.8,0.1-1.5,1-1.8
			c1.3,0,1.7,1,1.7,2c0.5,5.3,1.3,10.6,2.1,15.9c0.8,5.3,1.4,10.6,2.3,15.9c0.2,1.1,0.2,2.1-0.2,3.1c-0.2,0.4-0.7,0.6-1,0.8
			c-2,0.5-4,1.2-6.1,0.2c-0.1,0-0.3,0-0.4,0c-4.8,1-9.7,0.4-14.5,0.5c-0.6,0-1.2-0.1-1.6-0.8c-1-0.6-2-0.3-3.1-0.4
			c-2.8,0-5.7,0-8.5,0C85.5,84.8,84.7,85,84.3,84.1"/>
		<path class="st131" d="M97.8,85.2c4.6,0,9.3,0,13.9,0c0.7,0,1.5-0.1,2.2,0.4c-10,8.9-19.9,17.8-29.9,26.7c-1,0.9-2,1.7-3,2.5
			c-0.5-2.6,0.2-5.2,0.5-7.7c0.8-6.7,1.6-13.3,2.5-20c0.4-1.5,1.3-2,2.8-1.9C90.4,85.3,94.1,85.2,97.8,85.2"/>
		<path class="st58" d="M115.4,47.8c-0.3,12.2-0.6,24.3-1,36.5c-0.2,0.1-0.4,0.1-0.6,0.2C105.5,74.2,97.1,64,88.8,53.7
			c1-2.3,0.7-4.8,1.1-7.1c0.5-0.6,0.2-1.3,0-1.9c1.3-0.7,2.7-0.3,4-0.4c0.8-0.1,1.6,0.1,2.4-0.4c0.3-0.7,0.9-0.8,1.5-0.8
			c5.3,0.1,10.6-0.7,15.9-0.4c0.4,0,0.9,0.1,1.3,0.3c0.2,0.1,0.4,0.2,0.6,0.4C116.3,45,116.6,46.4,115.4,47.8"/>
		<path class="st132" d="M98.9-5.4c1.4,0.4,2.4,1.4,3.3,2.4c2.2,2.5,4.4,5.1,6.9,7.3c0.6,0.5,0.9,1.3,1.4,2c-0.2,1.3-1.3,1.6-2.2,2
			c-2.8,1.1-5.7,2.1-8.6,3.1c-0.7,0.2-1.3,0.3-1.9-0.2c-0.1,0-0.3,0-0.4,0c0-4.8,0.9-9.5,1.1-14.2C99-3.7,98.4-4.5,98.9-5
			C98.9-5.2,98.9-5.3,98.9-5.4"/>
		<path class="st120" d="M98.9-5c0,0.6,0.1,1.3-0.4,1.9C98.5-3.8,98.5-4.5,98.9-5"/>
		<path class="st133" d="M97.8,11.1c4.2-1.8,8.6-2.8,12.7-4.9c0.1,0.1,0.3,0.2,0.4,0.4c0.3,0.7,0.3,1.4-0.1,2.1
			c-2.9,5.2-5.4,10.6-8.6,15.6c-1.9,1.2-2.4,3.4-3.3,5.3c-1.9,3.7-4.1,7.2-6,10.9c-0.4,0.9-0.8,2.2-2.3,2c0.4-3.7,1.5-7.2,2.2-10.7
			c1.2-6,2.6-11.9,3.9-17.8c0.2-0.7,0.4-1.5-0.1-2.1C97,11.6,97.4,11.3,97.8,11.1"/>
		<path class="st134" d="M90.7,42.5c2.4-3.5,4.1-7.3,6.2-11c1.3-2.2,2.4-4.6,3.7-6.9c0.2-0.4,0.3-1,1-0.9c0.2,0.2,0.3,0.5,0.3,0.9
			c4.3-4.1,8.8-8,13.1-12c1-0.9,1.9-1.4,3-0.1c0.3,3.5-0.2,6.9-0.3,10.4c-0.1,3-0.5,6.1-0.6,9.1c0,3-0.5,5.9-0.5,8.9
			c0,0.8-0.2,1.5-0.7,2.1c-0.2,0.3-0.6,0.3-0.9,0.5c-6.2,0.1-12.5,0.3-18.7,0.4c-1.2,0-2.4-0.1-3.7,0C91.4,44.2,90.8,43.6,90.7,42.5
			"/>
		<path class="st124" d="M231.1,8.4c3.2-2.6,6.4-5.2,9.5-7.7c7.8-6.4,15.6-12.7,23.4-19.1c3.2-2.6,6.4-5.1,9.6-7.7
			c0.6-0.5,1.2-0.9,1.9-1.1c1,0.6,0.6,1.5,0.4,2.4c-2.3,7.6-4.6,15.3-7.4,22.7c-0.4,1.2-0.8,2.4-1.2,3.5c-0.3,0.8-0.6,1.5-0.9,2.3
			c-0.1,0.8-0.9,1.4-0.6,2.4c-0.2,0.5-0.5,1-0.7,1.5c-1.9,3.2-3.7,6.4-5.7,9.6c-2.8,4.3-5.5,8.6-7.9,13.1c-2.8,5.2-6.4,9.9-8.9,15.3
			c-0.4,0.8-1.2,1.7,0.4,2.2c-1.1,0.7-1.7,1.6-1.5,3c-1.5-0.2-1-1.4-1.1-2.3c-1.3-4.8-2.5-9.7-3.8-14.5c-1.9-7.1-3.7-14.2-5.6-21.3
			c-0.3-1.2-0.5-2.4-0.3-3.7C230.8,8.8,230.9,8.6,231.1,8.4"/>
		<path class="st135" d="M267,1.7c2.7-8.8,5.4-17.6,8-26.5c0.2-0.8,0.4-1.6,0.6-2.3c0.1-0.1,0.2-0.2,0.4-0.4
			c0.8,0.7,1.6,1.4,2.5,2.2c0,0.1,0.1,0.3,0.1,0.4c-0.7,0.5-0.8,1.4-1.1,2.1c-3.4,8.3-6.7,16.6-10.1,24.9C267,2.1,266.9,2.1,267,1.7
			"/>
		<path class="st136" d="M267,1.7c0.1,0.1,0.2,0.2,0.4,0.4c-0.3,0.7-0.5,1.5-0.8,2.2c-0.3,0.1-0.5,0-0.3-0.3
			C266.3,3.1,266.5,2.4,267,1.7"/>
		<path class="st81" d="M266.2,3.9c0.1,0.1,0.2,0.2,0.3,0.3c-0.2,0.6-0.5,1.3-0.7,1.9C265.3,5.3,265.9,4.6,266.2,3.9"/>
		<path class="st124" d="M246.8,48.1c-1.2,0.3-2.3,0.1-3.4-0.4C244.6,47.9,245.7,47.5,246.8,48.1"/>
		<path class="st47" d="M241.2,48.1c0.1,0.9-0.2,1.8,0.4,2.6c-0.3,5.2,0.6,10.4,0.8,15.6c0.2,3.8,0.5,7.7,0.7,11.5
			c0,0.1,0,0.2,0,0.3c-4.6,2.1-9.6,1.8-14.5,2.3c-6.2,0.7-12.4,1.1-18.6,1.8c-5.9,0.6-11.9,1-17.9,1.6c-4.9,0.5-9.8,0.9-14.7,1.4
			c-1.4,0.1-2.8,0.7-4.1-0.4c-0.2-0.4-0.2-0.8,0.1-1.2c7-4.2,14.2-7.9,21.4-11.8c10.2-5.6,20.5-11.1,30.7-16.6
			c4.8-2.6,9.4-5.4,14.4-7.4c0.3-0.1,0.6-0.2,0.9-0.1C240.9,47.9,241,48,241.2,48.1"/>
		<path class="st137" d="M173.4,84.4c2.7,0.3,5.3-0.3,7.9-0.5c4.8-0.4,9.5-0.9,14.3-1.4c6.1-0.6,12.1-1.2,18.2-1.8
			c4.3-0.4,8.7-0.8,13-1.2c5.4-0.5,10.9-1,16.3-1.5c0,0.1,0,0.2,0,0.4c-2.2,0.6-3.7,2.3-5.5,3.5c-5.8,3.9-11.4,7.9-17.1,11.9
			c-7.8,5.5-15.6,11.1-23.5,16.5c-3.9,2.7-7.8,5.3-11.6,8.1c-0.1,0-0.2,0-0.4,0c0-0.1,0-0.3,0-0.4c-0.9-0.8-1.3-1.9-1.7-3
			c-3-8.4-6.1-16.7-9.1-25.1c-0.5-1.5-0.6-3.1-1.5-4.4c-0.1-0.2-0.1-0.4-0.1-0.6c0-0.2,0.1-0.4,0.3-0.5
			C173.1,84.3,173.2,84.3,173.4,84.4"/>
		<path class="st67" d="M282,109.1c0.5-0.7,1.1-1.4,1.9-1.8C284,108.3,283.7,108.6,282,109.1"/>
		<path class="st67" d="M289.5,102.4c0.6-0.8,1.2-1.6,2.2-1.9C291.1,101.3,290.7,102.3,289.5,102.4"/>
		<path class="st67" d="M286.5,105c0.5-0.7,1-1.3,1.9-1.5C287.8,104.1,287.7,105.2,286.5,105"/>
		<path class="st67" d="M279,111.8c0.4-0.6,0.9-1.1,1.5-1.5C280.4,111.2,279.9,111.7,279,111.8"/>
		<path class="st67" d="M295.5,97.2c0.4-0.6,0.9-1.1,1.5-1.5C296.9,96.6,296.4,97.1,295.5,97.2"/>
		<path class="st67" d="M293.6,98.7c0.3-0.6,0.8-1,1.5-1.2C294.7,98,294.5,98.8,293.6,98.7"/>
		<path class="st138" d="M117.6,11.1c3.3-7.2,6.6-14.4,9.9-21.6c1.6-3.6,3.3-7.1,4.9-10.7c0.6-1.4,1.5-1.9,3-1.9
			c3.2,0.1,6.4,0,9.5,0c11.3,0.2,22.7,0.3,34,0.5c1.4,0,2.9-0.1,4.2,0.7c-1.6,1.9-3.9,2.7-5.9,3.8c-10.6,5.4-21,11-31.6,16.3
			c-7.5,3.8-14.8,7.8-22.3,11.5c-1.4,0.7-3,1.1-4.4,2C118.4,11.9,117.7,12,117.6,11.1"/>
		<path class="st139" d="M117.6,11.1c1.2,0.5,2-0.5,2.8-1c12-6.1,23.9-12.2,35.9-18.4c8.4-4.3,16.7-8.7,25-13
			c0.6-0.3,1.1-0.5,1.8-0.6c0,0.1,0,0.3,0,0.4c0.7,0.8,0.2,1.7-0.1,2.5c-3.5,7.7-6.1,15.8-10,23.3c-0.4,0.8-0.7,1.7-0.8,2.7
			c-0.2,0.8-0.9,1.3-1.1,2.1c-0.1,0.2-0.3,0.3-0.5,0.5c-0.2,0.1-0.4,0.2-0.6,0.3c-4.8,0.3-9.7,0.6-14.5,0.9
			c-2.9,0.2-5.7,0.3-8.6,0.4c-6.1,0.3-12.3,0.7-18.4,0.9c-2.8,0.1-5.7,0.2-8.6,0.5c-0.9,0.1-1.8,0.3-2.5-0.5
			c-0.1-0.1-0.2-0.2-0.2-0.3C117.4,11.5,117.5,11.3,117.6,11.1"/>
		<path class="st140" d="M171.5,6.9c1.4-4.4,3.4-8.5,5.1-12.8c2.1-5.2,4.4-10.4,6.5-15.7c0.2-0.5,0.5-1,0.7-1.5
			c2.3,0.3,4.2-1.1,6.4-1.5c0.9-0.2,1.8-0.5,2.6-0.8c1-0.4,1,0.3,1,0.9c0,0.6-0.4,1-0.7,1.5c-6.5,9.4-12.8,18.9-19.3,28.3
			C173.4,6.2,172.9,7.5,171.5,6.9"/>
		<path class="st141" d="M117.2,12.2c-2.1,1-3.5,2.9-5.2,4.4c-3.4,2.8-6.5,5.9-9.8,8.9c-0.5,0.5-1.2,0.9-2.1,1.2
			c0.5-0.9,0.9-1.9,1.4-2.8c2-2.8,3.3-6,5-9c1.6-2.7,2.9-5.5,4.4-8.3c2.1,1.7,4.3,3.5,6.4,5.2c0,0,0,0,0,0c0.1,0.1,0.1,0.2,0.1,0.3
			C117.3,12.1,117.3,12.2,117.2,12.2"/>
		<path class="st142" d="M171.5,6.9c0.9-0.5,1.3-1.3,1.8-2.1c6.5-9.5,12.9-18.9,19.3-28.4c0.3-0.4,1.2-0.9,0.3-1.7
			c0.5-0.4,1-0.2,1.5,0c3.4,3,6.7,6.1,10.1,9.1c7.7,7.1,15.5,14.2,23.2,21.3c1.1,1,2.1,2.1,3.1,3.2c-0.5,1.3-1.7,1.2-2.7,1.2
			c-18,0.2-36,0.1-54,0.1c-1.2,0-2.4,0.1-3.3-0.9C170.8,8.1,171,7.5,171.5,6.9"/>
		<path class="st82" d="M120.2,84.8c0.2-0.1,0.5-0.2,0.7-0.3c0.5-0.4,1.1-0.2,1.6-0.1c4.7,2.7,9.4,5.3,14.1,8
			c8.1,4.7,16.2,9.3,24.2,14.1c3.8,2.2,7.6,4.3,11.2,6.7c0.4,0.3,0.7,0.7,0.5,1.2c-0.7,0-1.3,0.4-1.9,0.7c-0.1-0.1-0.2-0.3-0.4-0.4
			c-1.8-0.7-3.8-0.5-5.7-0.5c-1.9,0-3.8,0.1-5.8,0.1c-11.1,0.1-22.1,0-33.2,0.5c-6.6,0.3-13.2,0.1-19.8,0.3c0.2-0.6,0.5-1.3,0.7-1.9
			c0.9-3,2-6,3.5-8.8C113.5,97.9,116.7,91.2,120.2,84.8"/>
		<path class="st143" d="M172.7,114.4c-0.2-0.2-0.5-0.5-0.7-0.7c-0.4-0.5-0.7-1-0.7-1.7c0.4-8.3,0.5-16.6,1-24.8
			c0-0.7,0-1.5,0.8-1.9c1.2,1,1.3,2.5,1.8,3.8c3.3,9,6.5,18,9.8,27c0.2,0.7,0.3,1.4,0.4,2.2C180.8,117.2,176.8,115.6,172.7,114.4"/>
		<path class="st144" d="M120.2,84.8c1.1,0.5,0.3,1.2,0.1,1.7c-4.5,8.9-9.1,17.8-13.6,26.8c-0.4-0.5-0.2-1-0.1-1.6
			c2.6-8.1,4.9-16.3,7.1-24.5c0.1-0.5,0.3-1.1,0.5-1.6C116.2,85,118.2,84.9,120.2,84.8"/>
		<path class="st145" d="M170.7,8.8c17.3,0,34.6,0.1,51.9-0.1c2.7,0,5.5,0.7,8.1-0.3c0.1,0,0.2,0,0.4,0v0.4c-0.9,3-3.1,5.1-5,7.4
			c-7.4,9.4-14.8,18.9-22.3,28.3c-0.9,1.1-1.6,2.2-3.1,2.6c-2.1-0.7-3.1-2.7-4.3-4.2c-8-10.1-16.1-20.2-24.1-30.4
			C171.5,11.4,170.1,10.5,170.7,8.8L170.7,8.8z"/>
		<path class="st47" d="M122.5,84.8c-0.5-0.1-1-0.3-1.5-0.4c0.1-2.7-0.6-5.3-0.9-7.9c-1.3-8.8-2.6-17.7-3.6-26.5
			c-0.1-0.9-0.1-1.8-1.1-2.2c0-1.4,0-2.7,0-4.1c1.9-1,4-1.1,6-0.8c3.7,0.5,7.3,0.5,11,0.5c8,0.2,16.1,0.7,24.1,0.9
			c9.7,0.3,19.4,0.8,29.1,1.2c4.5,0.1,9,0.1,13.4,0.9c1.4,1,0.8,1.7-0.3,2.4c-3,1.8-6.2,3.2-9.3,4.7c-7.6,3.6-15.3,7.2-23,10.9
			c-7.1,3.4-14.3,6.7-21.4,10.1c-6.5,3.1-13,6-19.4,9.2c4.7-0.1,9.3,0,13.9,0c10.2,0,20.3,0,30.5,0c1,0,2.3-0.4,3,0.9
			c0,0.1,0,0.2,0,0.4c-0.9,1.1-2.1,0.9-3.3,0.9c-7.6,0-15.2,0-22.8,0c-6.6,0-13.2,0-19.8,0C125.6,85.7,124,85.6,122.5,84.8"/>
		<path class="st146" d="M199.2,47c-10.1-0.4-20.3-0.7-30.4-1.2c-5.7-0.3-11.4-0.4-17.1-0.7c-9.5-0.5-19-0.8-28.5-1.2
			c-2.6-0.1-5.2-0.2-7.8-0.3c-0.1,0-0.3,0-0.4,0c0.1-0.1,0.3-0.2,0.4-0.4c3.3-3.6,7.8-5.5,11.8-8.1c8.6-5.5,17.2-10.9,25.9-16.3
			c4.4-2.7,8.8-5.5,13.1-8.2c1.3-0.8,2.9-1,4.3-1.7c0.1,0,0.2-0.1,0.3-0.1c6,8.1,12.5,15.8,18.7,23.8c3.5,4.4,7,8.9,10.5,13.3
			c0.2,0.3,0.5,0.5,0.8,0.8c0.1,0.2,0,0.4-0.1,0.5C200.1,47.5,199.7,47.3,199.2,47"/>
		<path class="st147" d="M170.4,8.8c-5.9,3.7-11.7,7.5-17.6,11.2c-11,6.9-22,13.9-33,20.8c-1.4,0.9-2.7,2-4.4,2.4
			c0.1-0.6,0.3-1.2,0.3-1.8c0.4-8.2,0.8-16.4,1.2-24.6c0.1-1.5,0.4-3.1,0.3-4.6c0-0.1,0-0.3,0-0.4c8.2-0.5,16.5-1,24.7-1.4
			c3-0.2,6-0.3,8.9-0.4C157.4,9.6,163.9,9.2,170.4,8.8"/>
		<path class="st116" d="M200.7,47c0-0.1,0-0.2,0-0.4c2.9-2.9,5.2-6.3,7.8-9.5c7.1-9,14.2-18.1,21.3-27.2c0.3-0.4,0.8-0.8,1.2-1.1
			c3.2,12.2,6.3,24.4,9.5,36.6c0.2,0.9,0.4,1.8,0.6,2.7l-0.4,0c-3.6,0.7-7.3,0.7-10.9,0.5c-7.4-0.5-14.8-0.1-22.2-0.5
			c-2.2-0.1-4.6,0.3-6.8-0.8C200.8,47.2,200.8,47.1,200.7,47"/>
		<path class="st131" d="M199.2,47c0.5,0,1,0,1.5,0l0,0c0.5,1.5-0.7,2.4-1.4,3.4c-3.2,4.6-6.6,9-9.9,13.5
			c-4.1,5.6-8.2,11.2-12.4,16.8c-0.9,1.2-2,2.2-3.3,2.9c-0.1,0.2-0.2,0.5-0.4,0.7c-0.1,0-0.2,0-0.4,0h-50.4c0-0.1-0.1-0.3-0.1-0.4
			c2.5-1.2,5.1-2.5,7.6-3.7c11-5.2,22-10.4,33.1-15.6c9.6-4.5,19.3-9,28.9-13.5c2.2-1,4.3-2.1,6.5-3.2
			C199.1,47.8,199.4,47.6,199.2,47"/>
		<path class="st148" d="M173.8,83.7c8.6-11.7,17.2-23.5,25.9-35.2c0.4-0.5,0.8-1,1.1-1.5c8.2,0.3,16.4,0.2,24.6,0.5
			c4.5,0.1,9.1,0.1,13.6,0.3c0.6,0,1.3,0,1.8,0.4c-6.4,3.4-12.8,6.8-19.2,10.2c-5.7,3.1-11.4,6.2-17.1,9.3c-9,4.9-18,9.7-27,14.6
			C176.4,82.8,175.2,83.6,173.8,83.7"/>
		<path class="st115" d="M122.5,84.8c16.8,0,33.7,0,50.5,0c0,0.1,0,0.3,0,0.4c-0.3,9.5-0.4,19-1.1,28.5c-3.1-1.2-5.8-3.2-8.6-4.8
			c-12.5-7.2-25-14.4-37.5-21.7C124.6,86.5,123.4,85.9,122.5,84.8"/>
	</g>
</g>
<g>
	<path class="st149" d="M107.7,18.6c-1,0-1.9,0.4-2.7,1.1c-0.8,0.8-1.1,1.7-1.1,2.7v52.4c0,1,0.4,1.9,1.1,2.7
		c0.8,0.8,1.7,1.1,2.7,1.1c1,0,1.9-0.4,2.7-1.1c0.8-0.8,1.1-1.7,1.1-2.7V22.4c0-1-0.4-1.9-1.1-2.7C109.6,19,108.7,18.6,107.7,18.6z"
		/>
	<path class="st149" d="M166,18.6c-1,0-1.9,0.4-2.7,1.1c-0.8,0.8-1.1,1.7-1.1,2.7v39l-22-40.6c-0.8-1.5-2.1-2.2-3.8-2.2
		c-1.2,0-2.2,0.4-3,1.3c-0.8,0.8-1.2,1.9-1.2,3v52c0,1,0.4,1.9,1.1,2.7c0.8,0.8,1.7,1.1,2.7,1.1c1,0,1.9-0.4,2.7-1.1
		c0.8-0.8,1.1-1.7,1.1-2.7V35.9l22,40.5c0.4,0.7,0.9,1.3,1.6,1.7c0.7,0.4,1.4,0.6,2.2,0.6c1.2,0,2.2-0.4,3-1.3
		c0.8-0.8,1.3-1.9,1.3-3v-52c0-1-0.4-1.9-1.1-2.7C167.9,19,167,18.6,166,18.6z"/>
	<path class="st149" d="M213.3,51.8c-1.1-1.2-2.5-2.3-4-3.3c-1.4-0.9-2.9-1.7-4.5-2.5l-8.8-4.3c-2-1-3.5-2.1-4.5-3.4
		c-0.9-1.2-1.4-2.7-1.4-4.5c0-1.5,0.3-2.7,0.9-3.7c0.6-1,1.4-1.8,2.3-2.5c1-0.7,2.1-1.1,3.3-1.4c1.2-0.3,2.5-0.4,3.7-0.4
		c2.1,0,4,0.2,5.7,0.7c1.7,0.4,3.3,1,4.9,1.7c0.5,0.2,1,0.3,1.5,0.3c1,0,1.9-0.4,2.6-1.1c0.7-0.7,1.1-1.6,1.1-2.6
		c0-0.8-0.2-1.5-0.6-2.1c-0.4-0.6-1-1.1-1.8-1.4c-1.9-0.8-3.9-1.4-6-1.9c-2.1-0.5-4.6-0.8-7.4-0.8c-2.4,0-4.6,0.3-6.7,1
		c-2.1,0.7-4.1,1.7-5.7,2.9c-1.6,1.3-3,2.9-3.9,4.8c-1,1.9-1.5,4-1.5,6.4c0,2,0.2,3.8,0.7,5.3c0.5,1.5,1.2,2.9,2.1,4.1
		c0.9,1.1,2,2.2,3.2,3.1c1.2,0.9,2.6,1.7,4.2,2.4l8.8,4.3c1,0.5,2.1,1.1,3.1,1.7c0.9,0.6,1.8,1.3,2.5,2.1c0.7,0.8,1.3,1.7,1.7,2.6
		c0.4,0.9,0.6,1.9,0.6,3.1c0,3-0.8,5.2-2.5,6.8c-1.7,1.6-4.4,2.4-8.1,2.4c-1.9,0-3.8-0.2-5.6-0.7c-1.8-0.5-3.6-1.1-5.4-1.9
		c-0.5-0.2-1-0.3-1.6-0.3c-1,0-1.9,0.4-2.6,1c-0.7,0.7-1.1,1.6-1.1,2.6c0,0.7,0.2,1.4,0.6,2c0.4,0.6,0.9,1.1,1.6,1.4
		c2.2,0.9,4.5,1.7,6.8,2.3c2.3,0.6,4.8,0.9,7.3,0.9c2.4,0,4.7-0.4,6.9-1.1c2.2-0.7,4.2-1.8,5.8-3.1c1.7-1.4,3-3.1,4-5.1
		c1-2,1.5-4.4,1.5-7.1c0-2.3-0.3-4.3-1-6C215.3,54.5,214.4,53,213.3,51.8z"/>
	<path class="st149" d="M251.4,19.4h-12.7c-1.3,0-2.5,0.5-3.4,1.4c-0.9,0.9-1.4,2.1-1.4,3.4v50.8c0,1,0.4,1.9,1.2,2.7
		c0.8,0.7,1.7,1.1,2.7,1.1c1,0,1.9-0.4,2.7-1.1c0.8-0.7,1.2-1.6,1.2-2.7V54h9.9c5.2,0,9.5-1.6,12.8-4.7c3.1-3.1,4.6-7.2,4.6-12.3
		c0-5.2-1.6-9.6-4.9-12.8C260.8,21,256.6,19.4,251.4,19.4z M241.6,26.8h9.7c3.1,0,5.5,0.9,7.3,2.7c1.8,1.8,2.7,4.3,2.7,7.5
		c0,3-0.8,5.4-2.4,7c-1.8,1.7-4.4,2.6-7.5,2.6h-9.7V26.8z"/>
	<path class="st149" d="M288.6,18.6c-1,0-1.9,0.4-2.7,1.1c-0.8,0.8-1.1,1.7-1.1,2.7v52.4c0,1,0.4,1.9,1.1,2.7
		c0.8,0.8,1.7,1.1,2.7,1.1c1,0,1.9-0.4,2.7-1.1c0.8-0.8,1.1-1.7,1.1-2.7V22.4c0-1-0.4-1.9-1.1-2.7C290.5,19,289.6,18.6,288.6,18.6z"
		/>
	<path class="st149" d="M340.5,25.3c-4-3.9-9.3-5.9-15.8-5.9h-10.6c-1.3,0-2.5,0.5-3.4,1.4c-0.9,0.9-1.4,2.1-1.4,3.4v48.9
		c0,1.3,0.5,2.5,1.4,3.4c0.9,0.9,2.1,1.4,3.4,1.4h10.6c6.4,0,11.7-2,15.8-5.9c2-1.9,3.5-4.2,4.5-6.9c1-2.6,1.5-5.6,1.5-8.7V40.8
		c0-3.2-0.5-6.1-1.5-8.7C344,29.5,342.5,27.2,340.5,25.3z M324.7,70.5h-7.8V26.8h7.8c4.4,0,7.9,1.3,10.4,3.7c2.5,2.5,3.7,6,3.7,10.3
		v15.5c0,4.4-1.2,7.9-3.7,10.4C332.6,69.2,329.1,70.5,324.7,70.5z"/>
	<path class="st149" d="M394.6,71.5c-0.7-0.7-1.6-1-2.6-1h-21.1V51.4h19.5c1.1,0,2-0.4,2.7-1.1c0.7-0.7,1-1.6,1-2.6
		c0-1-0.4-1.9-1.1-2.6c-0.7-0.7-1.6-1-2.6-1h-19.5V26.8h20.6c1,0,1.9-0.4,2.6-1c0.7-0.7,1.1-1.6,1.1-2.6c0-1-0.4-1.9-1.1-2.6
		c-0.7-0.7-1.6-1.1-2.6-1.1h-23.4c-1.3,0-2.5,0.5-3.4,1.4c-0.9,0.9-1.4,2.1-1.4,3.4v48.9c0,1.3,0.5,2.5,1.4,3.4
		c0.9,0.9,2.1,1.4,3.4,1.4H392c1,0,1.9-0.4,2.6-1.1c0.7-0.7,1.1-1.6,1.1-2.6C395.7,73.1,395.4,72.2,394.6,71.5z"/>
</g>
</svg>
